<?xml version="1.0" standalone="no"?>
<!DOCTYPE svg PUBLIC "-//W3C//DTD SVG 1.1//EN" "http://www.w3.org/Graphics/SVG/1.1/DTD/svg11.dtd" >
<svg xmlns="http://www.w3.org/2000/svg">
<metadata></metadata>
<defs>
<font id="courier_primeregular" horiz-adv-x="1154" >
<font-face units-per-em="2048" ascent="1638" descent="-410" />
<missing-glyph horiz-adv-x="500" />
<glyph horiz-adv-x="0" />
<glyph horiz-adv-x="0" />
<glyph unicode=" " />
<glyph unicode="!" d="M432 124q0 30 11.5 56.5t31 46t46 31t56.5 11.5t56.5 -11.5t46 -31t31 -46t11.5 -56.5t-11.5 -56.5t-31 -46t-46 -31t-56.5 -11.5t-56.5 11.5t-46 31t-31 46t-11.5 56.5zM478 1089q-4 47 38 47h122q43 0 39 -47l-46 -608q-3 -45 -54 -45q-24 0 -38 12t-16 33z" />
<glyph unicode="&#x22;" d="M283 1089q-6 47 38 47h155q44 0 38 -47l-52 -423q-2 -24 -18.5 -37t-44.5 -13t-45 13t-19 37zM640 1089q-6 47 39 47h154q44 0 38 -47l-51 -423q-3 -24 -19.5 -37t-44.5 -13t-44.5 13t-19.5 37z" />
<glyph unicode="#" d="M38 380q0 36 13.5 51.5t45.5 15.5h216l71 231h-193q-32 0 -45.5 15.5t-13.5 51.5q0 37 13.5 52.5t45.5 15.5h236l92 292q5 16 19.5 23.5t31.5 7.5q14 0 27.5 -4t23.5 -12.5t14.5 -20t-0.5 -26.5l-81 -260h206l92 292q4 16 18.5 23.5t31.5 7.5q14 0 28 -4t24 -12.5 t14.5 -20t-0.5 -26.5l-82 -260h172q31 0 45 -15.5t14 -52.5q0 -36 -14 -51.5t-45 -15.5h-214l-72 -231h192q31 0 45 -15.5t14 -51.5q0 -37 -14 -52.5t-45 -15.5h-235l-94 -302q-4 -16 -18.5 -23.5t-31.5 -7.5q-14 0 -28 4.5t-23.5 13t-14.5 20t0 25.5l84 270h-206l-94 -302 q-5 -16 -19.5 -23.5t-31.5 -7.5q-14 0 -27.5 4.5t-23.5 13t-15 20t0 25.5l85 270h-174q-32 0 -45.5 15.5t-13.5 52.5zM439 447h207l71 231h-206z" />
<glyph unicode="$" d="M168 172v226q0 33 15.5 47t55.5 14q20 0 31.5 -9.5t19.5 -29.5q27 -70 79.5 -110.5t136.5 -54.5v262q-51 7 -98.5 16t-89.5 26q-32 13 -58.5 30.5t-45.5 42t-30 56.5t-11 73q0 63 25.5 111.5t70 81.5t105 50t132.5 17v151q0 33 15.5 47t50.5 14q34 0 49.5 -14t15.5 -47 v-163q50 -14 91.5 -37.5t74.5 -54.5v43q0 33 15.5 47t54.5 14q40 0 55.5 -14t15.5 -47v-179q0 -33 -15.5 -47t-55.5 -14q-32 0 -45 24q-30 58 -78 90.5t-113 44.5v-232q50 -6 99 -15t92 -25q35 -13 64 -31.5t50.5 -44t33 -60t11.5 -79.5q0 -62 -23 -113t-67.5 -87.5 t-109.5 -57.5t-150 -23v-167q0 -33 -15.5 -47.5t-49.5 -14.5q-35 0 -50.5 14.5t-15.5 47.5v177q-60 12 -108.5 38t-88.5 66v-53q0 -33 -15.5 -47t-54.5 -14q-40 0 -55.5 14t-15.5 47zM321 761q0 -31 20.5 -49.5t56.5 -29.5q22 -8 49.5 -12.5t58.5 -9.5v225 q-88 -2 -136.5 -34t-48.5 -90zM637 247q101 5 151 44.5t50 100.5q0 34 -21.5 54t-57.5 32q-26 9 -56.5 14t-65.5 10v-255z" />
<glyph unicode="%" d="M47 879q0 53 20 100t55.5 82t82 55t100.5 20q53 0 99.5 -20t82 -55t55.5 -82t20 -100q0 -54 -20 -100.5t-55.5 -81.5t-82 -55.5t-99.5 -20.5q-54 0 -100.5 20.5t-82 55.5t-55.5 81.5t-20 100.5zM121 215l822 780q45 43 89 -4q46 -47 1 -90l-821 -780q-46 -42 -90 5 q-46 47 -1 89zM169 879q0 -28 11 -52.5t29 -43t42.5 -29t53.5 -10.5q28 0 52.5 10.5t42.5 29t29 43t11 52.5t-11 52.5t-29 43t-42.5 29t-52.5 10.5q-29 0 -53.5 -10.5t-42.5 -29t-29 -43t-11 -52.5zM592 237q0 53 20.5 100t55.5 82t81.5 55t100.5 20q53 0 99.5 -20t82 -55 t55.5 -82t20 -100q0 -54 -20 -100.5t-55.5 -81.5t-82 -55.5t-99.5 -20.5q-54 0 -100.5 20.5t-81.5 55.5t-55.5 81.5t-20.5 100.5zM714 237q0 -28 11 -52.5t29.5 -43t43 -29t52.5 -10.5t52.5 10.5t43 29t29 43t10.5 52.5t-10.5 52.5t-29 43t-43 29t-52.5 10.5t-52.5 -10.5 t-43 -29t-29.5 -43t-11 -52.5z" />
<glyph unicode="&#x26;" d="M138 291q0 50 13 93.5t37 80.5t58 70t75 61q-41 48 -67 107t-26 134q0 63 22.5 117.5t63 94.5t99 63.5t130.5 23.5q85 0 159 -27.5t136 -69.5q19 -14 19 -51v-119q0 -33 -15.5 -47.5t-54.5 -14.5q-40 0 -55.5 14.5t-15.5 47.5v84q-33 21 -76.5 32.5t-97.5 11.5 q-40 0 -71 -12.5t-52 -34.5t-32.5 -51t-11.5 -62q0 -51 20 -93t58 -84l275 -310q38 82 68 185q5 17 16 28t33 11h148q32 0 45.5 -14t13.5 -50q0 -35 -13.5 -49.5t-45.5 -14.5h-88q-16 -56 -36 -107t-45 -96l103 -115h79q32 0 45.5 -14t13.5 -50t-13.5 -50t-45.5 -14h-107 q-21 0 -40 7.5t-34 23.5l-81 91q-59 -67 -130.5 -105t-156.5 -38q-76 0 -135.5 25t-100.5 68t-62 99.5t-21 119.5zM287 291q0 -36 12 -68t34.5 -55t53.5 -36.5t70 -13.5q59 0 107.5 28t88.5 78l-245 276q-65 -46 -93 -96t-28 -113z" />
<glyph unicode="'" d="M462 1089q-6 47 38 47h154q44 0 39 -47l-52 -423q-3 -24 -19.5 -37t-44.5 -13q-27 0 -44 13t-20 37z" />
<glyph unicode="(" d="M279 430q0 149 40 276t104 229t143.5 178t158.5 123q20 12 39.5 1t32.5 -33q13 -21 16 -44.5t-12 -33.5q-70 -46 -138.5 -111.5t-123 -152t-88 -194.5t-33.5 -238q0 -131 33.5 -238.5t88 -193t123 -150.5t138.5 -111q15 -11 12 -34t-16 -44q-13 -22 -32.5 -33t-39.5 1 q-79 47 -158.5 122.5t-143.5 177t-104 227.5t-40 276z" />
<glyph unicode=")" d="M341 -297q-3 23 12 34q70 46 138.5 111t122.5 150.5t88 193t34 238.5q0 130 -34 238t-88 194.5t-122.5 152t-138.5 111.5q-15 10 -12 33.5t16 44.5q13 22 32.5 33t40.5 -1q79 -47 158 -123t143 -178t104 -229t40 -276q0 -150 -40 -276t-104 -227.5t-143 -177t-158 -122.5 q-21 -12 -40.5 -1t-32.5 33q-13 21 -16 44z" />
<glyph unicode="*" d="M185 852q13 42 41 54t64 -4l240 -113l-34 263q-4 39 16.5 61.5t64.5 22.5t65 -22.5t16 -61.5l-34 -263l241 113q36 16 63.5 4t40.5 -54q13 -43 -2.5 -69t-53.5 -34l-262 -50l185 -195q27 -28 23 -58.5t-39 -55.5q-36 -26 -66.5 -18t-49.5 42l-127 230l-127 -230 q-19 -34 -49.5 -42t-65.5 18q-36 25 -40 55.5t24 58.5l182 195l-259 50q-39 8 -54.5 34t-2.5 69z" />
<glyph unicode="+" d="M160 547q0 36 13.5 50t45.5 14h294v294q0 32 14 45.5t50 13.5t50 -13.5t14 -45.5v-294h294q32 0 46 -14t14 -50t-14 -50t-46 -14h-294v-294q0 -32 -14 -45.5t-50 -13.5t-50 13.5t-14 45.5v294h-294q-32 0 -45.5 14t-13.5 50z" />
<glyph unicode="," d="M352 -214l97 453q9 37 49 37h183q23 0 31 -17t-5 -42l-237 -455q-10 -20 -26.5 -29t-35.5 -9q-13 0 -24.5 4t-20 12t-11.5 19.5t0 26.5z" />
<glyph unicode="-" d="M160 547q0 36 13.5 50t45.5 14h716q32 0 46 -14t14 -50t-14 -50t-46 -14h-716q-32 0 -45.5 14t-13.5 50z" />
<glyph unicode="." d="M418 138q0 33 13 61.5t34.5 50.5t50 34.5t61.5 12.5t61.5 -12.5t50.5 -34.5t34.5 -50.5t12.5 -61.5t-12.5 -61.5t-34.5 -50t-50.5 -34.5t-61.5 -13t-61.5 13t-50 34.5t-34.5 50t-13 61.5z" />
<glyph unicode="/" d="M187.5 -244q-4.5 11 1.5 25l641 1446q7 15 24 21.5t37 6.5q17 0 32.5 -4.5t27 -12.5t16 -18.5t-1.5 -24.5l-641 -1446q-6 -15 -23.5 -21.5t-37.5 -6.5q-17 0 -33 4t-27 12t-15.5 19z" />
<glyph unicode="0" d="M177 557q0 131 28 237.5t80 183t126 117.5t166 41q91 0 165.5 -41t126.5 -117.5t80.5 -183t28.5 -237.5q0 -130 -28.5 -237t-80.5 -182.5t-126.5 -117t-165.5 -41.5q-92 0 -166 41.5t-126 117t-80 182.5t-28 237zM325 557q0 -105 19 -186.5t52.5 -137.5t79.5 -85.5 t101 -29.5q56 0 102 29.5t79 85.5t52 137.5t19 186.5q0 106 -19 187.5t-52 138t-79 85.5t-102 29q-55 0 -101 -29t-79.5 -85.5t-52.5 -138t-19 -187.5z" />
<glyph unicode="1" d="M223 64q0 36 13.5 50t45.5 14h253v842l-233 -85q-21 -7 -39.5 2t-29.5 44q-11 34 -2.5 54t30.5 27l343 124q30 10 51 -6.5t21 -52.5v-949h240q32 0 45.5 -14t13.5 -50t-13.5 -50t-45.5 -14h-634q-32 0 -45.5 14t-13.5 50z" />
<glyph unicode="2" d="M176 64q0 35 14 51l413 419q42 42 71.5 77t49 67t28 63t8.5 66q0 87 -54.5 138.5t-159.5 51.5q-57 0 -105.5 -14.5t-88.5 -37.5v-104q0 -33 -15.5 -47t-55.5 -14q-39 0 -54.5 14t-15.5 47v138q0 37 21 52q68 49 147 77t166 28q82 0 149 -22t115 -64t74 -103.5t26 -139.5 q0 -50 -13.5 -95.5t-39 -88.5t-61.5 -86t-82 -89l-315 -320h408v137q0 33 15.5 47t54.5 14q40 0 55.5 -14t15.5 -47v-201q0 -36 -14 -50t-46 -14h-652q-32 0 -45.5 14t-13.5 50z" />
<glyph unicode="3" d="M180.5 136q-4.5 22 15.5 55t42.5 38t43.5 -11q60 -45 132.5 -72.5t147.5 -27.5q120 0 179.5 56.5t59.5 149.5q0 99 -62 148.5t-172 49.5h-69q-32 0 -45.5 14t-13.5 50q0 35 13.5 49.5t45.5 14.5h52q108 0 163 45t55 131q0 80 -55 125.5t-157 45.5q-110 0 -186 -36v-63 q0 -33 -15.5 -47t-54.5 -14q-40 0 -55.5 14t-15.5 47v102q0 21 6.5 33t19.5 21q65 39 138.5 60.5t161.5 21.5q81 0 147 -22t113 -62.5t72.5 -97.5t25.5 -128q0 -84 -39 -141.5t-105 -91.5q84 -35 132 -102.5t48 -166.5q0 -76 -25.5 -139.5t-75 -109t-122 -71t-164.5 -25.5 q-47 0 -94.5 8.5t-93 24t-88 37t-78.5 49.5q-23 16 -27.5 38z" />
<glyph unicode="4" d="M138 402q0 31 10 44l455 633q19 28 42.5 42.5t60.5 14.5q44 0 63 -20t19 -53v-597h152q32 0 45.5 -14t13.5 -50q0 -35 -13.5 -49.5t-45.5 -14.5h-152v-210h124q32 0 45.5 -14t13.5 -50t-13.5 -50t-45.5 -14h-404q-32 0 -46 14t-14 50t14 50t46 14h139v210h-450 q-32 0 -45.5 14.5t-13.5 49.5zM325 466h322l7 466z" />
<glyph unicode="5" d="M177.5 129q-5.5 22 14.5 55t42.5 38.5t43.5 -10.5q59 -42 130 -68t145 -26q58 0 104 17.5t78 50t49 77t17 100.5q0 52 -16 95.5t-45.5 75t-72 49t-95.5 17.5q-68 0 -118 -17.5t-96 -49.5q-15 -9 -47 -9q-39 0 -55.5 14t-14.5 47l18 470q2 33 16.5 47t54.5 14h502 q32 0 45.5 -14t13.5 -50t-13.5 -50t-45.5 -14h-438l-12 -302q45 26 95 39.5t107 13.5q85 0 153.5 -28t115.5 -78t71.5 -119t24.5 -151q0 -83 -27.5 -153t-79 -121t-125 -80.5t-164.5 -29.5q-92 0 -183 30.5t-164 81.5q-23 16 -28.5 38z" />
<glyph unicode="6" d="M189 481q0 75 15.5 152t49.5 148t87 133.5t127.5 110t172.5 77t221 34.5q21 1 35.5 -11.5t18.5 -51.5q3 -42 -6 -58t-28 -17q-130 -6 -226.5 -40.5t-163 -92.5t-105 -136.5t-50.5 -174.5q49 65 120 99t152 34q78 0 145 -25.5t115.5 -72t76.5 -112t28 -145.5 q0 -76 -28 -141t-78 -112t-121 -73.5t-159 -26.5q-49 0 -96.5 11.5t-90 34.5t-78 57.5t-62.5 80.5q-35 61 -53.5 138.5t-18.5 179.5zM350 346q0 -50 17 -92t48 -72t75 -47t98 -17t97.5 15.5t74.5 43.5t48 67.5t17 87.5q0 49 -16.5 89t-47 68t-74 43.5t-99.5 15.5 q-52 0 -96 -14.5t-75.5 -41.5t-49 -64t-17.5 -82z" />
<glyph unicode="7" d="M215 851v201q0 36 14 50t45 14h634q32 0 45.5 -14t13.5 -50q0 -12 -1.5 -22t-3.5 -16l-401 -991q-10 -27 -34.5 -37t-57.5 -5q-32 6 -47 24.5t-3 47.5l383 935h-446v-137q0 -33 -15.5 -47t-54.5 -14q-40 0 -55.5 14t-15.5 47z" />
<glyph unicode="8" d="M194 320q0 48 14.5 89t40 76t60.5 61.5t76 45.5q-33 18 -61 41.5t-49 53t-33 65t-12 74.5q0 65 26.5 122t72.5 99t109.5 65.5t138.5 23.5q74 0 138 -23.5t110 -65.5t72.5 -99t26.5 -122q0 -39 -12 -74.5t-33.5 -65t-49.5 -53t-61 -41.5q41 -19 76.5 -45.5t61.5 -61.5 t40.5 -76t14.5 -89q0 -74 -29.5 -136.5t-80.5 -108t-121 -71t-153 -25.5t-153 25.5t-121 71t-80 108t-29 136.5zM344 321q0 -45 17 -82t48 -63.5t73.5 -42t94.5 -15.5t94.5 15.5t73.5 42t48 63.5t17 82q0 44 -17 81t-48 63.5t-73.5 41t-94.5 14.5t-94.5 -14.5t-73.5 -41 t-48 -63.5t-17 -81zM375 823q0 -36 15.5 -67t42.5 -54.5t64 -37t80 -13.5t80.5 13.5t64 37t42 54.5t15.5 67q0 41 -15.5 73t-42 54.5t-64 34.5t-80.5 12t-80 -12t-64 -34.5t-42.5 -54.5t-15.5 -73z" />
<glyph unicode="9" d="M180 784q0 76 28 141t78.5 112t121 73t158.5 26q50 0 97.5 -11t89.5 -34t77.5 -57.5t62.5 -80.5q36 -61 54 -138.5t18 -180.5q0 -75 -15.5 -151.5t-49 -147.5t-87 -133.5t-128 -110t-172.5 -77t-221 -35.5q-20 -1 -34.5 12t-18.5 51q-4 43 5.5 59t28.5 17 q129 6 225.5 40.5t163 92t105 136.5t51.5 175q-50 -65 -121 -99t-152 -34q-78 0 -144.5 25t-115.5 71.5t-77 112t-28 146.5zM329 784q0 -49 16.5 -89t47 -68t74 -43.5t99.5 -15.5q52 0 96 14.5t75.5 41t49.5 64t18 82.5q0 50 -17 91.5t-48 72t-75.5 47t-98.5 16.5t-97.5 -15 t-74.5 -43t-48 -67.5t-17 -87.5z" />
<glyph unicode=":" d="M418 138q0 33 13 61.5t34.5 50.5t50 34.5t61.5 12.5t61.5 -12.5t50.5 -34.5t34.5 -50.5t12.5 -61.5t-12.5 -61.5t-34.5 -50t-50.5 -34.5t-61.5 -13t-61.5 13t-50 34.5t-34.5 50t-13 61.5zM418 730q0 33 13 62t34.5 50.5t50 34t61.5 12.5t61.5 -12.5t50.5 -34t34.5 -50.5 t12.5 -62t-12.5 -61.5t-34.5 -50t-50.5 -34t-61.5 -12.5t-61.5 12.5t-50 34t-34.5 50t-13 61.5z" />
<glyph unicode=";" d="M352 -214l97 453q9 37 49 37h183q23 0 31 -17t-5 -42l-237 -455q-10 -20 -26.5 -29t-35.5 -9q-13 0 -24.5 4t-20 12t-11.5 19.5t0 26.5zM418 730q0 33 13 62t34.5 50.5t50 34t61.5 12.5t61.5 -12.5t50.5 -34t34.5 -50.5t12.5 -62t-12.5 -61.5t-34.5 -50t-50.5 -34 t-61.5 -12.5t-61.5 12.5t-50 34t-34.5 50t-13 61.5z" />
<glyph unicode="&#x3c;" d="M118 548q0 24 10.5 39t33.5 26l730 358q29 14 50 7t37 -38q16 -33 9 -54t-37 -35l-631 -303l631 -303q30 -14 37 -35t-9 -54q-16 -31 -37 -38t-50 7l-730 358q-23 11 -33.5 26t-10.5 39z" />
<glyph unicode="=" d="M160 359q0 36 13.5 50t45.5 14h716q32 0 46 -14t14 -50t-14 -50t-46 -14h-716q-32 0 -45.5 14t-13.5 50zM160 735q0 36 13.5 50t45.5 14h716q32 0 46 -14t14 -50t-14 -50t-46 -14h-716q-32 0 -45.5 14t-13.5 50z" />
<glyph unicode="&#x3e;" d="M166.5 210q6.5 21 36.5 35l632 303l-632 303q-30 14 -36.5 35t9.5 54q16 31 36.5 38t49.5 -7l731 -358q22 -11 33 -26t11 -39t-11 -39t-33 -26l-731 -358q-29 -14 -49.5 -7t-36.5 38q-16 33 -9.5 54z" />
<glyph unicode="?" d="M239 879v119q0 39 23 53q72 43 152 64t167 21q78 0 139.5 -21.5t104 -60t65 -93t22.5 -119.5q0 -63 -19.5 -110.5t-57 -85t-93.5 -68.5t-128 -60l-10 -133q-1 -21 -17.5 -34.5t-46.5 -13.5q-31 0 -47 13.5t-18 34.5l-10 184q-1 19 6 30t23 18l64 26q54 22 92.5 42.5 t64 43.5t37 50.5t11.5 62.5q0 69 -46.5 112t-134.5 43q-57 0 -107.5 -8t-94.5 -26v-84q0 -33 -15.5 -47t-55.5 -14q-39 0 -54.5 14t-15.5 47zM410 109q0 26 10.5 50t27.5 41.5t40.5 28t51.5 10.5q26 0 50 -10.5t41.5 -28t27.5 -41.5t10 -50q0 -27 -10 -50.5t-27.5 -41 t-41.5 -28t-50 -10.5q-28 0 -51.5 10.5t-40.5 28t-27.5 41t-10.5 50.5z" />
<glyph unicode="@" d="M47 366q0 138 43 256.5t120 205.5t181.5 136t228.5 49q109 0 198 -38t151.5 -106t96.5 -162.5t34 -207.5q0 -83 -19.5 -151t-53.5 -117t-83 -75.5t-108 -26.5q-62 0 -105.5 31t-64.5 90q-22 -28 -43.5 -51t-45 -39.5t-50 -26t-58.5 -9.5q-35 0 -65 14t-52.5 41.5 t-35 66.5t-12.5 90q0 42 10 88t29 90.5t46 85t60 71t71.5 49t81.5 18.5q45 0 73.5 -26t46.5 -68l29 59q5 10 22 10t34 -6q16 -7 28 -18t8 -25l-72 -284q-16 -61 2.5 -97t61.5 -36q35 0 63.5 18.5t47.5 52t29.5 79.5t10.5 102q0 92 -26 166t-74 125.5t-116.5 79.5t-153.5 28 q-98 0 -181 -41t-143.5 -112.5t-94.5 -169t-34 -209.5q0 -91 24 -163.5t70 -124t114 -79t155 -27.5q68 0 130 10t110 25q34 10 49 -41q7 -25 2 -39.5t-20 -21.5q-50 -22 -120.5 -35.5t-148.5 -13.5q-113 0 -202 35.5t-151 101.5t-95 160t-33 213zM431 337q0 -46 17 -66.5 t45 -20.5q36 0 68 26t56 66.5t38 89.5t14 95q0 45 -19 68.5t-52 23.5q-26 0 -55.5 -24.5t-54.5 -64t-41 -90t-16 -103.5z" />
<glyph unicode="A" d="M9 64q0 36 14 50t46 14h52l311 860h-175q-32 0 -46 14t-14 50t14 50t46 14h345q37 0 60 -14t35 -47l331 -927h58q32 0 45.5 -14t13.5 -50t-13.5 -50t-45.5 -14h-333q-32 0 -45.5 14t-13.5 50t13.5 50t45.5 14h127l-77 224h-456l-78 -224h114q32 0 45.5 -14t13.5 -50 t-13.5 -50t-45.5 -14h-314q-32 0 -46 14t-14 50zM391 479h369l-175 509h-18z" />
<glyph unicode="B" d="M75 64q0 36 13.5 50t45.5 14h115v860h-115q-32 0 -45.5 14t-13.5 50t13.5 50t45.5 14h471q85 0 149 -21.5t106.5 -61.5t65 -96t22.5 -124q0 -73 -33 -127.5t-93 -88.5q100 -32 153 -102.5t53 -175.5q0 -75 -24 -133.5t-70 -100t-113 -63.5t-154 -22h-533q-32 0 -45.5 14 t-13.5 50zM390 128h249q118 0 179.5 49.5t61.5 141.5q0 193 -236 193h-254v-384zM390 640h195q111 0 165 45t54 128q0 86 -54 130.5t-165 44.5h-195v-348z" />
<glyph unicode="C" d="M111 557q0 131 35 237.5t99.5 183t154 117.5t196.5 41q91 0 158.5 -30.5t114.5 -84.5v54q0 33 15.5 47t54.5 14q40 0 55.5 -14t15.5 -47v-310q0 -33 -15.5 -47t-55.5 -14q-39 0 -54.5 14t-15.5 47q0 46 -15.5 88.5t-48 74.5t-82.5 50.5t-118 18.5q-76 0 -140 -30.5 t-109.5 -87.5t-71 -138.5t-25.5 -183.5q0 -101 24 -182.5t68 -138t106.5 -87.5t138.5 -31q94 0 178 27t152 80q19 15 41.5 13t42.5 -37q17 -28 17 -50q-1 -4 -1 -7q-4 -24 -28 -42q-89 -62 -191.5 -92.5t-210.5 -30.5q-111 0 -200.5 41.5t-152.5 117t-97.5 182.5t-34.5 237z " />
<glyph unicode="D" d="M75 64q0 36 13.5 50t45.5 14h106v860h-106q-32 0 -45.5 14t-13.5 50t13.5 50t45.5 14h443q111 0 202 -38.5t156 -110.5t101 -175.5t36 -234.5q0 -130 -36 -233.5t-101 -175.5t-156 -110t-202 -38h-443q-32 0 -45.5 14t-13.5 50zM381 128h175q83 0 151 27.5t115.5 81.5 t74 134.5t26.5 185.5q0 106 -26.5 186t-74 134.5t-115.5 82.5t-151 28h-175v-860z" />
<glyph unicode="E" d="M75 64q0 36 13.5 50t45.5 14h96v860h-96q-32 0 -45.5 14t-13.5 50t13.5 50t45.5 14h822q32 0 45.5 -14t13.5 -50v-239q0 -33 -15.5 -47t-54.5 -14q-40 0 -55.5 14t-15.5 47v175h-503v-349h235v86q0 33 15.5 47t55.5 14q39 0 54.5 -14t15.5 -47v-299q0 -33 -15.5 -47 t-54.5 -14q-40 0 -55.5 14t-15.5 47v85h-235v-383h522v215q0 33 15.5 47t55.5 14q39 0 54.5 -14t15.5 -47v-279q0 -36 -13.5 -50t-45.5 -14h-841q-32 0 -45.5 14t-13.5 50z" />
<glyph unicode="F" d="M75 64q0 36 13.5 50t45.5 14h124v860h-124q-32 0 -45.5 14t-13.5 50t13.5 50t45.5 14h850q32 0 45.5 -14t13.5 -50v-248q0 -33 -15.5 -47t-54.5 -14q-40 0 -55.5 14t-15.5 47v184h-502v-368h234v86q0 33 16 47t55 14t55 -14t16 -47v-299q0 -33 -16 -47t-55 -14t-55 14 t-16 47v86h-234v-365h218q32 0 45.5 -14t13.5 -50t-13.5 -50t-45.5 -14h-484q-32 0 -45.5 14t-13.5 50z" />
<glyph unicode="G" d="M92 557q0 131 37 237.5t103 183t156.5 117.5t198.5 41q91 0 158 -28t112 -79v46q0 33 15.5 47t55.5 14q39 0 54.5 -14t15.5 -47v-272q0 -33 -15.5 -47t-54.5 -14q-40 0 -55.5 14t-15.5 47q0 42 -17.5 77.5t-50 61.5t-81.5 40.5t-112 14.5q-78 0 -143.5 -30.5 t-112.5 -87.5t-73 -138.5t-26 -183.5q0 -101 24.5 -182.5t70 -138t109.5 -87.5t142 -31q79 0 149 13t132 41v213h-233q-32 0 -45.5 14.5t-13.5 49.5q0 36 13.5 50t45.5 14h404q32 0 45.5 -14t13.5 -50q0 -35 -13.5 -49.5t-45.5 -14.5h-30v-251q0 -46 -34 -64 q-78 -46 -178.5 -68.5t-209.5 -22.5q-111 0 -202.5 41.5t-156 117t-100.5 182.5t-36 237z" />
<glyph unicode="H" d="M75 64q0 36 13.5 50t45.5 14h68v860h-68q-32 0 -45.5 14t-13.5 50t13.5 50t45.5 14h296q32 0 45.5 -14t13.5 -50t-13.5 -50t-45.5 -14h-87v-349h468v349h-86q-32 0 -45.5 14t-13.5 50t13.5 50t45.5 14h295q32 0 45.5 -14t13.5 -50t-13.5 -50t-45.5 -14h-68v-860h68 q32 0 45.5 -14t13.5 -50t-13.5 -50t-45.5 -14h-295q-32 0 -45.5 14t-13.5 50t13.5 50t45.5 14h86v383h-468v-383h87q32 0 45.5 -14t13.5 -50t-13.5 -50t-45.5 -14h-296q-32 0 -45.5 14t-13.5 50z" />
<glyph unicode="I" d="M188 64q0 36 13.5 50t45.5 14h260v860h-241q-32 0 -45.5 14t-13.5 50t13.5 50t45.5 14h622q32 0 46 -14t14 -50t-14 -50t-46 -14h-240v-860h259q32 0 45.5 -14t13.5 -50t-13.5 -50t-45.5 -14h-660q-32 0 -45.5 14t-13.5 50z" />
<glyph unicode="J" d="M108 169v268q0 33 15.5 47t55.5 14q39 0 54.5 -14t15.5 -47v-248q79 -71 216 -71q125 0 179.5 55.5t54.5 167.5v647h-320q-32 0 -45.5 14t-13.5 50t13.5 50t45.5 14h650q32 0 46 -14t14 -50t-14 -50t-46 -14h-189v-675q0 -166 -95.5 -250t-280.5 -84q-112 0 -198 39.5 t-143 102.5q-15 18 -15 48z" />
<glyph unicode="K" d="M75 64q0 36 13.5 50t45.5 14h106v860h-106q-32 0 -45.5 14t-13.5 50t13.5 50t45.5 14h333q32 0 45.5 -14t13.5 -50t-13.5 -50t-45.5 -14h-86v-396l408 396h-64q-32 0 -45.5 14t-13.5 50t13.5 50t45.5 14h304q32 0 46 -14t14 -50t-14 -50t-46 -14h-53l-398 -381q13 1 25 1 q51 0 95 -16q56 -20 99 -78q26 -35 47 -77t38 -85.5t32.5 -84t32.5 -71.5q17 -32 37 -50t47 -18h27q31 0 45 -14t14 -50t-14 -50t-45 -14h-78q-42 0 -83.5 29t-77.5 102q-19 37 -35 78t-31 81t-31.5 76.5t-37.5 65.5q-22 33 -56 50.5t-78 17.5q-39 0 -75.5 -13.5 t-65.5 -41.5l-28 -28v-289h152q32 0 45.5 -14t13.5 -50t-13.5 -50t-45.5 -14h-399q-32 0 -45.5 14t-13.5 50z" />
<glyph unicode="L" d="M75 64q0 36 13.5 50t45.5 14h153v860h-153q-32 0 -45.5 14t-13.5 50t13.5 50t45.5 14h521q32 0 45.5 -14t13.5 -50t-13.5 -50t-45.5 -14h-227v-860h465v309q0 33 15.5 47t55.5 14q39 0 54.5 -14t15.5 -47v-373q0 -36 -13.5 -50t-45.5 -14h-841q-32 0 -45.5 14t-13.5 50z " />
<glyph unicode="M" d="M28 64q0 36 13.5 50t45.5 14h51l24 860h-46q-32 0 -46 14t-14 50t14 50t46 14h198q44 0 54 -31l209 -573l208 573q10 31 55 31h199q32 0 45.5 -14t13.5 -50t-13.5 -50t-45.5 -14h-47l24 -860h51q32 0 45.5 -14t13.5 -50t-13.5 -50t-45.5 -14h-295q-32 0 -45.5 14 t-13.5 50t13.5 50t45.5 14h104l-21 770l-191 -536q-13 -33 -33.5 -47t-53.5 -14t-53.5 14t-32.5 47l-193 536l-20 -770h105q32 0 45.5 -14t13.5 -50t-13.5 -50t-45.5 -14h-296q-32 0 -45.5 14t-13.5 50z" />
<glyph unicode="N" d="M66 1052q0 36 13.5 50t45.5 14h211q38 0 53 -27l446 -797v696h-110q-32 0 -45.5 14t-13.5 50t13.5 50t45.5 14h304q32 0 46 -14t14 -50t-14 -50t-46 -14h-53v-953q0 -25 -17 -40.5t-54 -15.5q-27 0 -46 14t-33 38l-488 871v-774h129q32 0 45.5 -14t13.5 -50t-13.5 -50 t-45.5 -14h-333q-32 0 -45.5 14t-13.5 50t13.5 50t45.5 14h63v860h-72q-32 0 -45.5 14t-13.5 50z" />
<glyph unicode="O" d="M83 557q0 131 35.5 237.5t100.5 183t156 117.5t202 41t202 -41t156 -117.5t101 -183t36 -237.5q0 -130 -36 -237t-101 -182.5t-156 -117t-202 -41.5t-202 41.5t-156 117t-100.5 182.5t-35.5 237zM231 557q0 -101 25 -182.5t70 -138t109 -87.5t142 -31t142 31t109 87.5 t70 138t25 182.5q0 102 -25 183.5t-70 138.5t-109 87.5t-142 30.5t-142 -30.5t-109 -87.5t-70 -138.5t-25 -183.5z" />
<glyph unicode="P" d="M75 64q0 36 13.5 50t45.5 14h153v860h-153q-32 0 -45.5 14t-13.5 50t13.5 50t45.5 14h515q95 0 168.5 -26t124.5 -73t77 -112.5t26 -144.5t-26 -144.5t-77 -111.5t-124.5 -71.5t-168.5 -25.5h-221v-279h225q32 0 46 -14t14 -50t-14 -50t-46 -14h-519q-32 0 -45.5 14 t-13.5 50zM428 535h201q132 0 200 59.5t68 165.5q0 107 -68 167.5t-200 60.5h-201v-453z" />
<glyph unicode="Q" d="M83 581q0 127 35.5 229.5t100.5 175t156 111.5t202 39t202 -39t156 -111.5t101 -175t36 -229.5t-36 -229.5t-101 -175t-156 -111.5t-202 -39q-14 0 -27 0.5t-22 1.5l-121 -127q43 17 80.5 23.5t69.5 6.5q33 0 62.5 -4.5t57 -10t53.5 -10.5t53 -5q35 0 71.5 11.5 t78.5 42.5q16 12 36.5 1t36.5 -37q15 -24 16 -47.5t-21 -39.5q-58 -44 -106 -59.5t-93 -15.5q-33 0 -64.5 6t-65 12.5t-68.5 12t-76 5.5q-42 0 -95.5 -10t-115.5 -36q-7 -3 -15 -3q-12 0 -24 8q-20 11 -39 36q-19 24 -23.5 44.5t7.5 34.5l169 191q-71 28 -128.5 75.5 t-97.5 114.5t-61.5 150.5t-21.5 182.5zM231 581q0 -98 25 -175t70 -130.5t109 -82t142 -28.5t142 28.5t109 82t70 130.5t25 175t-25 175.5t-70 131t-109 81.5t-142 28t-142 -28t-109 -81.5t-70 -131t-25 -175.5z" />
<glyph unicode="R" d="M75 64q0 36 13.5 50t45.5 14h115v860h-115q-32 0 -45.5 14t-13.5 50t13.5 50t45.5 14h476q90 0 159.5 -23t117 -64.5t72 -100t24.5 -129.5q0 -55 -18 -101t-52 -81.5t-82.5 -61.5t-107.5 -39q24 -11 45 -28t39 -38q24 -26 45 -57t39.5 -62.5t35.5 -62.5t33 -57 q22 -38 45.5 -60.5t52.5 -22.5h18q32 0 46 -14t14 -50t-14 -50t-46 -14h-66q-40 0 -80 28.5t-85 102.5q-19 31 -36.5 63.5t-35.5 65t-37 62.5t-39 55q-24 31 -50 51.5t-56 33t-64.5 17.5t-78.5 5h-58v-356h122q32 0 46 -14t14 -50t-14 -50t-46 -14h-378q-32 0 -45.5 14 t-13.5 50zM390 612h191q58 0 105 10.5t80 33t51 58t18 85.5q0 91 -63.5 140t-181.5 49h-200v-376z" />
<glyph unicode="S" d="M149 40v282q0 33 15.5 47.5t54.5 14.5q40 0 55 -40q38 -109 121.5 -167.5t207.5 -58.5q63 0 109.5 14.5t77.5 39t47 59.5t16 76q0 62 -31.5 99t-84.5 59q-43 18 -96 30t-108.5 23t-111 24.5t-103.5 34.5q-35 15 -64 36.5t-50.5 51t-33 68t-11.5 88.5q0 73 27 131.5 t75.5 99.5t116 62.5t147.5 21.5q85 0 161 -32t130 -86v57q0 33 15.5 47t54.5 14q40 0 55.5 -14t15.5 -47v-216q0 -33 -15.5 -47t-55.5 -14q-35 0 -48 24q-47 88 -128.5 131.5t-184.5 43.5q-106 0 -162 -48.5t-56 -127.5q0 -41 21 -67t56 -43q37 -19 87.5 -30.5t106 -22 t113 -23.5t110.5 -33q42 -17 78.5 -41.5t63.5 -60t42.5 -83t15.5 -110.5q0 -72 -26 -132.5t-76 -104t-124.5 -67.5t-171.5 -24q-94 0 -174 34t-139 101v-74q0 -32 -16 -46.5t-55 -14.5t-54.5 14.5t-15.5 46.5z" />
<glyph unicode="T" d="M115 697v355q0 36 13.5 50t45.5 14h806q32 0 46 -14t14 -50v-355q0 -32 -15.5 -46.5t-55.5 -14.5q-39 0 -54.5 14.5t-15.5 46.5v291h-251v-860h222q31 0 45 -14t14 -50t-14 -50t-45 -14h-585q-32 0 -45.5 14t-13.5 50t13.5 50t45.5 14h222v860h-251v-291 q0 -32 -15.5 -46.5t-55.5 -14.5q-39 0 -54.5 14.5t-15.5 46.5z" />
<glyph unicode="U" d="M66 1052q0 36 13.5 50t45.5 14h305q32 0 45.5 -14t13.5 -50t-13.5 -50t-45.5 -14h-106v-600q0 -73 15.5 -124.5t47 -83.5t79 -47t111.5 -15t111.5 15t79 47t47 83.5t15.5 124.5v600h-105q-32 0 -45.5 14t-13.5 50t13.5 50t45.5 14h304q32 0 46 -14t14 -50t-14 -50 t-46 -14h-58v-619q0 -100 -27.5 -173.5t-78 -121.5t-124 -71.5t-164.5 -23.5q-92 0 -165 23.5t-123.5 71.5t-78 121.5t-27.5 173.5v619h-58q-32 0 -45.5 14t-13.5 50z" />
<glyph unicode="V" d="M9 1052q0 36 14 50t46 14h351q32 0 45.5 -14t13.5 -50t-13.5 -50t-45.5 -14h-132l287 -831l291 831h-94q-32 0 -45.5 14t-13.5 50t13.5 50t45.5 14h314q32 0 45.5 -14t13.5 -50t-13.5 -50t-45.5 -14h-73l-337 -948q-12 -32 -36.5 -46.5t-65.5 -14.5q-40 0 -64 14.5 t-35 46.5l-335 948h-71q-32 0 -46 14t-14 50z" />
<glyph unicode="W" d="M-9 1052q0 36 13.5 50t45.5 14h323q32 0 45.5 -14t13.5 -50t-13.5 -50t-45.5 -14h-137l94 -753l177 553q5 19 21 31.5t46 12.5q31 0 47 -9.5t22 -28.5l176 -559l97 753h-116q-32 0 -45.5 14t-13.5 50t13.5 50t45.5 14h304q32 0 46 -14t14 -50t-14 -50t-46 -14h-50 l-130 -948q-5 -34 -25 -47.5t-56 -13.5t-60.5 14.5t-35.5 46.5l-174 547l-175 -547q-11 -32 -36.5 -46.5t-61.5 -14.5t-55 14t-24 47l-125 948h-46q-32 0 -45.5 14t-13.5 50z" />
<glyph unicode="X" d="M47 64q0 36 13.5 50t45.5 14h58l329 454l-294 406h-65q-32 0 -45.5 14t-13.5 50t13.5 50t45.5 14h324q32 0 45.5 -14t13.5 -50t-13.5 -50t-45.5 -14h-84l208 -297l209 297h-57q-32 0 -45.5 14t-13.5 50t13.5 50t45.5 14h286q32 0 45.5 -14t13.5 -50t-13.5 -50t-45.5 -14 h-61l-291 -408l326 -452h54q32 0 45.5 -14t13.5 -50t-13.5 -50t-45.5 -14h-333q-32 0 -45.5 14t-13.5 50t13.5 50t45.5 14h103l-240 343l-245 -343h78q32 0 45.5 -14t13.5 -50t-13.5 -50t-45.5 -14h-305q-32 0 -45.5 14t-13.5 50z" />
<glyph unicode="Y" d="M56 1052q0 36 14 50t46 14h314q32 0 45.5 -14t13.5 -50t-13.5 -50t-45.5 -14h-88l235 -385l237 385h-61q-32 0 -45.5 14t-13.5 50t13.5 50t45.5 14h286q32 0 45.5 -14t13.5 -50t-13.5 -50t-45.5 -14h-64l-327 -526v-334h212q32 0 45.5 -14t13.5 -50t-13.5 -50t-45.5 -14 h-566q-32 0 -45.5 14t-13.5 50t13.5 50t45.5 14h213v334l-326 526h-65q-32 0 -46 14t-14 50z" />
<glyph unicode="Z" d="M157 64q0 13 3.5 22.5t9.5 17.5l620 884h-472v-234q0 -33 -15.5 -47t-55.5 -14q-39 0 -54.5 14t-15.5 47v298q0 36 13.5 50t45.5 14h692q32 0 45.5 -14t13.5 -50q0 -24 -9 -37l-624 -887h500v253q0 33 15.5 47t55.5 14q39 0 54.5 -14t15.5 -47v-317q0 -36 -13.5 -50 t-45.5 -14h-720q-32 0 -45.5 14t-13.5 50z" />
<glyph unicode="[" d="M310 -306v1475q0 36 13.5 50t45.5 14h390q32 0 45.5 -14t13.5 -50q0 -35 -13.5 -49.5t-45.5 -14.5h-308v-1347h308q32 0 45.5 -14t13.5 -50q0 -35 -13.5 -49t-45.5 -14h-390q-32 0 -45.5 14t-13.5 49z" />
<glyph unicode="\" d="M187.5 1219.5q4.5 10.5 15.5 18.5t27 12.5t33 4.5q20 0 37.5 -6.5t23.5 -21.5l641 -1446q6 -14 1.5 -25t-16 -19t-27 -12t-32.5 -4q-20 0 -37 6.5t-24 21.5l-641 1446q-6 14 -1.5 24.5z" />
<glyph unicode="]" d="M337 -306q0 36 13.5 50t45.5 14h307v1347h-307q-32 0 -45.5 14.5t-13.5 49.5q0 36 13.5 50t45.5 14h389q32 0 45.5 -14t13.5 -50v-1475q0 -35 -13.5 -49t-45.5 -14h-389q-32 0 -45.5 14t-13.5 49z" />
<glyph unicode="^" d="M218 523.5q-1 10.5 6 22.5l289 556q10 17 23.5 25.5t40.5 8.5t41 -8.5t23 -25.5l290 -556q6 -12 5 -22.5t-7.5 -19t-17 -15.5t-22.5 -11q-25 -9 -52.5 -5t-36.5 22l-223 452l-223 -452q-9 -18 -36.5 -22t-52.5 5q-12 4 -22.5 11t-17 15.5t-7.5 19z" />
<glyph unicode="_" d="M-26 -306q0 43 5.5 53.5t15.5 10.5h1164q10 0 16 -10.5t6 -53.5q0 -42 -6 -52.5t-16 -10.5h-1164q-10 0 -15.5 10.5t-5.5 52.5z" />
<glyph unicode="`" d="M249 1158.5q-1 11.5 4 29t20 42.5q15 27 27 40.5t23 18t21.5 2t23.5 -9.5l391 -216q16 -9 20 -25.5t-3 -32.5q-6 -16 -19.5 -26t-31.5 -4l-452 153q-10 3 -16.5 10t-7.5 18.5z" />
<glyph unicode="a" d="M127 254q0 79 30.5 134.5t82.5 89.5t121.5 50t146.5 16q76 0 147.5 -12t137.5 -36v80q0 91 -43.5 134t-149.5 43q-76 0 -153 -20t-136 -63q-21 -16 -44 -11t-43 34q-21 29 -16.5 52t25.5 39q37 27 81 47.5t91.5 33t97 18.5t97.5 6q168 0 251 -79t83 -234v-374 q0 -74 62 -74h33q32 0 46 -14t14 -50t-14 -50t-46 -14h-60q-29 0 -55.5 7t-47.5 22t-36.5 37.5t-22.5 53.5q-74 -65 -163 -103t-194 -38q-70 0 -129.5 18.5t-102.5 53.5t-67 86t-24 117zM275 257q0 -69 47.5 -107t133.5 -38q100 0 184 42t153 113v102q-65 22 -138 32.5 t-146 10.5q-51 0 -94 -8.5t-74 -27t-48.5 -48t-17.5 -71.5z" />
<glyph unicode="b" d="M35 1169q0 36 13.5 50t45.5 14h178q32 0 45.5 -14t13.5 -50v-435q56 73 130 114t168 41q87 0 161.5 -31t128.5 -89.5t85 -143.5t31 -191t-31 -190.5t-85 -143.5t-128.5 -90t-161.5 -31q-94 0 -171.5 42t-136.5 118v-75q0 -36 -13.5 -50t-45.5 -14h-149q-32 0 -45.5 14 t-13.5 50t13.5 50t45.5 14h77v977h-96q-32 0 -45.5 14.5t-13.5 49.5zM331 434q0 -75 21.5 -133t60 -99t91.5 -62.5t115 -21.5q64 0 114 23.5t84 65.5t51.5 100t17.5 127t-17.5 127t-51.5 100t-84 65.5t-114 23.5q-62 0 -115 -21t-91.5 -62t-60 -99.5t-21.5 -133.5z" />
<glyph unicode="c" d="M119 434q0 98 33 181t93 144.5t143 95.5t184 34q86 0 155.5 -30.5t117.5 -86.5v56q0 33 15.5 47t55.5 14q39 0 54.5 -14t15.5 -47v-272q0 -33 -15.5 -47.5t-54.5 -14.5q-40 0 -55.5 14.5t-15.5 47.5q0 42 -17 77.5t-50.5 61.5t-82 40.5t-113.5 14.5q-69 0 -126.5 -23.5 t-99 -65.5t-65 -100t-23.5 -127q0 -68 21.5 -126t61.5 -100.5t96.5 -66t124.5 -23.5q87 0 168 26.5t148 78.5q25 19 46.5 14t41.5 -38q14 -22 14 -45v-8q-2 -28 -30 -46q-76 -57 -177.5 -89t-210.5 -32q-103 0 -186.5 34.5t-143 95.5t-91.5 144.5t-32 180.5z" />
<glyph unicode="d" d="M119 411q0 101 31 181t85.5 135.5t128.5 85t161 29.5q94 0 168 -38t130 -108v409h-189q-32 0 -46 14.5t-14 49.5q0 36 14 50t46 14h271q32 0 45.5 -14t13.5 -50v-1041h78q31 0 45 -14t14 -50t-14 -50t-45 -14h-150q-32 0 -45.5 14t-13.5 50v75q-58 -76 -136 -118 t-172 -42q-87 0 -161 30t-128.5 85t-85.5 135t-31 182zM268 411q0 -64 18 -117.5t51.5 -92.5t83.5 -61t114 -22q62 0 115 20t91.5 57t60 91.5t21.5 124.5q0 69 -21.5 123.5t-60 92t-91.5 57t-115 19.5q-64 0 -114 -21.5t-83.5 -60.5t-51.5 -92.5t-18 -117.5z" />
<glyph unicode="e" d="M137 434q0 103 33.5 187t92.5 143.5t141.5 92t181.5 32.5q104 0 184 -32.5t135 -89.5t85 -136t36 -173q0 -32 -14 -45t-46 -13h-680q7 -142 78 -213t203 -71q95 0 184 21.5t154 58.5q30 17 50.5 3t32.5 -44q13 -30 5.5 -54t-38.5 -40q-37 -18 -81.5 -33t-95 -25.5 t-104 -17t-107.5 -6.5q-104 0 -183.5 31.5t-134 90.5t-83.5 143t-29 190zM295 531h575q-20 106 -89.5 164t-194.5 58q-118 0 -192.5 -59t-98.5 -163z" />
<glyph unicode="f" d="M176 64q0 36 13.5 50t45.5 14h186v538h-186q-32 0 -45.5 14t-13.5 49q0 36 13.5 50t45.5 14h186v116q0 77 22 138t64.5 103.5t104 65t140.5 22.5q67 0 130.5 -13t119.5 -35q25 -10 38 -30q8 -13 8 -30q0 -12 -4 -26q-9 -39 -27 -49t-42 0q-56 21 -111.5 33.5t-111.5 12.5 q-100 0 -145 -53.5t-45 -150.5v-104h325q32 0 46 -14t14 -50q0 -35 -14 -49t-46 -14h-325v-538h325q32 0 46 -14t14 -50t-14 -50t-46 -14h-652q-32 0 -45.5 14t-13.5 50z" />
<glyph unicode="g" d="M119 458q0 101 31 181t85.5 135.5t128.5 85t161 29.5q94 0 172 -41.5t136 -118.5v76q0 35 13.5 49.5t45.5 14.5h150q31 0 45 -14.5t14 -49.5q0 -36 -14 -50t-45 -14h-78v-774q0 -85 -25.5 -151t-75.5 -111.5t-122.5 -70t-164.5 -24.5q-82 0 -164.5 14t-156.5 42 q-26 11 -34 31.5t5 56.5q12 35 31 46.5t43 1.5q65 -28 136.5 -40.5t139.5 -12.5q63 0 109.5 16.5t77 47t45.5 73t15 93.5v194q-56 -71 -130 -109t-168 -38q-87 0 -161 30t-128.5 85t-85.5 135t-31 182zM268 458q0 -64 18 -117.5t51.5 -92.5t83.5 -61t114 -22q62 0 115 20 t91.5 57t60 91.5t21.5 124.5q0 69 -21.5 123.5t-60 92t-91.5 57t-115 19.5q-64 0 -114 -21.5t-83.5 -60.5t-51.5 -92.5t-18 -117.5z" />
<glyph unicode="h" d="M72 1169q0 36 14 50t46 14h168q32 0 45.5 -14t13.5 -50v-468q61 91 141 139.5t174 48.5q65 0 116.5 -21.5t88 -61t55.5 -96.5t19 -127v-455h77q32 0 45.5 -14t13.5 -50t-13.5 -50t-45.5 -14h-304q-32 0 -46 14t-14 50t14 50t46 14h86v441q0 40 -9.5 73.5t-28 57.5 t-47.5 37t-67 13q-60 0 -114.5 -26.5t-96 -73.5t-66 -111.5t-24.5 -141.5v-269h87q32 0 45.5 -14t13.5 -50t-13.5 -50t-45.5 -14h-305q-32 0 -45.5 14t-13.5 50t13.5 50t45.5 14h77v977h-86q-32 0 -46 14.5t-14 49.5z" />
<glyph unicode="i" d="M176 64q0 36 13.5 50t45.5 14h294v613h-238q-32 0 -45.5 14t-13.5 50q0 35 13.5 49.5t45.5 14.5h320q32 0 45.5 -14.5t13.5 -49.5v-677h302q32 0 45.5 -14t13.5 -50t-13.5 -50t-45.5 -14h-737q-32 0 -45.5 14t-13.5 50zM492 1098v122q0 33 17.5 47t71.5 14q53 0 71 -14 t18 -47v-122q0 -33 -18 -47t-71 -14q-54 0 -71.5 14t-17.5 47z" />
<glyph unicode="j" d="M180 -248q-2 5 -2 12q0 18 13 42q18 34 40 41t43 -7q63 -40 132.5 -66.5t134.5 -26.5q47 0 79 13t51.5 38.5t28 64.5t8.5 91v787h-398q-32 0 -45.5 14t-13.5 50q0 35 13.5 49.5t45.5 14.5h480q32 0 45.5 -14.5t13.5 -49.5v-863q0 -81 -17.5 -143t-54.5 -104t-95.5 -63.5 t-140.5 -21.5q-40 0 -83.5 8t-87 22t-85 33.5t-75.5 41.5q-24 15 -30 37zM670 1098v122q0 33 18 47t72 14q53 0 71 -14t18 -47v-122q0 -33 -18 -47t-71 -14q-54 0 -72 14t-18 47z" />
<glyph unicode="k" d="M63 1169q0 36 13.5 50t45.5 14h205q32 0 45.5 -14t13.5 -50v-744l358 316h-66q-32 0 -45.5 14t-13.5 50q0 35 13.5 49.5t45.5 14.5h314q32 0 45.5 -14.5t13.5 -49.5q0 -36 -13.5 -50t-45.5 -14h-56l-276 -244l316 -369h54q32 0 45.5 -14t13.5 -50t-13.5 -50t-45.5 -14 h-314q-32 0 -45.5 14t-13.5 50t13.5 50t45.5 14h77l-236 280l-171 -150v-130h60q32 0 45.5 -14t13.5 -50t-13.5 -50t-45.5 -14h-305q-32 0 -45.5 14t-13.5 50t13.5 50t45.5 14h104v977h-123q-32 0 -45.5 14.5t-13.5 49.5z" />
<glyph unicode="l" d="M166 64q0 36 14 50t46 14h294v977h-257q-32 0 -45.5 14.5t-13.5 49.5q0 36 13.5 50t45.5 14h339q32 0 45.5 -14t13.5 -50v-1041h302q32 0 45.5 -14t13.5 -50t-13.5 -50t-45.5 -14h-737q-32 0 -46 14t-14 50z" />
<glyph unicode="m" d="M-4 64q0 36 14 50t45 14h78v613h-78q-31 0 -45 14t-14 50q0 35 14 49.5t45 14.5h141q31 0 45 -14.5t14 -49.5v-93q41 91 97.5 134t121.5 43q31 0 58.5 -10t51 -31.5t41 -53.5t25.5 -75q43 87 97.5 128.5t119.5 41.5q40 0 75.5 -15t61.5 -46t41.5 -78.5t15.5 -112.5v-509 h59q32 0 45.5 -14t13.5 -50t-13.5 -50t-45.5 -14h-141q-31 0 -45 14t-14 50v556q0 63 -20.5 96.5t-68.5 33.5q-34 0 -63.5 -23.5t-51.5 -65.5t-35.5 -101t-13.5 -130v-302h54q32 0 45.5 -14t13.5 -50t-13.5 -50t-45.5 -14h-135q-32 0 -46 14t-14 50v556q0 63 -20.5 96.5 t-68.5 33.5q-34 0 -63.5 -23.5t-51.5 -65.5t-35 -101t-13 -130v-302h48q32 0 46 -14t14 -50t-14 -50t-46 -14h-267q-31 0 -45 14t-14 50z" />
<glyph unicode="n" d="M72 805q0 35 14 49.5t46 14.5h168q32 0 45.5 -14.5t13.5 -49.5v-113q62 97 145 147t179 50q65 0 117 -21.5t88 -61t55.5 -96.5t19.5 -127v-455h77q32 0 45.5 -14t13.5 -50t-13.5 -50t-45.5 -14h-305q-32 0 -45.5 14t-13.5 50t13.5 50t45.5 14h87v441q0 40 -9.5 73.5 t-28.5 57.5t-47.5 37t-67.5 13q-60 0 -114.5 -26.5t-96 -73.5t-66 -111.5t-24.5 -141.5v-269h87q32 0 45.5 -14t13.5 -50t-13.5 -50t-45.5 -14h-305q-32 0 -45.5 14t-13.5 50t13.5 50t45.5 14h77v613h-95q-32 0 -46 14t-14 50z" />
<glyph unicode="o" d="M113 434q0 100 35 183t97 144t147.5 94.5t184.5 33.5q100 0 185 -33.5t147 -94.5t97.5 -144t35.5 -183q0 -99 -35.5 -182.5t-97.5 -144t-147 -94.5t-185 -34q-99 0 -184.5 34t-147.5 94.5t-97 144t-35 182.5zM261 434q0 -68 23 -126t64.5 -100.5t100 -66t128.5 -23.5 q71 0 129 23.5t99.5 66t64.5 100.5t23 126q0 69 -23 127t-64.5 100t-99.5 65.5t-129 23.5q-70 0 -128.5 -23.5t-100 -65.5t-64.5 -100t-23 -127z" />
<glyph unicode="p" d="M25 -306q0 36 14 50t46 14h105v983h-77q-32 0 -45.5 14t-13.5 50q0 35 13.5 49.5t45.5 14.5h149q32 0 45.5 -14.5t13.5 -49.5v-76q59 77 136.5 118.5t171.5 41.5q87 0 161.5 -29.5t128.5 -85t85 -135.5t31 -181q0 -102 -31 -182t-85 -135t-128.5 -85t-161.5 -30 q-94 0 -168 38t-130 109v-415h209q32 0 45.5 -14t13.5 -50q0 -35 -13.5 -49t-45.5 -14h-455q-32 0 -46 14t-14 49zM331 458q0 -70 21.5 -124.5t60 -91.5t91.5 -57t115 -20q64 0 114 22t84 61t51.5 92.5t17.5 117.5t-17.5 117.5t-51.5 92.5t-84 60.5t-114 21.5 q-62 0 -115 -19.5t-91.5 -57t-60 -92t-21.5 -123.5z" />
<glyph unicode="q" d="M119 458q0 101 31 181t85.5 135.5t128.5 85t161 29.5q94 0 172 -41.5t136 -118.5v76q0 35 13.5 49.5t45.5 14.5h150q31 0 45 -14.5t14 -49.5q0 -36 -14 -50t-45 -14h-78v-983h106q32 0 45.5 -14t13.5 -50q0 -35 -13.5 -49t-45.5 -14h-455q-32 0 -45.5 14t-13.5 49 q0 36 13.5 50t45.5 14h208v415q-56 -71 -130 -109t-168 -38q-87 0 -161 30t-128.5 85t-85.5 135t-31 182zM268 458q0 -64 18 -117.5t51.5 -92.5t83.5 -61t114 -22q62 0 115 20t91.5 57t60 91.5t21.5 124.5q0 69 -21.5 123.5t-60 92t-91.5 57t-115 19.5q-64 0 -114 -21.5 t-83.5 -60.5t-51.5 -92.5t-18 -117.5z" />
<glyph unicode="r" d="M138 64q0 36 13.5 50t45.5 14h148v613h-119q-32 0 -46 14t-14 50q0 35 14 49.5t46 14.5h191q32 0 46 -14.5t14 -49.5v-190q34 63 79 113.5t95.5 86.5t105 55t108.5 19q73 0 137 -37q26 -16 34 -40q3 -9 3 -18q0 -18 -8 -40q-13 -34 -33 -48t-48 2q-47 25 -98 25 q-43 0 -86.5 -15.5t-84.5 -43t-76 -66.5t-62 -86t-42 -100.5t-15 -111.5v-182h317q32 0 45.5 -14t13.5 -50t-13.5 -50t-45.5 -14h-606q-32 0 -45.5 14t-13.5 50z" />
<glyph unicode="s" d="M168 40v226q0 33 15.5 47t55.5 14q20 0 31.5 -9.5t19.5 -28.5q34 -92 113 -132.5t210 -40.5q113 0 169 40t56 104q0 34 -21.5 54.5t-57.5 32.5q-42 14 -96.5 20.5t-114.5 13t-120 17t-110 30.5q-32 12 -58.5 30t-45.5 42.5t-30 56t-11 73.5q0 63 25.5 111.5t70 81 t105 49.5t132.5 17q94 0 168.5 -27.5t128.5 -75.5v42q0 33 15.5 47t54.5 14q40 0 55.5 -14t15.5 -47v-178q0 -33 -15.5 -47.5t-55.5 -14.5q-32 0 -45 25q-21 40 -52 67.5t-70.5 43.5t-87.5 22.5t-103 6.5q-91 0 -142.5 -32t-51.5 -91q0 -31 20.5 -50t56.5 -30 q39 -13 91.5 -19t111 -12.5t117.5 -15.5t110 -27q35 -14 64 -32t50.5 -44t33 -60t11.5 -80q0 -63 -24 -114.5t-70.5 -88.5t-114.5 -57.5t-156 -20.5q-102 0 -178.5 28.5t-134.5 85.5v-53q0 -32 -15.5 -46.5t-54.5 -14.5q-40 0 -55.5 14.5t-15.5 46.5z" />
<glyph unicode="t" d="M110 729q0 36 13.5 50t45.5 14h191v282q0 33 15.5 47t55.5 14q39 0 54.5 -14t15.5 -47v-282h386q32 0 46 -14t14 -50q0 -35 -14 -49t-46 -14h-386v-343q0 -51 8.5 -90t27.5 -65t51 -38.5t79 -12.5q66 0 135.5 26t131.5 67q22 14 44 7t40 -41q13 -25 13 -43q1 -6 -1 -12 q-6 -21 -31 -36q-35 -23 -76 -42t-84.5 -33.5t-87 -22.5t-84.5 -8q-81 0 -139.5 22t-95.5 63.5t-54.5 103.5t-17.5 143v355h-191q-32 0 -45.5 14t-13.5 49z" />
<glyph unicode="u" d="M68 805q0 35 13.5 49.5t45.5 14.5h159q32 0 45.5 -14.5t13.5 -49.5v-505q0 -41 9.5 -74t28 -57t47.5 -37.5t67 -13.5q60 0 114.5 26.5t96 73.5t66 112t24.5 142v269h-133q-32 0 -46 14t-14 50q0 35 14 49.5t46 14.5h215q32 0 45.5 -14.5t13.5 -49.5v-677h77 q32 0 45.5 -14t13.5 -50t-13.5 -50t-45.5 -14h-149q-32 0 -46 13.5t-14 49.5v114q-62 -97 -144.5 -147.5t-179.5 -50.5q-65 0 -116.5 22t-87.5 61.5t-55.5 96t-19.5 127.5v455h-77q-32 0 -45.5 14t-13.5 50z" />
<glyph unicode="v" d="M47 805q0 35 13.5 49.5t45.5 14.5h333q32 0 45.5 -14.5t13.5 -49.5q0 -36 -13.5 -50t-45.5 -14h-120l256 -613l260 613h-82q-32 0 -45.5 14t-13.5 50q0 35 13.5 49.5t45.5 14.5h295q32 0 45.5 -14.5t13.5 -49.5q0 -36 -13.5 -50t-45.5 -14h-59l-304 -701 q-13 -32 -38.5 -46.5t-72.5 -14.5t-71.5 15t-37.5 46l-301 701h-58q-32 0 -45.5 14t-13.5 50z" />
<glyph unicode="w" d="M-9 805q0 35 13.5 49.5t45.5 14.5h276q32 0 45.5 -14.5t13.5 -49.5q0 -36 -13.5 -50t-45.5 -14h-115l135 -547l157 436q6 19 23 31.5t48 12.5q32 0 49 -9.5t24 -28.5l156 -442l139 547h-95q-32 0 -45.5 14t-13.5 50q0 35 13.5 49.5t45.5 14.5h257q32 0 46 -14.5t14 -49.5 q0 -36 -14 -50t-46 -14h-22l-185 -701q-10 -33 -28 -47t-54 -14q-40 0 -63.5 14.5t-34.5 46.5l-144 408l-145 -408q-12 -32 -36 -46.5t-64 -14.5q-36 0 -53.5 14.5t-26.5 46.5l-181 701h-17q-32 0 -45.5 14t-13.5 50z" />
<glyph unicode="x" d="M66 64q0 36 13.5 50t45.5 14h47l306 320l-277 293h-67q-32 0 -45.5 14t-13.5 50q0 35 13.5 49.5t45.5 14.5h324q32 0 45.5 -14.5t13.5 -49.5q0 -36 -13.5 -50t-45.5 -14h-72l200 -216l200 216h-52q-32 0 -45.5 14t-13.5 50q0 35 13.5 49.5t45.5 14.5h286q32 0 45.5 -14.5 t13.5 -49.5q0 -36 -13.5 -50t-45.5 -14h-61l-279 -295l301 -318h48q32 0 46 -14t14 -50t-14 -50t-46 -14h-323q-32 0 -45.5 14t-13.5 50t13.5 50t45.5 14h90l-225 242l-225 -242h74q32 0 45.5 -14t13.5 -50t-13.5 -50t-45.5 -14h-295q-32 0 -45.5 14t-13.5 50z" />
<glyph unicode="y" d="M47 805q0 35 13.5 49.5t45.5 14.5h333q32 0 45.5 -14.5t13.5 -49.5q0 -36 -13.5 -50t-45.5 -14h-120l265 -529l253 529h-84q-32 0 -45.5 14t-13.5 50q0 35 13.5 49.5t45.5 14.5h295q32 0 45.5 -14.5t13.5 -49.5q0 -36 -13.5 -50t-45.5 -14h-58l-385 -788 q-45 -92 -88 -156t-93 -104.5t-109.5 -59.5t-136.5 -22h-4q-25 0 -42 12q-18 13 -22 51q-4 41 9.5 59t39.5 20q65 4 110.5 17.5t83 47t73.5 93.5t83 155l-344 675h-59q-32 0 -45.5 14t-13.5 50z" />
<glyph unicode="z" d="M167 64q0 28 13 42l575 635h-428v-140q0 -33 -15.5 -47t-54.5 -14q-40 0 -55.5 14t-15.5 47v204q0 35 13.5 49.5t45.5 14.5h673q32 0 46 -14.5t14 -49.5q0 -28 -14 -44l-574 -633h456v162q0 32 15.5 46.5t54.5 14.5q40 0 55.5 -14.5t15.5 -46.5v-226q0 -36 -13.5 -50 t-45.5 -14h-701q-32 0 -46 14t-14 50z" />
<glyph unicode="{" d="M195 452q0 36 13.5 50t45.5 14q104 0 153 52.5t49 155.5v159q0 178 88 264t252 86q32 0 45.5 -14t13.5 -50q0 -35 -13.5 -49.5t-45.5 -14.5q-52 0 -90.5 -12.5t-62.5 -40.5t-35 -73t-11 -108v-157q0 -86 -35 -153t-103 -108q68 -41 103 -108.5t35 -153.5v-199 q0 -62 11 -107t35 -73t62.5 -41t90.5 -13q32 0 45.5 -14t13.5 -50q0 -35 -13.5 -49t-45.5 -14q-164 0 -252 85.5t-88 264.5v200q0 103 -49 155t-153 52q-32 0 -45.5 14t-13.5 50z" />
<glyph unicode="|" d="M507 -329v1522q0 33 15.5 47t54.5 14q40 0 55.5 -14t15.5 -47v-1522q0 -33 -15.5 -47t-55.5 -14q-39 0 -54.5 14t-15.5 47z" />
<glyph unicode="}" d="M299 -306q0 36 13.5 50t45.5 14q105 0 152 54.5t47 179.5v199q0 86 35 153.5t104 108.5q-69 41 -104 108t-35 153v157q0 126 -47 180t-152 54q-32 0 -45.5 14.5t-13.5 49.5q0 36 13.5 50t45.5 14q165 0 252.5 -86t87.5 -264v-159q0 -103 49 -155.5t154 -52.5q31 0 45 -14 t14 -50t-14 -50t-45 -14q-105 0 -154 -52t-49 -155v-200q0 -179 -87.5 -264.5t-252.5 -85.5q-32 0 -45.5 14t-13.5 49z" />
<glyph unicode="~" d="M144.5 531.5q-0.5 20.5 15.5 33.5q60 53 116.5 73t110.5 20q51 0 99.5 -12.5t96 -27.5t94.5 -28t94 -13q39 0 78.5 12.5t81.5 42.5q16 12 34 2.5t31 -31.5q14 -22 14 -42.5t-15 -33.5q-62 -52 -118 -72.5t-110 -20.5q-51 0 -99.5 13t-95.5 28t-94 27.5t-94 12.5 q-40 0 -79.5 -12t-80.5 -42q-16 -13 -34.5 -3.5t-31.5 32.5q-13 21 -13.5 41.5z" />
<glyph unicode="&#xa0;" />
<glyph unicode="&#xa1;" d="M432 992q0 30 11.5 56t31 46t46 31t56.5 11t56.5 -11t46 -31t31 -46t11.5 -56t-11.5 -56.5t-31 -46t-46 -31t-56.5 -11.5t-56.5 11.5t-46 31t-31 46t-11.5 56.5zM478 26l46 608q2 46 53 46q25 0 39 -12t16 -34l45 -608q4 -47 -39 -47h-122q-42 0 -38 47z" />
<glyph unicode="&#xa2;" d="M119 566q0 90 28.5 167.5t79.5 137.5t123.5 98t160.5 48v155q0 33 15.5 47t50.5 14t50.5 -14t15.5 -47v-158q124 -21 202 -111v57q0 33 15.5 47t55.5 14q39 0 54.5 -14t15.5 -47v-273q0 -33 -15.5 -47t-54.5 -14q-40 0 -55.5 14t-15.5 47q0 75 -51 126.5t-151 64.5v-623 q68 8 130 33t115 66q25 19 46.5 14.5t41.5 -37.5q16 -25 13.5 -52.5t-29.5 -47.5q-64 -48 -146 -78t-171 -39v-170q0 -33 -15.5 -47.5t-50.5 -14.5t-50.5 14.5t-15.5 47.5v170q-90 10 -162.5 48t-123 98t-78.5 138t-28 168zM268 566q0 -61 17 -113.5t49 -93t77 -68 t100 -36.5v619q-54 -11 -99 -38.5t-77 -67.5t-49.5 -91.5t-17.5 -110.5z" />
<glyph unicode="&#xa3;" d="M191.5 47.5q-4.5 23.5 10.5 38.5q60 55 99 101.5t60.5 90t27.5 86.5t0 91h-132q-32 0 -46 14t-14 50t14 50t46 14h89q-14 28 -29 56.5t-27.5 59t-20.5 63t-8 69.5q0 65 23 121t65 96.5t101 64t131 23.5q88 0 164.5 -26t139.5 -71q19 -14 19 -51v-119q0 -33 -15.5 -47.5 t-54.5 -14.5q-40 0 -55.5 14.5t-15.5 47.5v84q-34 21 -80.5 32.5t-102.5 11.5q-40 0 -72 -13t-54.5 -35.5t-34 -52.5t-11.5 -65q0 -33 9.5 -62.5t23.5 -59t31 -60.5t31 -66h291q32 0 46 -14t14 -50t-14 -50t-46 -14h-261q14 -185 -133 -331q38 13 70.5 18.5t59.5 5.5 q32 0 60 -5.5t53 -11t49 -10.5t50 -5q31 0 65 11t77 41q14 11 34 3t36 -34q18 -25 14.5 -49t-19.5 -35q-58 -44 -105 -60t-89 -16q-31 0 -60.5 6t-60.5 13t-65 12.5t-73 5.5q-43 0 -94 -10t-113 -36q-19 -7 -38 1.5t-36 30.5q-19 24 -23.5 47.5z" />
<glyph unicode="&#xa5;" d="M56 1052q0 36 14 50t46 14h314q32 0 45.5 -14t13.5 -50t-13.5 -50t-45.5 -14h-88l235 -385l237 385h-61q-32 0 -45.5 14t-13.5 50t13.5 50t45.5 14h286q32 0 45.5 -14t13.5 -50t-13.5 -50t-45.5 -14h-64l-136 -217h115q32 0 45.5 -14t13.5 -50t-13.5 -50t-45.5 -14h-194 l-102 -164h277q32 0 46 -14t14 -50q0 -35 -14 -49t-46 -14h-287v-224h212q32 0 45.5 -14t13.5 -50t-13.5 -50t-45.5 -14h-566q-32 0 -45.5 14t-13.5 50t13.5 50t45.5 14h213v224h-288q-32 0 -45.5 14t-13.5 49q0 36 13.5 50t45.5 14h277l-101 164h-195q-32 0 -45.5 14 t-13.5 50t13.5 50t45.5 14h116l-135 217h-65q-32 0 -46 14t-14 50z" />
<glyph unicode="&#xa6;" d="M507 253q0 33 15.5 47t54.5 14q40 0 55.5 -14t15.5 -47v-582q0 -33 -15.5 -47t-55.5 -14q-39 0 -54.5 14t-15.5 47v582zM507 611v582q0 33 15.5 47t54.5 14q40 0 55.5 -14t15.5 -47v-582q0 -33 -15.5 -47t-55.5 -14q-39 0 -54.5 14t-15.5 47z" />
<glyph unicode="&#xa7;" d="M168 591q0 63 33.5 109.5t96.5 92.5q-16 45 -16 97q0 49 16.5 91t50 71.5t82 46.5t113.5 17h326q31 0 45 -14t14 -50v-185q0 -33 -15.5 -47t-55.5 -14q-39 0 -54.5 14t-15.5 47v121h-225q-68 0 -100 -26t-32 -76t31.5 -90t90.5 -76l276 -171q73 -45 115 -102t42 -139 q0 -32 -8.5 -58.5t-25.5 -51t-41 -47t-55 -45.5q16 -46 16 -97q0 -49 -16.5 -90.5t-49.5 -71t-82 -46.5t-114 -17h-325q-32 0 -45.5 14t-13.5 50v204q0 33 15.5 47t54.5 14q40 0 55.5 -14t15.5 -47v-140h224q68 0 100.5 25.5t32.5 75.5q0 51 -31.5 91t-90.5 76l-277 171 q-73 45 -115 101.5t-42 138.5zM317 588q0 -40 24.5 -67t69.5 -56l276 -171q54 -33 96 -75q27 22 41 44t14 49q0 40 -24.5 67t-69.5 55l-277 171q-27 17 -51.5 35.5t-45.5 39.5q-26 -21 -39.5 -43t-13.5 -49z" />
<glyph unicode="&#xa8;" d="M253 1123q0 25 9.5 46t25.5 37t37 25.5t45 9.5q25 0 46 -9.5t37 -25.5t25.5 -37t9.5 -46q0 -24 -9.5 -45t-25.5 -37t-37 -25.5t-46 -9.5q-24 0 -45 9.5t-37 25.5t-25.5 37t-9.5 45zM666 1123q0 25 9.5 46t25.5 37t37.5 25.5t45.5 9.5t45.5 -9.5t37.5 -25.5t25 -37t9 -46 q0 -24 -9 -45t-25 -37t-37.5 -25.5t-45.5 -9.5t-45.5 9.5t-37.5 25.5t-25.5 37t-9.5 45z" />
<glyph unicode="&#xa9;" d="M34 558q0 122 40 227t112 183t171.5 123t219.5 45t220 -45t172 -123t111.5 -183t39.5 -227q0 -121 -39.5 -226t-111.5 -183.5t-172 -124t-220 -45.5t-219.5 45.5t-171.5 124t-112 183.5t-40 226zM149 558q0 -100 31 -185.5t87 -147.5t135 -97.5t175 -35.5t175 35.5 t135.5 97.5t87.5 147.5t31 185.5q0 101 -31 186.5t-87.5 147.5t-135.5 97t-175 35t-175 -35t-135 -97t-87 -147.5t-31 -186.5zM296 557q0 77 22 137t61.5 101.5t93.5 63.5t118 22q43 0 86.5 -9.5t82.5 -28.5q28 -13 36 -32t-4 -49q-11 -30 -28.5 -35t-40.5 5q-34 16 -65 23 t-67 7q-35 0 -66 -12.5t-54.5 -38.5t-36.5 -64.5t-13 -89.5q0 -50 13 -88.5t36.5 -64.5t54.5 -39t66 -13q36 0 67 7.5t65 23.5q23 10 40.5 5t28.5 -36q12 -30 4 -48.5t-36 -31.5q-39 -19 -82.5 -28.5t-86.5 -9.5q-64 0 -118 22t-93.5 63.5t-61.5 101.5t-22 136z" />
<glyph unicode="&#xaa;" d="M227 646q0 60 23 103t62.5 70t91.5 39.5t111 12.5t113.5 -6t106.5 -20v48q0 56 -32 89t-107 33q-113 0 -218 -61q-18 -10 -36.5 -5.5t-33.5 30.5q-18 31 -14.5 50.5t21.5 30.5q58 37 133 56.5t148 19.5q132 0 199 -63t67 -176v-279q0 -30 11.5 -41t35.5 -11h16 q24 0 35 -13.5t11 -43.5q0 -31 -11 -43t-35 -12h-46q-45 0 -82.5 20.5t-50.5 65.5q-56 -48 -121.5 -75.5t-143.5 -27.5q-54 0 -100.5 13t-80.5 39.5t-53.5 65.5t-19.5 91zM360 649q0 -46 34 -70t91 -24q73 0 135 28t115 82v64q-50 12 -101.5 18t-108.5 6q-36 0 -66 -5.5 t-52.5 -18t-34.5 -32t-12 -48.5z" />
<glyph unicode="&#xab;" d="M237 515q-13 23 0 45l186 307q12 19 36.5 21.5t48.5 -7.5q12 -6 22 -13.5t16 -17.5t6.5 -21t-7.5 -23l-163 -268l163 -268q8 -12 7.5 -23.5t-6.5 -21.5t-16 -17.5t-22 -12.5q-24 -11 -48.5 -8.5t-36.5 22.5zM613 515q-13 23 0 45l186 307q12 19 36.5 21.5t48.5 -7.5 q12 -6 22 -13.5t16 -17.5t6.5 -21t-7.5 -23l-163 -268l163 -268q8 -12 7.5 -23.5t-6.5 -21.5t-16 -17.5t-22 -12.5q-24 -11 -48.5 -8.5t-36.5 22.5z" />
<glyph unicode="&#xac;" d="M132 730q0 36 13.5 50t45.5 14h763q32 0 45.5 -14t13.5 -50v-370q0 -33 -15.5 -47t-54.5 -14q-40 0 -55.5 14t-15.5 47v306h-681q-32 0 -45.5 14.5t-13.5 49.5z" />
<glyph unicode="&#xad;" d="M160 547q0 36 13.5 50t45.5 14h716q32 0 46 -14t14 -50t-14 -50t-46 -14h-716q-32 0 -45.5 14t-13.5 50z" />
<glyph unicode="&#xae;" d="M34 558q0 122 40 227t112 183t171.5 123t219.5 45t220 -45t172 -123t111.5 -183t39.5 -227q0 -121 -39.5 -226t-111.5 -183.5t-172 -124t-220 -45.5t-219.5 45.5t-171.5 124t-112 183.5t-40 226zM149 558q0 -100 31 -185.5t87 -147.5t135 -97.5t175 -35.5t175 35.5 t135.5 97.5t87.5 147.5t31 185.5q0 101 -31 186.5t-87.5 147.5t-135.5 97t-175 35t-175 -35t-135 -97t-87 -147.5t-31 -186.5zM362 315v488q0 32 14.5 45.5t46.5 13.5h176q51 0 93.5 -15.5t72 -43t45.5 -66t16 -84.5q0 -70 -35.5 -118.5t-100.5 -70.5l101 -109 q21 -23 24.5 -44.5t-21.5 -43.5q-22 -21 -44.5 -18t-38.5 22l-149 171h-84v-127q0 -33 -13 -47t-46 -14t-45 14t-12 47zM478 552h100q64 0 95 26.5t31 74.5q0 46 -29 72.5t-88 26.5h-109v-200z" />
<glyph unicode="&#xaf;" d="M254 1107q0 36 13.5 50t45.5 14h528q32 0 46 -14t14 -50q0 -35 -14 -49.5t-46 -14.5h-528q-32 0 -45.5 14.5t-13.5 49.5z" />
<glyph unicode="&#xb0;" d="M231 873q0 55 21 103t56.5 83.5t83.5 56t102 20.5q55 0 103 -20.5t83.5 -56t56.5 -83.5t21 -103q0 -54 -21 -102t-56.5 -84t-83.5 -56.5t-103 -20.5q-54 0 -102 20.5t-83.5 56.5t-56.5 84t-21 102zM358 873q0 -28 11 -53t29 -43t43 -29t53 -11q29 0 53.5 11t43 29 t29.5 43t11 53t-11 53t-29.5 43.5t-43 29.5t-53.5 11q-28 0 -53 -11t-43 -29.5t-29 -43.5t-11 -53z" />
<glyph unicode="&#xb1;" d="M160 171q0 36 13.5 50t45.5 14h716q32 0 46 -14t14 -50t-14 -50t-46 -14h-716q-32 0 -45.5 14t-13.5 50zM160 697q0 36 13.5 50t45.5 14h294v238q0 32 14 45.5t50 13.5t50 -13.5t14 -45.5v-238h294q32 0 46 -14t14 -50q0 -35 -14 -49t-46 -14h-294v-238q0 -32 -14 -45.5 t-50 -13.5t-50 13.5t-14 45.5v238h-294q-32 0 -45.5 14t-13.5 49z" />
<glyph unicode="&#xb2;" d="M271 522q0 20 8 35t21 26l312 263q51 43 77 81t26 86q0 54 -36.5 87t-107.5 33q-41 0 -80.5 -10t-71.5 -27v-97q0 -23 -14 -35.5t-50 -12.5q-34 0 -48.5 12.5t-14.5 35.5v138q0 26 20 40q56 37 127.5 57t139.5 20q63 0 112.5 -17t84 -48.5t53 -76t18.5 -99.5 q0 -37 -10 -70t-29 -64t-48 -60.5t-66 -60.5l-225 -186h303v73q0 23 14 35.5t50 12.5q34 0 48.5 -12.5t14.5 -35.5v-141q0 -50 -47 -50h-537q-23 0 -33.5 17.5t-10.5 50.5z" />
<glyph unicode="&#xb3;" d="M284.5 529q-0.5 20 6.5 42q9 22 24.5 36t39.5 4q46 -23 100 -38t107 -15q85 0 131 30.5t46 88.5q0 33 -13 54.5t-35.5 34.5t-54.5 18.5t-70 5.5h-49q-23 0 -32 16t-9 42q0 24 9 41.5t32 17.5h37q76 0 117.5 26t41.5 88q0 56 -41.5 84t-114.5 28q-39 0 -73.5 -7t-64.5 -21 v-59q0 -23 -14 -35.5t-50 -12.5q-34 0 -48.5 12.5t-14.5 35.5v104q0 27 20 39q56 33 124 49t132 16q65 0 116 -16.5t87 -46t55 -71t19 -90.5q0 -59 -27 -101t-78 -69q60 -21 95 -67t35 -117q0 -55 -18.5 -99t-56 -75t-94 -48t-132.5 -17q-67 0 -136.5 14.5t-127.5 46.5 q-20 11 -20.5 31z" />
<glyph unicode="&#xb4;" d="M375.5 1039.5q4.5 16.5 20.5 25.5l391 216q12 7 23 9.5t21.5 -2t23 -18t27.5 -40.5q14 -25 19 -42.5t4 -29t-7.5 -18.5t-15.5 -10l-452 -153q-18 -6 -32 4t-20 26q-7 16 -2.5 32.5z" />
<glyph unicode="&#xb6;" d="M123 793q0 77 28.5 136.5t81 101.5t124.5 63.5t158 21.5h476q32 0 45.5 -14t13.5 -50t-13.5 -50t-45.5 -14h-64v-1317q0 -33 -15.5 -47t-55.5 -14q-39 0 -54.5 14t-15.5 47v1317h-151v-1317q0 -33 -15.5 -47t-54.5 -14q-40 0 -55.5 14t-15.5 47v801q-81 3 -150 25.5 t-117.5 64t-76 100t-27.5 131.5z" />
<glyph unicode="&#xb7;" d="M418 547q0 33 13 61.5t34.5 50.5t50 34.5t61.5 12.5t61.5 -12.5t50.5 -34.5t34.5 -50.5t12.5 -61.5t-12.5 -61.5t-34.5 -50t-50.5 -34.5t-61.5 -13t-61.5 13t-50 34.5t-34.5 50t-13 61.5z" />
<glyph unicode="&#xb8;" d="M332.5 -372q-2.5 19 4.5 37q8 19 23 31.5t33 4.5q37 -14 85 -23t96 -9q47 0 72 16.5t25 46.5q0 40 -35.5 54.5t-100.5 9.5q-7 0 -13.5 1t-12 5t-9 12t-3.5 22v190h127v-132q49 1 85 -11.5t60 -34t36.5 -50.5t12.5 -62q0 -40 -14.5 -72.5t-44 -56.5t-73 -37.5 t-102.5 -13.5q-63 0 -123.5 11.5t-108.5 33.5q-17 8 -19.5 27z" />
<glyph unicode="&#xb9;" d="M296 513q0 32 12.5 45.5t34.5 13.5h192v536l-164 -53q-47 -16 -65 37q-20 58 27 73l267 85q25 9 43.5 -1t18.5 -35v-642h182q23 0 34.5 -13.5t11.5 -45.5t-11.5 -45.5t-34.5 -13.5h-501q-22 0 -34.5 13.5t-12.5 45.5z" />
<glyph unicode="&#xba;" d="M221 787q0 76 27 140t74.5 110.5t113 72.5t141.5 26t141.5 -26t113 -72.5t74.5 -110.5t27 -140t-27 -140.5t-74.5 -111t-113 -72.5t-141.5 -26t-141.5 26t-113 72.5t-74.5 111t-27 140.5zM352 787q0 -50 16 -91.5t46 -71t71 -46.5t92 -17t92.5 17t71 46.5t45.5 71 t16 91.5q0 49 -16 90t-45.5 71.5t-71 47t-92.5 16.5t-92 -16.5t-71 -47t-46 -71.5t-16 -90z" />
<glyph unicode="&#xbb;" d="M226.5 246.5q-0.5 11.5 6.5 23.5l164 268l-164 268q-7 12 -6.5 23t6 21t15.5 17.5t23 13.5q23 10 47.5 7.5t36.5 -21.5l186 -307q14 -22 0 -45l-186 -306q-12 -20 -36.5 -22.5t-47.5 8.5q-13 5 -23 12.5t-15.5 17.5t-6 21.5zM602.5 246.5q-0.5 11.5 6.5 23.5l164 268 l-164 268q-7 12 -6.5 23t6 21t15.5 17.5t23 13.5q23 10 47.5 7.5t36.5 -21.5l186 -307q14 -22 0 -45l-186 -306q-12 -20 -36.5 -22.5t-47.5 8.5q-13 5 -23 12.5t-15.5 17.5t-6 21.5z" />
<glyph unicode="&#xbc;" d="M41 648q0 27 10.5 38t28.5 11h161v448l-137 -44q-40 -14 -55 31q-16 48 23 60l223 71q21 8 36.5 -0.5t15.5 -29.5v-536h151q20 0 29.5 -11t9.5 -38t-9.5 -38t-29.5 -11h-418q-18 0 -28.5 11t-10.5 38zM104 237q0 17 14 26l862 527q13 8 28.5 2t28.5 -25q13 -18 13 -35 t-13 -26l-863 -527q-12 -8 -27.5 -2t-28.5 25q-14 18 -14 35zM526 130q0 14 3 23t10 19l298 355q13 16 27.5 25t35.5 9q13 0 25.5 -3.5t22 -9t16 -13.5t6.5 -18v-350h85q18 0 28 -11t10 -37q0 -27 -10 -38.5t-28 -11.5h-85v-144q0 -19 -12 -29t-41 -10t-41 10t-12 29v144 h-296q-17 0 -29.5 14t-12.5 47zM660 167h204l4 250z" />
<glyph unicode="&#xbd;" d="M41 648q0 27 10.5 38t28.5 11h161v448l-137 -44q-40 -14 -55 31q-16 48 23 60l223 71q21 8 36.5 -0.5t15.5 -29.5v-536h151q20 0 29.5 -11t9.5 -38t-9.5 -38t-29.5 -11h-418q-18 0 -28.5 11t-10.5 38zM104 284q0 17 14 26l862 527q13 8 28.5 2t28.5 -25q13 -18 13 -35 t-13 -26l-863 -527q-12 -8 -27.5 -2t-28.5 25q-14 18 -14 35zM563 -50q0 17 7 29.5t18 21.5l260 219q43 36 64.5 68t21.5 72q0 45 -30.5 72.5t-89.5 27.5q-34 0 -67 -8.5t-60 -22.5v-81q0 -19 -12 -29.5t-42 -10.5q-28 0 -40 10.5t-12 29.5v115q0 22 17 34q46 31 106 47.5 t116 16.5q53 0 94.5 -14t70 -40.5t44 -63.5t15.5 -83q0 -31 -8 -58.5t-24 -53.5t-40.5 -50.5t-54.5 -50.5l-188 -155h253v61q0 19 11.5 29.5t41.5 10.5q28 0 40.5 -10.5t12.5 -29.5v-118q0 -42 -40 -42h-448q-19 0 -28 14.5t-9 42.5z" />
<glyph unicode="&#xbe;" d="M56.5 662.5q-0.5 16.5 5.5 35.5q8 18 20.5 30t32.5 3q39 -19 84 -31.5t89 -12.5q71 0 109.5 25.5t38.5 73.5q0 28 -11 46t-29.5 28.5t-45.5 15.5t-58 5h-41q-19 0 -27 13t-8 35q0 20 8 34.5t27 14.5h31q63 0 97.5 22t34.5 74q0 46 -34.5 69.5t-95.5 23.5q-32 0 -61 -6 t-54 -17v-50q0 -19 -12 -29.5t-42 -10.5q-28 0 -40 10.5t-12 29.5v87q0 23 17 33q46 27 103 40.5t110 13.5q55 0 97.5 -13.5t72.5 -38.5t46 -59.5t16 -75.5q0 -49 -22.5 -84t-65.5 -58q50 -17 79 -55.5t29 -98.5q0 -45 -15 -82t-46.5 -63t-78.5 -40t-111 -14q-56 0 -114 12 t-106 39q-17 9 -17.5 25.5zM104 246q0 17 14 26l862 527q13 8 28.5 2t28.5 -25q13 -18 13 -35t-13 -26l-863 -527q-12 -8 -27.5 -2t-28.5 25q-14 18 -14 35zM526 130q0 14 3 23t10 19l298 355q13 16 27.5 25t35.5 9q13 0 25.5 -3.5t22 -9t16 -13.5t6.5 -18v-350h85 q18 0 28 -11t10 -37q0 -27 -10 -38.5t-28 -11.5h-85v-144q0 -19 -12 -29t-41 -10t-41 10t-12 29v144h-296q-17 0 -29.5 14t-12.5 47zM660 167h204l4 250z" />
<glyph unicode="&#xbf;" d="M243 274q0 63 19 110t56.5 85t93.5 68.5t128 60.5l10 132q2 22 18.5 35t46.5 13t46.5 -13t18.5 -35l9 -183q1 -19 -5.5 -30t-22.5 -18l-65 -26q-54 -22 -92.5 -42.5t-63.5 -43.5t-37 -51t-12 -62q0 -69 46.5 -112.5t134.5 -43.5q58 0 108 8t95 27v84q0 33 15.5 47 t54.5 14q40 0 55.5 -14t15.5 -47v-119q0 -39 -24 -53q-71 -43 -151.5 -64.5t-167.5 -21.5q-78 0 -139.5 22t-103.5 60.5t-64.5 93t-22.5 119.5zM485 1007q0 26 10.5 50t27.5 41.5t41 27.5t51 10q26 0 50 -10t41.5 -27.5t27.5 -41.5t10 -50q0 -28 -10 -51.5t-27.5 -40.5 t-41.5 -27.5t-50 -10.5q-27 0 -51 10.5t-41 27.5t-27.5 40.5t-10.5 51.5z" />
<glyph unicode="&#xc0;" d="M9 64q0 36 14 50t46 14h52l311 860h-175q-32 0 -46 14t-14 50t14 50t46 14h345q37 0 60 -14t35 -47l331 -927h58q32 0 45.5 -14t13.5 -50t-13.5 -50t-45.5 -14h-333q-32 0 -45.5 14t-13.5 50t13.5 50t45.5 14h127l-77 224h-456l-78 -224h114q32 0 45.5 -14t13.5 -50 t-13.5 -50t-45.5 -14h-314q-32 0 -46 14t-14 50zM213 1412.5q-1 11.5 4 29t20 42.5q15 27 27 40.5t23 18t21.5 2t23.5 -9.5l391 -216q16 -9 20 -25.5t-3 -32.5q-6 -16 -19.5 -26t-31.5 -4l-452 153q-10 3 -16.5 10t-7.5 18.5zM391 479h369l-175 509h-18z" />
<glyph unicode="&#xc1;" d="M9 64q0 36 14 50t46 14h52l311 860h-175q-32 0 -46 14t-14 50t14 50t46 14h345q37 0 60 -14t35 -47l331 -927h58q32 0 45.5 -14t13.5 -50t-13.5 -50t-45.5 -14h-333q-32 0 -45.5 14t-13.5 50t13.5 50t45.5 14h127l-77 224h-456l-78 -224h114q32 0 45.5 -14t13.5 -50 t-13.5 -50t-45.5 -14h-314q-32 0 -46 14t-14 50zM317.5 1293.5q4.5 16.5 20.5 25.5l391 216q12 7 23 9.5t21.5 -2t23 -18t27.5 -40.5q14 -25 19 -42.5t4 -29t-7.5 -18.5t-15.5 -10l-452 -153q-18 -6 -32 4t-20 26q-7 16 -2.5 32.5zM391 479h369l-175 509h-18z" />
<glyph unicode="&#xc2;" d="M9 64q0 36 14 50t46 14h52l311 860h-175q-32 0 -46 14t-14 50t14 50t46 14h345q37 0 60 -14t35 -47l331 -927h58q32 0 45.5 -14t13.5 -50t-13.5 -50t-45.5 -14h-333q-32 0 -45.5 14t-13.5 50t13.5 50t45.5 14h127l-77 224h-456l-78 -224h114q32 0 45.5 -14t13.5 -50 t-13.5 -50t-45.5 -14h-314q-32 0 -46 14t-14 50zM231 1282q0 17 15 30l260 219q21 16 52 16q30 0 52 -16l260 -219q15 -13 15 -30t-9 -32q-10 -15 -25 -22t-31 3l-262 149l-262 -149q-16 -10 -31 -3t-25 22q-9 15 -9 32zM391 479h369l-175 509h-18z" />
<glyph unicode="&#xc3;" d="M9 64q0 36 14 50t46 14h52l311 860h-175q-32 0 -46 14t-14 50t14 50t46 14h345q37 0 60 -14t35 -47l331 -927h58q32 0 45.5 -14t13.5 -50t-13.5 -50t-45.5 -14h-333q-32 0 -45.5 14t-13.5 50t13.5 50t45.5 14h127l-77 224h-456l-78 -224h114q32 0 45.5 -14t13.5 -50 t-13.5 -50t-45.5 -14h-314q-32 0 -46 14t-14 50zM212.5 1347q1.5 18 16.5 31q56 47 102 66t86 19q35 0 67 -9.5t63 -20t61 -20t62 -9.5q28 0 61 10t66 29q16 10 31 4t27 -27t10.5 -39t-16.5 -31q-56 -47 -101.5 -66t-86.5 -19q-34 0 -66 9.5t-63 20t-61.5 20t-62.5 9.5 q-28 0 -61 -10t-65 -29q-16 -10 -31 -4t-28 27q-12 21 -10.5 39zM391 479h369l-175 509h-18z" />
<glyph unicode="&#xc4;" d="M9 64q0 36 14 50t46 14h52l311 860h-175q-32 0 -46 14t-14 50t14 50t46 14h345q37 0 60 -14t35 -47l331 -927h58q32 0 45.5 -14t13.5 -50t-13.5 -50t-45.5 -14h-333q-32 0 -45.5 14t-13.5 50t13.5 50t45.5 14h127l-77 224h-456l-78 -224h114q32 0 45.5 -14t13.5 -50 t-13.5 -50t-45.5 -14h-314q-32 0 -46 14t-14 50zM234 1377q0 25 9.5 46t25.5 37t37 25.5t45 9.5q25 0 46 -9.5t37 -25.5t25.5 -37t9.5 -46q0 -24 -9.5 -45t-25.5 -37t-37 -25.5t-46 -9.5q-24 0 -45 9.5t-37 25.5t-25.5 37t-9.5 45zM391 479h369l-175 509h-18zM647 1377 q0 25 9.5 46t25.5 37t37.5 25.5t45.5 9.5t45.5 -9.5t37.5 -25.5t25 -37t9 -46q0 -24 -9 -45t-25 -37t-37.5 -25.5t-45.5 -9.5t-45.5 9.5t-37.5 25.5t-25.5 37t-9.5 45z" />
<glyph unicode="&#xc5;" d="M9 64q0 36 14 50t46 14h52l311 860h-175q-32 0 -46 14t-14 50t14 50t46 14h345q37 0 60 -14t35 -47l331 -927h58q32 0 45.5 -14t13.5 -50t-13.5 -50t-45.5 -14h-333q-32 0 -45.5 14t-13.5 50t13.5 50t45.5 14h127l-77 224h-456l-78 -224h114q32 0 45.5 -14t13.5 -50 t-13.5 -50t-45.5 -14h-314q-32 0 -46 14t-14 50zM311 1458q0 48 18 90.5t49 73.5t73.5 49.5t90.5 18.5t90.5 -18.5t73.5 -49.5t49 -73.5t18 -90.5t-18 -90t-49 -73t-73.5 -49.5t-90.5 -18.5t-90.5 18.5t-73.5 49.5t-49 73t-18 90zM391 479h369l-175 509h-18zM424 1458 q0 -24 9 -45.5t25 -37.5t38 -25.5t46 -9.5t46 9.5t38 25.5t25 37.5t9 45.5q0 25 -9 46.5t-25 37.5t-38 25.5t-46 9.5t-46 -9.5t-38 -25.5t-25 -37.5t-9 -46.5z" />
<glyph unicode="&#xc6;" d="M0 64q0 36 13.5 50t45.5 14h47l263 860h-93q-32 0 -45.5 14t-13.5 50t13.5 50t45.5 14h723q32 0 45.5 -14t13.5 -50v-239q0 -33 -15.5 -47t-54.5 -14q-40 0 -55.5 14t-15.5 47v175h-244v-344h181q31 0 45 -14t14 -50t-14 -50t-45 -14h-181v-388h256v215q0 33 15.5 47 t54.5 14q40 0 55.5 -14t15.5 -47v-279q0 -36 -14 -50t-46 -14h-419q-32 0 -45.5 14t-13.5 50v288h-211l-68 -224h83q32 0 45.5 -14t13.5 -50t-13.5 -50t-45.5 -14h-277q-32 0 -45.5 14t-13.5 50zM359 479h173v509h-19z" />
<glyph unicode="&#xc7;" d="M111 557q0 131 35 237.5t99.5 183t154 117.5t196.5 41q91 0 158.5 -30.5t114.5 -84.5v54q0 33 15.5 47t54.5 14q40 0 55.5 -14t15.5 -47v-310q0 -33 -15.5 -47t-55.5 -14q-39 0 -54.5 14t-15.5 47q0 46 -15.5 88.5t-48 74.5t-82.5 50.5t-118 18.5q-76 0 -140 -30.5 t-109.5 -87.5t-71 -138.5t-25.5 -183.5q0 -101 24 -182.5t68 -138t106.5 -87.5t138.5 -31q94 0 178 27t152 80q19 15 41.5 13t42.5 -37q20 -33 16.5 -57t-28.5 -42q-78 -54 -165.5 -83t-180.5 -37v-88q49 1 85.5 -11.5t60.5 -34t36 -50.5t12 -62q0 -40 -14.5 -72.5 t-43.5 -56.5t-73 -37.5t-103 -13.5q-63 0 -123 11.5t-109 33.5q-17 8 -19.5 27t5.5 37q7 19 22 31.5t33 4.5q37 -14 85.5 -23t96.5 -9q47 0 71.5 16.5t24.5 46.5q0 40 -35.5 54.5t-100.5 9.5q-7 0 -13.5 1t-12 5t-9 12t-3.5 22v148q-95 12 -172 58.5t-131 121t-82.5 174 t-28.5 219.5z" />
<glyph unicode="&#xc8;" d="M75 64q0 36 13.5 50t45.5 14h96v860h-96q-32 0 -45.5 14t-13.5 50t13.5 50t45.5 14h822q32 0 45.5 -14t13.5 -50v-239q0 -33 -15.5 -47t-54.5 -14q-40 0 -55.5 14t-15.5 47v175h-503v-349h235v86q0 33 15.5 47t55.5 14q39 0 54.5 -14t15.5 -47v-299q0 -33 -15.5 -47 t-54.5 -14q-40 0 -55.5 14t-15.5 47v85h-235v-383h522v215q0 33 15.5 47t55.5 14q39 0 54.5 -14t15.5 -47v-279q0 -36 -13.5 -50t-45.5 -14h-841q-32 0 -45.5 14t-13.5 50zM279 1412.5q-1 11.5 4 29t20 42.5q15 27 27 40.5t23 18t21.5 2t23.5 -9.5l391 -216q16 -9 20 -25.5 t-3 -32.5q-6 -16 -19.5 -26t-31.5 -4l-452 153q-10 3 -16.5 10t-7.5 18.5z" />
<glyph unicode="&#xc9;" d="M75 64q0 36 13.5 50t45.5 14h96v860h-96q-32 0 -45.5 14t-13.5 50t13.5 50t45.5 14h822q32 0 45.5 -14t13.5 -50v-239q0 -33 -15.5 -47t-54.5 -14q-40 0 -55.5 14t-15.5 47v175h-503v-349h235v86q0 33 15.5 47t55.5 14q39 0 54.5 -14t15.5 -47v-299q0 -33 -15.5 -47 t-54.5 -14q-40 0 -55.5 14t-15.5 47v85h-235v-383h522v215q0 33 15.5 47t55.5 14q39 0 54.5 -14t15.5 -47v-279q0 -36 -13.5 -50t-45.5 -14h-841q-32 0 -45.5 14t-13.5 50zM345.5 1293.5q4.5 16.5 20.5 25.5l391 216q12 7 23 9.5t21.5 -2t23 -18t27.5 -40.5q14 -25 19 -42.5 t4 -29t-7.5 -18.5t-15.5 -10l-452 -153q-18 -6 -32 4t-20 26q-7 16 -2.5 32.5z" />
<glyph unicode="&#xca;" d="M75 64q0 36 13.5 50t45.5 14h96v860h-96q-32 0 -45.5 14t-13.5 50t13.5 50t45.5 14h822q32 0 45.5 -14t13.5 -50v-239q0 -33 -15.5 -47t-54.5 -14q-40 0 -55.5 14t-15.5 47v175h-503v-349h235v86q0 33 15.5 47t55.5 14q39 0 54.5 -14t15.5 -47v-299q0 -33 -15.5 -47 t-54.5 -14q-40 0 -55.5 14t-15.5 47v85h-235v-383h522v215q0 33 15.5 47t55.5 14q39 0 54.5 -14t15.5 -47v-279q0 -36 -13.5 -50t-45.5 -14h-841q-32 0 -45.5 14t-13.5 50zM278 1282q0 17 15 30l260 219q21 16 52 16q30 0 52 -16l260 -219q15 -13 15 -30t-9 -32 q-10 -15 -25 -22t-31 3l-262 149l-262 -149q-16 -10 -31 -3t-25 22q-9 15 -9 32z" />
<glyph unicode="&#xcb;" d="M75 64q0 36 13.5 50t45.5 14h96v860h-96q-32 0 -45.5 14t-13.5 50t13.5 50t45.5 14h822q32 0 45.5 -14t13.5 -50v-239q0 -33 -15.5 -47t-54.5 -14q-40 0 -55.5 14t-15.5 47v175h-503v-349h235v86q0 33 15.5 47t55.5 14q39 0 54.5 -14t15.5 -47v-299q0 -33 -15.5 -47 t-54.5 -14q-40 0 -55.5 14t-15.5 47v85h-235v-383h522v215q0 33 15.5 47t55.5 14q39 0 54.5 -14t15.5 -47v-279q0 -36 -13.5 -50t-45.5 -14h-841q-32 0 -45.5 14t-13.5 50zM281 1377q0 25 9.5 46t25.5 37t37 25.5t45 9.5q25 0 46 -9.5t37 -25.5t25.5 -37t9.5 -46 q0 -24 -9.5 -45t-25.5 -37t-37 -25.5t-46 -9.5q-24 0 -45 9.5t-37 25.5t-25.5 37t-9.5 45zM694 1377q0 25 9.5 46t25.5 37t37.5 25.5t45.5 9.5t45.5 -9.5t37.5 -25.5t25 -37t9 -46q0 -24 -9 -45t-25 -37t-37.5 -25.5t-45.5 -9.5t-45.5 9.5t-37.5 25.5t-25.5 37t-9.5 45z" />
<glyph unicode="&#xcc;" d="M188 64q0 36 13.5 50t45.5 14h260v860h-241q-32 0 -45.5 14t-13.5 50t13.5 50t45.5 14h622q32 0 46 -14t14 -50t-14 -50t-46 -14h-240v-860h259q32 0 45.5 -14t13.5 -50t-13.5 -50t-45.5 -14h-660q-32 0 -45.5 14t-13.5 50zM270 1412.5q-1 11.5 4 29t20 42.5 q15 27 27 40.5t23 18t21.5 2t23.5 -9.5l391 -216q16 -9 20 -25.5t-3 -32.5q-6 -16 -19.5 -26t-31.5 -4l-452 153q-10 3 -16.5 10t-7.5 18.5z" />
<glyph unicode="&#xcd;" d="M188 64q0 36 13.5 50t45.5 14h260v860h-241q-32 0 -45.5 14t-13.5 50t13.5 50t45.5 14h622q32 0 46 -14t14 -50t-14 -50t-46 -14h-240v-860h259q32 0 45.5 -14t13.5 -50t-13.5 -50t-45.5 -14h-660q-32 0 -45.5 14t-13.5 50zM373.5 1293.5q4.5 16.5 20.5 25.5l391 216 q12 7 23 9.5t21.5 -2t23 -18t27.5 -40.5q14 -25 19 -42.5t4 -29t-7.5 -18.5t-15.5 -10l-452 -153q-18 -6 -32 4t-20 26q-7 16 -2.5 32.5z" />
<glyph unicode="&#xce;" d="M188 64q0 36 13.5 50t45.5 14h260v860h-241q-32 0 -45.5 14t-13.5 50t13.5 50t45.5 14h622q32 0 46 -14t14 -50t-14 -50t-46 -14h-240v-860h259q32 0 45.5 -14t13.5 -50t-13.5 -50t-45.5 -14h-660q-32 0 -45.5 14t-13.5 50zM250 1282q0 17 15 30l260 219q21 16 52 16 q30 0 52 -16l260 -219q15 -13 15 -30t-9 -32q-10 -15 -25 -22t-31 3l-262 149l-262 -149q-16 -10 -31 -3t-25 22q-9 15 -9 32z" />
<glyph unicode="&#xcf;" d="M188 64q0 36 13.5 50t45.5 14h260v860h-241q-32 0 -45.5 14t-13.5 50t13.5 50t45.5 14h622q32 0 46 -14t14 -50t-14 -50t-46 -14h-240v-860h259q32 0 45.5 -14t13.5 -50t-13.5 -50t-45.5 -14h-660q-32 0 -45.5 14t-13.5 50zM253 1377q0 25 9.5 46t25.5 37t37 25.5t45 9.5 q25 0 46 -9.5t37 -25.5t25.5 -37t9.5 -46q0 -24 -9.5 -45t-25.5 -37t-37 -25.5t-46 -9.5q-24 0 -45 9.5t-37 25.5t-25.5 37t-9.5 45zM666 1377q0 25 9.5 46t25.5 37t37.5 25.5t45.5 9.5t45.5 -9.5t37.5 -25.5t25 -37t9 -46q0 -24 -9 -45t-25 -37t-37.5 -25.5t-45.5 -9.5 t-45.5 9.5t-37.5 25.5t-25.5 37t-9.5 45z" />
<glyph unicode="&#xd0;" d="M47 575q0 36 13.5 50t45.5 14h134v349h-106q-32 0 -45.5 14t-13.5 50t13.5 50t45.5 14h443q111 0 202 -38.5t156 -110.5t101 -175.5t36 -234.5q0 -130 -36 -233.5t-101 -175.5t-156 -110t-202 -38h-443q-32 0 -45.5 14t-13.5 50t13.5 50t45.5 14h106v383h-134 q-32 0 -45.5 14.5t-13.5 49.5zM381 128h175q83 0 151 27.5t115.5 81.5t74 134.5t26.5 185.5q0 106 -26.5 186t-74 134.5t-115.5 82.5t-151 28h-175v-349h178q32 0 46 -14t14 -50q0 -35 -14 -49.5t-46 -14.5h-178v-383z" />
<glyph unicode="&#xd1;" d="M66 1052q0 36 13.5 50t45.5 14h211q38 0 53 -27l446 -797v696h-110q-32 0 -45.5 14t-13.5 50t13.5 50t45.5 14h304q32 0 46 -14t14 -50t-14 -50t-46 -14h-53v-953q0 -25 -17 -40.5t-54 -15.5q-27 0 -46 14t-33 38l-488 871v-774h129q32 0 45.5 -14t13.5 -50t-13.5 -50 t-45.5 -14h-333q-32 0 -45.5 14t-13.5 50t13.5 50t45.5 14h63v860h-72q-32 0 -45.5 14t-13.5 50zM250.5 1347q1.5 18 16.5 31q56 47 102 66t86 19q35 0 67 -9.5t63 -20t61 -20t62 -9.5q28 0 61 10t66 29q16 10 31 4t27 -27t10.5 -39t-16.5 -31q-56 -47 -101.5 -66t-86.5 -19 q-34 0 -66 9.5t-63 20t-61.5 20t-62.5 9.5q-28 0 -61 -10t-65 -29q-16 -10 -31 -4t-28 27q-12 21 -10.5 39z" />
<glyph unicode="&#xd2;" d="M83 557q0 131 35.5 237.5t100.5 183t156 117.5t202 41t202 -41t156 -117.5t101 -183t36 -237.5q0 -130 -36 -237t-101 -182.5t-156 -117t-202 -41.5t-202 41.5t-156 117t-100.5 182.5t-35.5 237zM231 557q0 -101 25 -182.5t70 -138t109 -87.5t142 -31t142 31t109 87.5 t70 138t25 182.5q0 102 -25 183.5t-70 138.5t-109 87.5t-142 30.5t-142 -30.5t-109 -87.5t-70 -138.5t-25 -183.5zM270 1412.5q-1 11.5 4 29t20 42.5q15 27 27 40.5t23 18t21.5 2t23.5 -9.5l391 -216q16 -9 20 -25.5t-3 -32.5q-6 -16 -19.5 -26t-31.5 -4l-452 153 q-10 3 -16.5 10t-7.5 18.5z" />
<glyph unicode="&#xd3;" d="M83 557q0 131 35.5 237.5t100.5 183t156 117.5t202 41t202 -41t156 -117.5t101 -183t36 -237.5q0 -130 -36 -237t-101 -182.5t-156 -117t-202 -41.5t-202 41.5t-156 117t-100.5 182.5t-35.5 237zM231 557q0 -101 25 -182.5t70 -138t109 -87.5t142 -31t142 31t109 87.5 t70 138t25 182.5q0 102 -25 183.5t-70 138.5t-109 87.5t-142 30.5t-142 -30.5t-109 -87.5t-70 -138.5t-25 -183.5zM354.5 1293.5q4.5 16.5 20.5 25.5l391 216q12 7 23 9.5t21.5 -2t23 -18t27.5 -40.5q14 -25 19 -42.5t4 -29t-7.5 -18.5t-15.5 -10l-452 -153q-18 -6 -32 4 t-20 26q-7 16 -2.5 32.5z" />
<glyph unicode="&#xd4;" d="M83 557q0 131 35.5 237.5t100.5 183t156 117.5t202 41t202 -41t156 -117.5t101 -183t36 -237.5q0 -130 -36 -237t-101 -182.5t-156 -117t-202 -41.5t-202 41.5t-156 117t-100.5 182.5t-35.5 237zM231 557q0 -101 25 -182.5t70 -138t109 -87.5t142 -31t142 31t109 87.5 t70 138t25 182.5q0 102 -25 183.5t-70 138.5t-109 87.5t-142 30.5t-142 -30.5t-109 -87.5t-70 -138.5t-25 -183.5zM250 1282q0 17 15 30l260 219q21 16 52 16q30 0 52 -16l260 -219q15 -13 15 -30t-9 -32q-10 -15 -25 -22t-31 3l-262 149l-262 -149q-16 -10 -31 -3t-25 22 q-9 15 -9 32z" />
<glyph unicode="&#xd5;" d="M83 557q0 131 35.5 237.5t100.5 183t156 117.5t202 41t202 -41t156 -117.5t101 -183t36 -237.5q0 -130 -36 -237t-101 -182.5t-156 -117t-202 -41.5t-202 41.5t-156 117t-100.5 182.5t-35.5 237zM231 557q0 -101 25 -182.5t70 -138t109 -87.5t142 -31t142 31t109 87.5 t70 138t25 182.5q0 102 -25 183.5t-70 138.5t-109 87.5t-142 30.5t-142 -30.5t-109 -87.5t-70 -138.5t-25 -183.5zM250.5 1347q1.5 18 16.5 31q56 47 102 66t86 19q35 0 67 -9.5t63 -20t61 -20t62 -9.5q28 0 61 10t66 29q16 10 31 4t27 -27t10.5 -39t-16.5 -31 q-56 -47 -101.5 -66t-86.5 -19q-34 0 -66 9.5t-63 20t-61.5 20t-62.5 9.5q-28 0 -61 -10t-65 -29q-16 -10 -31 -4t-28 27q-12 21 -10.5 39z" />
<glyph unicode="&#xd6;" d="M83 557q0 131 35.5 237.5t100.5 183t156 117.5t202 41t202 -41t156 -117.5t101 -183t36 -237.5q0 -130 -36 -237t-101 -182.5t-156 -117t-202 -41.5t-202 41.5t-156 117t-100.5 182.5t-35.5 237zM231 557q0 -101 25 -182.5t70 -138t109 -87.5t142 -31t142 31t109 87.5 t70 138t25 182.5q0 102 -25 183.5t-70 138.5t-109 87.5t-142 30.5t-142 -30.5t-109 -87.5t-70 -138.5t-25 -183.5zM253 1377q0 25 9.5 46t25.5 37t37 25.5t45 9.5q25 0 46 -9.5t37 -25.5t25.5 -37t9.5 -46q0 -24 -9.5 -45t-25.5 -37t-37 -25.5t-46 -9.5q-24 0 -45 9.5 t-37 25.5t-25.5 37t-9.5 45zM666 1377q0 25 9.5 46t25.5 37t37.5 25.5t45.5 9.5t45.5 -9.5t37.5 -25.5t25 -37t9 -46q0 -24 -9 -45t-25 -37t-37.5 -25.5t-45.5 -9.5t-45.5 9.5t-37.5 25.5t-25.5 37t-9.5 45z" />
<glyph unicode="&#xd7;" d="M219.5 259q-0.5 20 22.5 43l245 245l-245 245q-23 23 -22.5 43t24.5 45q25 24 45 24.5t43 -21.5l245 -246l245 246q23 22 43 21.5t45 -24.5q24 -25 24.5 -45t-21.5 -43l-246 -245l246 -245q22 -23 21.5 -43t-24.5 -45q-25 -24 -45 -24.5t-43 22.5l-245 245l-245 -245 q-23 -23 -43 -22.5t-45 24.5q-24 25 -24.5 45z" />
<glyph unicode="&#xd8;" d="M83 557q0 131 35.5 237.5t100.5 183t156 117.5t202 41q77 0 144.5 -20t123.5 -58l35 50q19 28 40 30t49 -18q28 -19 33 -40t-14 -47l-45 -65q62 -76 95.5 -180t33.5 -231q0 -130 -36 -237t-101 -182.5t-156 -117t-202 -41.5q-78 0 -145 20t-124 58l-34 -48 q-18 -27 -39 -29.5t-49 17.5q-29 20 -33.5 40t13.5 48l45 63q-62 76 -95 179.5t-33 229.5zM231 557q0 -171 68 -283l464 667q-81 56 -186 56q-78 0 -142 -30.5t-109 -87.5t-70 -138.5t-25 -183.5zM390 175q40 -27 87 -42t100 -15q78 0 142 31t109 87.5t70 138t25 182.5 q0 87 -18 158t-51 126z" />
<glyph unicode="&#xd9;" d="M66 1052q0 36 13.5 50t45.5 14h305q32 0 45.5 -14t13.5 -50t-13.5 -50t-45.5 -14h-106v-600q0 -73 15.5 -124.5t47 -83.5t79 -47t111.5 -15t111.5 15t79 47t47 83.5t15.5 124.5v600h-105q-32 0 -45.5 14t-13.5 50t13.5 50t45.5 14h304q32 0 46 -14t14 -50t-14 -50 t-46 -14h-58v-619q0 -100 -27.5 -173.5t-78 -121.5t-124 -71.5t-164.5 -23.5q-92 0 -165 23.5t-123.5 71.5t-78 121.5t-27.5 173.5v619h-58q-32 0 -45.5 14t-13.5 50zM270 1412.5q-1 11.5 4 29t20 42.5q15 27 27 40.5t23 18t21.5 2t23.5 -9.5l391 -216q16 -9 20 -25.5 t-3 -32.5q-6 -16 -19.5 -26t-31.5 -4l-452 153q-10 3 -16.5 10t-7.5 18.5z" />
<glyph unicode="&#xda;" d="M66 1052q0 36 13.5 50t45.5 14h305q32 0 45.5 -14t13.5 -50t-13.5 -50t-45.5 -14h-106v-600q0 -73 15.5 -124.5t47 -83.5t79 -47t111.5 -15t111.5 15t79 47t47 83.5t15.5 124.5v600h-105q-32 0 -45.5 14t-13.5 50t13.5 50t45.5 14h304q32 0 46 -14t14 -50t-14 -50 t-46 -14h-58v-619q0 -100 -27.5 -173.5t-78 -121.5t-124 -71.5t-164.5 -23.5q-92 0 -165 23.5t-123.5 71.5t-78 121.5t-27.5 173.5v619h-58q-32 0 -45.5 14t-13.5 50zM373.5 1293.5q4.5 16.5 20.5 25.5l391 216q12 7 23 9.5t21.5 -2t23 -18t27.5 -40.5q14 -25 19 -42.5 t4 -29t-7.5 -18.5t-15.5 -10l-452 -153q-18 -6 -32 4t-20 26q-7 16 -2.5 32.5z" />
<glyph unicode="&#xdb;" d="M66 1052q0 36 13.5 50t45.5 14h305q32 0 45.5 -14t13.5 -50t-13.5 -50t-45.5 -14h-106v-600q0 -73 15.5 -124.5t47 -83.5t79 -47t111.5 -15t111.5 15t79 47t47 83.5t15.5 124.5v600h-105q-32 0 -45.5 14t-13.5 50t13.5 50t45.5 14h304q32 0 46 -14t14 -50t-14 -50 t-46 -14h-58v-619q0 -100 -27.5 -173.5t-78 -121.5t-124 -71.5t-164.5 -23.5q-92 0 -165 23.5t-123.5 71.5t-78 121.5t-27.5 173.5v619h-58q-32 0 -45.5 14t-13.5 50zM250 1282q0 17 15 30l260 219q21 16 52 16q30 0 52 -16l260 -219q15 -13 15 -30t-9 -32q-10 -15 -25 -22 t-31 3l-262 149l-262 -149q-16 -10 -31 -3t-25 22q-9 15 -9 32z" />
<glyph unicode="&#xdc;" d="M66 1052q0 36 13.5 50t45.5 14h305q32 0 45.5 -14t13.5 -50t-13.5 -50t-45.5 -14h-106v-600q0 -73 15.5 -124.5t47 -83.5t79 -47t111.5 -15t111.5 15t79 47t47 83.5t15.5 124.5v600h-105q-32 0 -45.5 14t-13.5 50t13.5 50t45.5 14h304q32 0 46 -14t14 -50t-14 -50 t-46 -14h-58v-619q0 -100 -27.5 -173.5t-78 -121.5t-124 -71.5t-164.5 -23.5q-92 0 -165 23.5t-123.5 71.5t-78 121.5t-27.5 173.5v619h-58q-32 0 -45.5 14t-13.5 50zM253 1377q0 25 9.5 46t25.5 37t37 25.5t45 9.5q25 0 46 -9.5t37 -25.5t25.5 -37t9.5 -46q0 -24 -9.5 -45 t-25.5 -37t-37 -25.5t-46 -9.5q-24 0 -45 9.5t-37 25.5t-25.5 37t-9.5 45zM666 1377q0 25 9.5 46t25.5 37t37.5 25.5t45.5 9.5t45.5 -9.5t37.5 -25.5t25 -37t9 -46q0 -24 -9 -45t-25 -37t-37.5 -25.5t-45.5 -9.5t-45.5 9.5t-37.5 25.5t-25.5 37t-9.5 45z" />
<glyph unicode="&#xdd;" d="M56 1052q0 36 14 50t46 14h314q32 0 45.5 -14t13.5 -50t-13.5 -50t-45.5 -14h-88l235 -385l237 385h-61q-32 0 -45.5 14t-13.5 50t13.5 50t45.5 14h286q32 0 45.5 -14t13.5 -50t-13.5 -50t-45.5 -14h-64l-327 -526v-334h212q32 0 45.5 -14t13.5 -50t-13.5 -50t-45.5 -14 h-566q-32 0 -45.5 14t-13.5 50t13.5 50t45.5 14h213v334l-326 526h-65q-32 0 -46 14t-14 50zM373.5 1293.5q4.5 16.5 20.5 25.5l391 216q12 7 23 9.5t21.5 -2t23 -18t27.5 -40.5q14 -25 19 -42.5t4 -29t-7.5 -18.5t-15.5 -10l-452 -153q-18 -6 -32 4t-20 26q-7 16 -2.5 32.5 z" />
<glyph unicode="&#xde;" d="M103 64q0 36 14 50t46 14h146v860h-146q-32 0 -46 14t-14 50t14 50t46 14h490q32 0 46 -14t14 -50t-14 -50t-46 -14h-203v-117h217q85 0 149 -24t106 -65t64 -97.5t22 -122.5q0 -65 -22 -121t-64 -96.5t-106 -64t-149 -23.5h-217v-129h203q32 0 46 -14t14 -50t-14 -50 t-46 -14h-490q-32 0 -46 14t-14 50zM450 384h198q104 0 157.5 47t53.5 131q0 40 -12 72.5t-38 57t-66 38.5t-95 14h-198v-360z" />
<glyph unicode="&#xdf;" d="M38 64q0 36 13.5 50t45.5 14h133v758q0 78 23.5 142.5t69 111t110 72.5t146.5 26q88 0 154.5 -25.5t111 -69t67 -103.5t22.5 -127q0 -90 -44.5 -152t-118.5 -101q100 -39 158.5 -121.5t58.5 -200.5q0 -84 -28 -151t-78 -113t-120.5 -70.5t-156.5 -24.5q-48 0 -63 16 t-15 57q0 34 14 50t47 16q117 0 184 57t67 165q0 59 -16.5 104t-48 75.5t-76.5 46.5t-99 16q-32 0 -45.5 15.5t-13.5 49.5t13.5 49t45.5 17q94 10 141.5 63.5t47.5 136.5q0 87 -54 138t-159 51q-49 0 -87 -16t-63.5 -46t-39.5 -71t-14 -93v-812q0 -36 -13.5 -50t-45.5 -14 h-215q-32 0 -45.5 14t-13.5 50z" />
<glyph unicode="&#xe0;" d="M127 254q0 79 30.5 134.5t82.5 89.5t121.5 50t146.5 16q76 0 147.5 -12t137.5 -36v80q0 91 -43.5 134t-149.5 43q-76 0 -153 -20t-136 -63q-21 -16 -44 -11t-43 34q-21 29 -16.5 52t25.5 39q37 27 81 47.5t91.5 33t97 18.5t97.5 6q168 0 251 -79t83 -234v-374 q0 -74 62 -74h33q32 0 46 -14t14 -50t-14 -50t-46 -14h-60q-29 0 -55.5 7t-47.5 22t-36.5 37.5t-22.5 53.5q-74 -65 -163 -103t-194 -38q-70 0 -129.5 18.5t-102.5 53.5t-67 86t-24 117zM275 257q0 -69 47.5 -107t133.5 -38q100 0 184 42t153 113v102q-65 22 -138 32.5 t-146 10.5q-51 0 -94 -8.5t-74 -27t-48.5 -48t-17.5 -71.5zM307 1158.5q-1 11.5 4 29t20 42.5q15 27 27 40.5t23 18t21.5 2t23.5 -9.5l391 -216q16 -9 20 -25.5t-3 -32.5q-6 -16 -19.5 -26t-31.5 -4l-452 153q-10 3 -16.5 10t-7.5 18.5z" />
<glyph unicode="&#xe1;" d="M127 254q0 79 30.5 134.5t82.5 89.5t121.5 50t146.5 16q76 0 147.5 -12t137.5 -36v80q0 91 -43.5 134t-149.5 43q-76 0 -153 -20t-136 -63q-21 -16 -44 -11t-43 34q-21 29 -16.5 52t25.5 39q37 27 81 47.5t91.5 33t97 18.5t97.5 6q168 0 251 -79t83 -234v-374 q0 -74 62 -74h33q32 0 46 -14t14 -50t-14 -50t-46 -14h-60q-29 0 -55.5 7t-47.5 22t-36.5 37.5t-22.5 53.5q-74 -65 -163 -103t-194 -38q-70 0 -129.5 18.5t-102.5 53.5t-67 86t-24 117zM275 257q0 -69 47.5 -107t133.5 -38q100 0 184 42t153 113v102q-65 22 -138 32.5 t-146 10.5q-51 0 -94 -8.5t-74 -27t-48.5 -48t-17.5 -71.5zM317.5 1039.5q4.5 16.5 20.5 25.5l391 216q12 7 23 9.5t21.5 -2t23 -18t27.5 -40.5q14 -25 19 -42.5t4 -29t-7.5 -18.5t-15.5 -10l-452 -153q-18 -6 -32 4t-20 26q-7 16 -2.5 32.5z" />
<glyph unicode="&#xe2;" d="M127 254q0 79 30.5 134.5t82.5 89.5t121.5 50t146.5 16q76 0 147.5 -12t137.5 -36v80q0 91 -43.5 134t-149.5 43q-76 0 -153 -20t-136 -63q-21 -16 -44 -11t-43 34q-21 29 -16.5 52t25.5 39q37 27 81 47.5t91.5 33t97 18.5t97.5 6q168 0 251 -79t83 -234v-374 q0 -74 62 -74h33q32 0 46 -14t14 -50t-14 -50t-46 -14h-60q-29 0 -55.5 7t-47.5 22t-36.5 37.5t-22.5 53.5q-74 -65 -163 -103t-194 -38q-70 0 -129.5 18.5t-102.5 53.5t-67 86t-24 117zM250 1028q0 17 15 30l260 219q21 16 52 16q30 0 52 -16l260 -219q15 -13 15 -30 t-9 -32q-10 -15 -25 -22t-31 3l-262 149l-262 -149q-16 -10 -31 -3t-25 22q-9 15 -9 32zM275 257q0 -69 47.5 -107t133.5 -38q100 0 184 42t153 113v102q-65 22 -138 32.5t-146 10.5q-51 0 -94 -8.5t-74 -27t-48.5 -48t-17.5 -71.5z" />
<glyph unicode="&#xe3;" d="M127 254q0 79 30.5 134.5t82.5 89.5t121.5 50t146.5 16q76 0 147.5 -12t137.5 -36v80q0 91 -43.5 134t-149.5 43q-76 0 -153 -20t-136 -63q-21 -16 -44 -11t-43 34q-21 29 -16.5 52t25.5 39q37 27 81 47.5t91.5 33t97 18.5t97.5 6q168 0 251 -79t83 -234v-374 q0 -74 62 -74h33q32 0 46 -14t14 -50t-14 -50t-46 -14h-60q-29 0 -55.5 7t-47.5 22t-36.5 37.5t-22.5 53.5q-74 -65 -163 -103t-194 -38q-70 0 -129.5 18.5t-102.5 53.5t-67 86t-24 117zM250.5 1103q1.5 18 16.5 31q56 47 102 66t86 19q35 0 67 -9.5t63 -20t61 -20t62 -9.5 q28 0 61 10t66 29q16 10 31 4t27 -27t10.5 -39t-16.5 -31q-56 -47 -101.5 -66t-86.5 -19q-34 0 -66 9.5t-63 20t-61.5 20t-62.5 9.5q-28 0 -61 -10t-65 -29q-16 -10 -31 -4t-28 27q-12 21 -10.5 39zM275 257q0 -69 47.5 -107t133.5 -38q100 0 184 42t153 113v102 q-65 22 -138 32.5t-146 10.5q-51 0 -94 -8.5t-74 -27t-48.5 -48t-17.5 -71.5z" />
<glyph unicode="&#xe4;" d="M127 254q0 79 30.5 134.5t82.5 89.5t121.5 50t146.5 16q76 0 147.5 -12t137.5 -36v80q0 91 -43.5 134t-149.5 43q-76 0 -153 -20t-136 -63q-21 -16 -44 -11t-43 34q-21 29 -16.5 52t25.5 39q37 27 81 47.5t91.5 33t97 18.5t97.5 6q168 0 251 -79t83 -234v-374 q0 -74 62 -74h33q32 0 46 -14t14 -50t-14 -50t-46 -14h-60q-29 0 -55.5 7t-47.5 22t-36.5 37.5t-22.5 53.5q-74 -65 -163 -103t-194 -38q-70 0 -129.5 18.5t-102.5 53.5t-67 86t-24 117zM253 1123q0 25 9.5 46t25.5 37t37 25.5t45 9.5q25 0 46 -9.5t37 -25.5t25.5 -37 t9.5 -46q0 -24 -9.5 -45t-25.5 -37t-37 -25.5t-46 -9.5q-24 0 -45 9.5t-37 25.5t-25.5 37t-9.5 45zM275 257q0 -69 47.5 -107t133.5 -38q100 0 184 42t153 113v102q-65 22 -138 32.5t-146 10.5q-51 0 -94 -8.5t-74 -27t-48.5 -48t-17.5 -71.5zM666 1123q0 25 9.5 46t25.5 37 t37.5 25.5t45.5 9.5t45.5 -9.5t37.5 -25.5t25 -37t9 -46q0 -24 -9 -45t-25 -37t-37.5 -25.5t-45.5 -9.5t-45.5 9.5t-37.5 25.5t-25.5 37t-9.5 45z" />
<glyph unicode="&#xe5;" d="M127 254q0 79 30.5 134.5t82.5 89.5t121.5 50t146.5 16q76 0 147.5 -12t137.5 -36v80q0 91 -43.5 134t-149.5 43q-76 0 -153 -20t-136 -63q-21 -16 -44 -11t-43 34q-21 29 -16.5 52t25.5 39q37 27 81 47.5t91.5 33t97 18.5t97.5 6q168 0 251 -79t83 -234v-374 q0 -74 62 -74h33q32 0 46 -14t14 -50t-14 -50t-46 -14h-60q-29 0 -55.5 7t-47.5 22t-36.5 37.5t-22.5 53.5q-74 -65 -163 -103t-194 -38q-70 0 -129.5 18.5t-102.5 53.5t-67 86t-24 117zM275 257q0 -69 47.5 -107t133.5 -38q100 0 184 42t153 113v102q-65 22 -138 32.5 t-146 10.5q-51 0 -94 -8.5t-74 -27t-48.5 -48t-17.5 -71.5zM356 1205q0 48 18 90.5t49 73.5t73.5 49.5t90.5 18.5t90.5 -18.5t73.5 -49.5t49 -73.5t18 -90.5t-18 -90t-49 -73t-73.5 -49.5t-90.5 -18.5t-90.5 18.5t-73.5 49.5t-49 73t-18 90zM469 1205q0 -24 9 -45.5 t25 -37.5t38 -25.5t46 -9.5t46 9.5t38 25.5t25 37.5t9 45.5q0 25 -9 46.5t-25 37.5t-38 25.5t-46 9.5t-46 -9.5t-38 -25.5t-25 -37.5t-9 -46.5z" />
<glyph unicode="&#xe6;" d="M70 226q0 80 31.5 140t89 100t138 59.5t178.5 19.5v21q0 43 -5.5 78t-19 59.5t-37.5 37t-61 12.5q-44 0 -84 -16t-83 -49q-21 -16 -44.5 -14.5t-43.5 23.5q-21 24 -20.5 49t22.5 44q60 51 123 75t130 24q76 0 126.5 -28.5t80.5 -80.5q38 55 91 82t120 27q74 0 126.5 -30 t85.5 -84.5t49 -131.5t19 -171q0 -32 -13.5 -45t-45.5 -13h-375q1 -85 13.5 -142.5t33 -92t48.5 -49t59 -14.5q45 0 82.5 17t77.5 56q17 18 42 16t47 -29t19.5 -51t-25.5 -46q-52 -50 -113.5 -75t-129.5 -25q-74 0 -132 33t-98 103q-45 -63 -113 -99.5t-144 -36.5 q-56 0 -101 17.5t-77 49.5t-49.5 77.5t-17.5 102.5zM214 226q0 -55 28.5 -84.5t76.5 -29.5q39 0 73.5 15.5t60 42.5t40 65.5t14.5 84.5v94q-154 0 -223.5 -48t-69.5 -140zM652 545h282q-6 97 -36 152.5t-94 55.5q-65 0 -102.5 -48t-49.5 -160z" />
<glyph unicode="&#xe7;" d="M119 434q0 98 33 181t93 144.5t143 95.5t184 34q86 0 155.5 -30.5t117.5 -86.5v56q0 33 15.5 47t55.5 14q39 0 54.5 -14t15.5 -47v-272q0 -33 -15.5 -47.5t-54.5 -14.5q-40 0 -55.5 14.5t-15.5 47.5q0 42 -17 77.5t-50.5 61.5t-82 40.5t-113.5 14.5q-69 0 -126.5 -23.5 t-99 -65.5t-65 -100t-23.5 -127q0 -68 21.5 -126t61.5 -100.5t96.5 -66t124.5 -23.5q87 0 168 26.5t148 78.5q25 19 46.5 14t41.5 -38q16 -25 13.5 -52t-29.5 -47q-67 -50 -154.5 -80.5t-181.5 -38.5v-87q49 1 85 -11.5t60 -34t36.5 -50.5t12.5 -62q0 -40 -14.5 -72.5 t-44 -56.5t-73 -37.5t-102.5 -13.5q-63 0 -123.5 11.5t-108.5 33.5q-17 8 -19.5 27t4.5 37q8 19 23 31.5t33 4.5q37 -14 85 -23t96 -9q47 0 72 16.5t25 46.5q0 40 -35.5 54.5t-100.5 9.5q-7 0 -13.5 1t-12 5t-9 12t-3.5 22v149q-86 12 -156 50.5t-119.5 98t-76 136 t-26.5 164.5z" />
<glyph unicode="&#xe8;" d="M137 434q0 103 33.5 187t92.5 143.5t141.5 92t181.5 32.5q104 0 184 -32.5t135 -89.5t85 -136t36 -173q0 -32 -14 -45t-46 -13h-680q7 -142 78 -213t203 -71q95 0 184 21.5t154 58.5q30 17 50.5 3t32.5 -44q13 -30 5.5 -54t-38.5 -40q-37 -18 -81.5 -33t-95 -25.5 t-104 -17t-107.5 -6.5q-104 0 -183.5 31.5t-134 90.5t-83.5 143t-29 190zM295 531h575q-20 106 -89.5 164t-194.5 58q-118 0 -192.5 -59t-98.5 -163zM307 1158.5q-1 11.5 4 29t20 42.5q15 27 27 40.5t23 18t21.5 2t23.5 -9.5l391 -216q16 -9 20 -25.5t-3 -32.5 q-6 -16 -19.5 -26t-31.5 -4l-452 153q-10 3 -16.5 10t-7.5 18.5z" />
<glyph unicode="&#xe9;" d="M137 434q0 103 33.5 187t92.5 143.5t141.5 92t181.5 32.5q104 0 184 -32.5t135 -89.5t85 -136t36 -173q0 -32 -14 -45t-46 -13h-680q7 -142 78 -213t203 -71q95 0 184 21.5t154 58.5q30 17 50.5 3t32.5 -44q13 -30 5.5 -54t-38.5 -40q-37 -18 -81.5 -33t-95 -25.5 t-104 -17t-107.5 -6.5q-104 0 -183.5 31.5t-134 90.5t-83.5 143t-29 190zM295 531h575q-20 106 -89.5 164t-194.5 58q-118 0 -192.5 -59t-98.5 -163zM354.5 1039.5q4.5 16.5 20.5 25.5l391 216q12 7 23 9.5t21.5 -2t23 -18t27.5 -40.5q14 -25 19 -42.5t4 -29t-7.5 -18.5 t-15.5 -10l-452 -153q-18 -6 -32 4t-20 26q-7 16 -2.5 32.5z" />
<glyph unicode="&#xea;" d="M137 434q0 103 33.5 187t92.5 143.5t141.5 92t181.5 32.5q104 0 184 -32.5t135 -89.5t85 -136t36 -173q0 -32 -14 -45t-46 -13h-680q7 -142 78 -213t203 -71q95 0 184 21.5t154 58.5q30 17 50.5 3t32.5 -44q13 -30 5.5 -54t-38.5 -40q-37 -18 -81.5 -33t-95 -25.5 t-104 -17t-107.5 -6.5q-104 0 -183.5 31.5t-134 90.5t-83.5 143t-29 190zM269 1028q0 17 15 30l260 219q21 16 52 16q30 0 52 -16l260 -219q15 -13 15 -30t-9 -32q-10 -15 -25 -22t-31 3l-262 149l-262 -149q-16 -10 -31 -3t-25 22q-9 15 -9 32zM295 531h575 q-20 106 -89.5 164t-194.5 58q-118 0 -192.5 -59t-98.5 -163z" />
<glyph unicode="&#xeb;" d="M137 434q0 103 33.5 187t92.5 143.5t141.5 92t181.5 32.5q104 0 184 -32.5t135 -89.5t85 -136t36 -173q0 -32 -14 -45t-46 -13h-680q7 -142 78 -213t203 -71q95 0 184 21.5t154 58.5q30 17 50.5 3t32.5 -44q13 -30 5.5 -54t-38.5 -40q-37 -18 -81.5 -33t-95 -25.5 t-104 -17t-107.5 -6.5q-104 0 -183.5 31.5t-134 90.5t-83.5 143t-29 190zM262 1123q0 25 9.5 46t25.5 37t37 25.5t45 9.5q25 0 46 -9.5t37 -25.5t25.5 -37t9.5 -46q0 -24 -9.5 -45t-25.5 -37t-37 -25.5t-46 -9.5q-24 0 -45 9.5t-37 25.5t-25.5 37t-9.5 45zM295 531h575 q-20 106 -89.5 164t-194.5 58q-118 0 -192.5 -59t-98.5 -163zM675 1123q0 25 9.5 46t25.5 37t37.5 25.5t45.5 9.5t45.5 -9.5t37.5 -25.5t25 -37t9 -46q0 -24 -9 -45t-25 -37t-37.5 -25.5t-45.5 -9.5t-45.5 9.5t-37.5 25.5t-25.5 37t-9.5 45z" />
<glyph unicode="&#xec;" d="M176 64q0 36 13.5 50t45.5 14h294v613h-238q-32 0 -45.5 14t-13.5 50q0 35 13.5 49.5t45.5 14.5h320q32 0 45.5 -14.5t13.5 -49.5v-677h302q32 0 45.5 -14t13.5 -50t-13.5 -50t-45.5 -14h-737q-32 0 -45.5 14t-13.5 50zM213 1158.5q-1 11.5 4 29t20 42.5q15 27 27 40.5 t23 18t21.5 2t23.5 -9.5l391 -216q16 -9 20 -25.5t-3 -32.5q-6 -16 -19.5 -26t-31.5 -4l-452 153q-10 3 -16.5 10t-7.5 18.5z" />
<glyph unicode="&#xed;" d="M176 64q0 36 13.5 50t45.5 14h294v613h-238q-32 0 -45.5 14t-13.5 50q0 35 13.5 49.5t45.5 14.5h320q32 0 45.5 -14.5t13.5 -49.5v-677h302q32 0 45.5 -14t13.5 -50t-13.5 -50t-45.5 -14h-737q-32 0 -45.5 14t-13.5 50zM317.5 1039.5q4.5 16.5 20.5 25.5l391 216 q12 7 23 9.5t21.5 -2t23 -18t27.5 -40.5q14 -25 19 -42.5t4 -29t-7.5 -18.5t-15.5 -10l-452 -153q-18 -6 -32 4t-20 26q-7 16 -2.5 32.5z" />
<glyph unicode="&#xee;" d="M176 64q0 36 13.5 50t45.5 14h294v613h-238q-32 0 -45.5 14t-13.5 50q0 35 13.5 49.5t45.5 14.5h320q32 0 45.5 -14.5t13.5 -49.5v-677h302q32 0 45.5 -14t13.5 -50t-13.5 -50t-45.5 -14h-737q-32 0 -45.5 14t-13.5 50zM250 1028q0 17 15 30l260 219q21 16 52 16 q30 0 52 -16l260 -219q15 -13 15 -30t-9 -32q-10 -15 -25 -22t-31 3l-262 149l-262 -149q-16 -10 -31 -3t-25 22q-9 15 -9 32z" />
<glyph unicode="&#xef;" d="M176 64q0 36 13.5 50t45.5 14h294v613h-238q-32 0 -45.5 14t-13.5 50q0 35 13.5 49.5t45.5 14.5h320q32 0 45.5 -14.5t13.5 -49.5v-677h302q32 0 45.5 -14t13.5 -50t-13.5 -50t-45.5 -14h-737q-32 0 -45.5 14t-13.5 50zM253 1123q0 25 9.5 46t25.5 37t37 25.5t45 9.5 q25 0 46 -9.5t37 -25.5t25.5 -37t9.5 -46q0 -24 -9.5 -45t-25.5 -37t-37 -25.5t-46 -9.5q-24 0 -45 9.5t-37 25.5t-25.5 37t-9.5 45zM666 1123q0 25 9.5 46t25.5 37t37.5 25.5t45.5 9.5t45.5 -9.5t37.5 -25.5t25 -37t9 -46q0 -24 -9 -45t-25 -37t-37.5 -25.5t-45.5 -9.5 t-45.5 9.5t-37.5 25.5t-25.5 37t-9.5 45z" />
<glyph unicode="&#xf0;" d="M132 406q0 96 33.5 174.5t93 135t141 87t177.5 30.5q64 0 119.5 -21t104.5 -52q-38 62 -87 114.5t-109 99.5l-225 -85q-30 -11 -47.5 -2t-30.5 42t-5 51t38 30l140 52q-28 16 -56.5 31t-58.5 30q-29 14 -33.5 35t11.5 52q32 61 88 34q55 -28 107 -58t101 -65l222 84 q30 11 47.5 2t30.5 -41q14 -33 6 -51.5t-39 -29.5l-151 -57q62 -56 112.5 -122.5t86 -143.5t55 -165.5t19.5 -190.5q0 -96 -34 -174.5t-93 -135t-141 -87t-178 -30.5t-177.5 30.5t-141 87t-93 135t-33.5 174.5zM280 406q0 -65 21 -118t60 -90.5t94 -58.5t122 -21t122 21 t94 58.5t60 90.5t21 118t-21 118t-60 90.5t-94 58.5t-122 21t-122 -21t-94 -58.5t-60 -90.5t-21 -118z" />
<glyph unicode="&#xf1;" d="M72 805q0 35 14 49.5t46 14.5h168q32 0 45.5 -14.5t13.5 -49.5v-113q62 97 145 147t179 50q65 0 117 -21.5t88 -61t55.5 -96.5t19.5 -127v-455h77q32 0 45.5 -14t13.5 -50t-13.5 -50t-45.5 -14h-305q-32 0 -45.5 14t-13.5 50t13.5 50t45.5 14h87v441q0 40 -9.5 73.5 t-28.5 57.5t-47.5 37t-67.5 13q-60 0 -114.5 -26.5t-96 -73.5t-66 -111.5t-24.5 -141.5v-269h87q32 0 45.5 -14t13.5 -50t-13.5 -50t-45.5 -14h-305q-32 0 -45.5 14t-13.5 50t13.5 50t45.5 14h77v613h-95q-32 0 -46 14t-14 50zM250.5 1103q1.5 18 16.5 31q56 47 102 66 t86 19q35 0 67 -9.5t63 -20t61 -20t62 -9.5q28 0 61 10t66 29q16 10 31 4t27 -27t10.5 -39t-16.5 -31q-56 -47 -101.5 -66t-86.5 -19q-34 0 -66 9.5t-63 20t-61.5 20t-62.5 9.5q-28 0 -61 -10t-65 -29q-16 -10 -31 -4t-28 27q-12 21 -10.5 39z" />
<glyph unicode="&#xf2;" d="M113 434q0 100 35 183t97 144t147.5 94.5t184.5 33.5q100 0 185 -33.5t147 -94.5t97.5 -144t35.5 -183q0 -99 -35.5 -182.5t-97.5 -144t-147 -94.5t-185 -34q-99 0 -184.5 34t-147.5 94.5t-97 144t-35 182.5zM261 434q0 -68 23 -126t64.5 -100.5t100 -66t128.5 -23.5 q71 0 129 23.5t99.5 66t64.5 100.5t23 126q0 69 -23 127t-64.5 100t-99.5 65.5t-129 23.5q-70 0 -128.5 -23.5t-100 -65.5t-64.5 -100t-23 -127zM270 1158.5q-1 11.5 4 29t20 42.5q15 27 27 40.5t23 18t21.5 2t23.5 -9.5l391 -216q16 -9 20 -25.5t-3 -32.5q-6 -16 -19.5 -26 t-31.5 -4l-452 153q-10 3 -16.5 10t-7.5 18.5z" />
<glyph unicode="&#xf3;" d="M113 434q0 100 35 183t97 144t147.5 94.5t184.5 33.5q100 0 185 -33.5t147 -94.5t97.5 -144t35.5 -183q0 -99 -35.5 -182.5t-97.5 -144t-147 -94.5t-185 -34q-99 0 -184.5 34t-147.5 94.5t-97 144t-35 182.5zM261 434q0 -68 23 -126t64.5 -100.5t100 -66t128.5 -23.5 q71 0 129 23.5t99.5 66t64.5 100.5t23 126q0 69 -23 127t-64.5 100t-99.5 65.5t-129 23.5q-70 0 -128.5 -23.5t-100 -65.5t-64.5 -100t-23 -127zM354.5 1039.5q4.5 16.5 20.5 25.5l391 216q12 7 23 9.5t21.5 -2t23 -18t27.5 -40.5q14 -25 19 -42.5t4 -29t-7.5 -18.5 t-15.5 -10l-452 -153q-18 -6 -32 4t-20 26q-7 16 -2.5 32.5z" />
<glyph unicode="&#xf4;" d="M113 434q0 100 35 183t97 144t147.5 94.5t184.5 33.5q100 0 185 -33.5t147 -94.5t97.5 -144t35.5 -183q0 -99 -35.5 -182.5t-97.5 -144t-147 -94.5t-185 -34q-99 0 -184.5 34t-147.5 94.5t-97 144t-35 182.5zM250 1028q0 17 15 30l260 219q21 16 52 16q30 0 52 -16 l260 -219q15 -13 15 -30t-9 -32q-10 -15 -25 -22t-31 3l-262 149l-262 -149q-16 -10 -31 -3t-25 22q-9 15 -9 32zM261 434q0 -68 23 -126t64.5 -100.5t100 -66t128.5 -23.5q71 0 129 23.5t99.5 66t64.5 100.5t23 126q0 69 -23 127t-64.5 100t-99.5 65.5t-129 23.5 q-70 0 -128.5 -23.5t-100 -65.5t-64.5 -100t-23 -127z" />
<glyph unicode="&#xf5;" d="M113 434q0 100 35 183t97 144t147.5 94.5t184.5 33.5q100 0 185 -33.5t147 -94.5t97.5 -144t35.5 -183q0 -99 -35.5 -182.5t-97.5 -144t-147 -94.5t-185 -34q-99 0 -184.5 34t-147.5 94.5t-97 144t-35 182.5zM250.5 1103q1.5 18 16.5 31q56 47 102 66t86 19q35 0 67 -9.5 t63 -20t61 -20t62 -9.5q28 0 61 10t66 29q16 10 31 4t27 -27t10.5 -39t-16.5 -31q-56 -47 -101.5 -66t-86.5 -19q-34 0 -66 9.5t-63 20t-61.5 20t-62.5 9.5q-28 0 -61 -10t-65 -29q-16 -10 -31 -4t-28 27q-12 21 -10.5 39zM261 434q0 -68 23 -126t64.5 -100.5t100 -66 t128.5 -23.5q71 0 129 23.5t99.5 66t64.5 100.5t23 126q0 69 -23 127t-64.5 100t-99.5 65.5t-129 23.5q-70 0 -128.5 -23.5t-100 -65.5t-64.5 -100t-23 -127z" />
<glyph unicode="&#xf6;" d="M113 434q0 100 35 183t97 144t147.5 94.5t184.5 33.5q100 0 185 -33.5t147 -94.5t97.5 -144t35.5 -183q0 -99 -35.5 -182.5t-97.5 -144t-147 -94.5t-185 -34q-99 0 -184.5 34t-147.5 94.5t-97 144t-35 182.5zM253 1123q0 25 9.5 46t25.5 37t37 25.5t45 9.5q25 0 46 -9.5 t37 -25.5t25.5 -37t9.5 -46q0 -24 -9.5 -45t-25.5 -37t-37 -25.5t-46 -9.5q-24 0 -45 9.5t-37 25.5t-25.5 37t-9.5 45zM261 434q0 -68 23 -126t64.5 -100.5t100 -66t128.5 -23.5q71 0 129 23.5t99.5 66t64.5 100.5t23 126q0 69 -23 127t-64.5 100t-99.5 65.5t-129 23.5 q-70 0 -128.5 -23.5t-100 -65.5t-64.5 -100t-23 -127zM666 1123q0 25 9.5 46t25.5 37t37.5 25.5t45.5 9.5t45.5 -9.5t37.5 -25.5t25 -37t9 -46q0 -24 -9 -45t-25 -37t-37.5 -25.5t-45.5 -9.5t-45.5 9.5t-37.5 25.5t-25.5 37t-9.5 45z" />
<glyph unicode="&#xf7;" d="M160 547q0 36 13.5 50t45.5 14h716q32 0 46 -14t14 -50t-14 -50t-46 -14h-716q-32 0 -45.5 14t-13.5 50zM464 225q0 23 9 43.5t24 36t35.5 24t43.5 8.5q24 0 44 -8.5t35.5 -24t24.5 -36t9 -43.5q0 -24 -9 -44t-24.5 -35t-35.5 -24t-44 -9q-23 0 -43.5 9t-35.5 24t-24 35 t-9 44zM464 870q0 23 9 43t24 35.5t35.5 24.5t43.5 9q24 0 44 -9t35.5 -24.5t24.5 -35.5t9 -43q0 -24 -9 -44t-24.5 -35t-35.5 -24t-44 -9q-23 0 -43.5 9t-35.5 24t-24 35t-9 44z" />
<glyph unicode="&#xf8;" d="M106.5 51q-0.5 21 23.5 44l68 66q-41 56 -63 124.5t-22 148.5q0 100 35 183t97 144t147.5 94.5t184.5 33.5q83 0 155 -23.5t130 -65.5l70 68q24 22 45 20.5t46 -25.5q24 -25 24.5 -46.5t-23.5 -43.5l-69 -66q41 -57 64 -125t23 -148q0 -99 -35.5 -182.5t-97.5 -144 t-147 -94.5t-185 -34q-83 0 -155 23t-131 67l-70 -68q-24 -23 -44.5 -21.5t-44.5 26.5q-25 24 -25.5 45zM261 434q0 -49 11.5 -91.5t33.5 -78.5l452 435q-38 25 -83 38t-98 13q-70 0 -128.5 -23.5t-100 -65.5t-64.5 -100t-23 -127zM396 169q37 -24 82.5 -37.5t98.5 -13.5 q71 0 129 23.5t99.5 66t64.5 100.5t23 126q0 48 -11.5 91t-32.5 79z" />
<glyph unicode="&#xf9;" d="M68 805q0 35 13.5 49.5t45.5 14.5h159q32 0 45.5 -14.5t13.5 -49.5v-505q0 -41 9.5 -74t28 -57t47.5 -37.5t67 -13.5q60 0 114.5 26.5t96 73.5t66 112t24.5 142v269h-133q-32 0 -46 14t-14 50q0 35 14 49.5t46 14.5h215q32 0 45.5 -14.5t13.5 -49.5v-677h77 q32 0 45.5 -14t13.5 -50t-13.5 -50t-45.5 -14h-149q-32 0 -46 13.5t-14 49.5v114q-62 -97 -144.5 -147.5t-179.5 -50.5q-65 0 -116.5 22t-87.5 61.5t-55.5 96t-19.5 127.5v455h-77q-32 0 -45.5 14t-13.5 50zM260 1158.5q-1 11.5 4 29t20 42.5q15 27 27 40.5t23 18t21.5 2 t23.5 -9.5l391 -216q16 -9 20 -25.5t-3 -32.5q-6 -16 -19.5 -26t-31.5 -4l-452 153q-10 3 -16.5 10t-7.5 18.5z" />
<glyph unicode="&#xfa;" d="M68 805q0 35 13.5 49.5t45.5 14.5h159q32 0 45.5 -14.5t13.5 -49.5v-505q0 -41 9.5 -74t28 -57t47.5 -37.5t67 -13.5q60 0 114.5 26.5t96 73.5t66 112t24.5 142v269h-133q-32 0 -46 14t-14 50q0 35 14 49.5t46 14.5h215q32 0 45.5 -14.5t13.5 -49.5v-677h77 q32 0 45.5 -14t13.5 -50t-13.5 -50t-45.5 -14h-149q-32 0 -46 13.5t-14 49.5v114q-62 -97 -144.5 -147.5t-179.5 -50.5q-65 0 -116.5 22t-87.5 61.5t-55.5 96t-19.5 127.5v455h-77q-32 0 -45.5 14t-13.5 50zM373.5 1039.5q4.5 16.5 20.5 25.5l391 216q12 7 23 9.5t21.5 -2 t23 -18t27.5 -40.5q14 -25 19 -42.5t4 -29t-7.5 -18.5t-15.5 -10l-452 -153q-18 -6 -32 4t-20 26q-7 16 -2.5 32.5z" />
<glyph unicode="&#xfb;" d="M68 805q0 35 13.5 49.5t45.5 14.5h159q32 0 45.5 -14.5t13.5 -49.5v-505q0 -41 9.5 -74t28 -57t47.5 -37.5t67 -13.5q60 0 114.5 26.5t96 73.5t66 112t24.5 142v269h-133q-32 0 -46 14t-14 50q0 35 14 49.5t46 14.5h215q32 0 45.5 -14.5t13.5 -49.5v-677h77 q32 0 45.5 -14t13.5 -50t-13.5 -50t-45.5 -14h-149q-32 0 -46 13.5t-14 49.5v114q-62 -97 -144.5 -147.5t-179.5 -50.5q-65 0 -116.5 22t-87.5 61.5t-55.5 96t-19.5 127.5v455h-77q-32 0 -45.5 14t-13.5 50zM241 1028q0 17 15 30l260 219q21 16 52 16q30 0 52 -16l260 -219 q15 -13 15 -30t-9 -32q-10 -15 -25 -22t-31 3l-262 149l-262 -149q-16 -10 -31 -3t-25 22q-9 15 -9 32z" />
<glyph unicode="&#xfc;" d="M68 805q0 35 13.5 49.5t45.5 14.5h159q32 0 45.5 -14.5t13.5 -49.5v-505q0 -41 9.5 -74t28 -57t47.5 -37.5t67 -13.5q60 0 114.5 26.5t96 73.5t66 112t24.5 142v269h-133q-32 0 -46 14t-14 50q0 35 14 49.5t46 14.5h215q32 0 45.5 -14.5t13.5 -49.5v-677h77 q32 0 45.5 -14t13.5 -50t-13.5 -50t-45.5 -14h-149q-32 0 -46 13.5t-14 49.5v114q-62 -97 -144.5 -147.5t-179.5 -50.5q-65 0 -116.5 22t-87.5 61.5t-55.5 96t-19.5 127.5v455h-77q-32 0 -45.5 14t-13.5 50zM234 1123q0 25 9.5 46t25.5 37t37 25.5t45 9.5q25 0 46 -9.5 t37 -25.5t25.5 -37t9.5 -46q0 -24 -9.5 -45t-25.5 -37t-37 -25.5t-46 -9.5q-24 0 -45 9.5t-37 25.5t-25.5 37t-9.5 45zM647 1123q0 25 9.5 46t25.5 37t37.5 25.5t45.5 9.5t45.5 -9.5t37.5 -25.5t25 -37t9 -46q0 -24 -9 -45t-25 -37t-37.5 -25.5t-45.5 -9.5t-45.5 9.5 t-37.5 25.5t-25.5 37t-9.5 45z" />
<glyph unicode="&#xfd;" d="M47 805q0 35 13.5 49.5t45.5 14.5h333q32 0 45.5 -14.5t13.5 -49.5q0 -36 -13.5 -50t-45.5 -14h-120l265 -529l253 529h-84q-32 0 -45.5 14t-13.5 50q0 35 13.5 49.5t45.5 14.5h295q32 0 45.5 -14.5t13.5 -49.5q0 -36 -13.5 -50t-45.5 -14h-58l-385 -788 q-45 -92 -88 -156t-93 -104.5t-109.5 -59.5t-136.5 -22q-28 -1 -46 12t-22 51q-4 41 9.5 59t39.5 20q65 4 110.5 17.5t83 47t73.5 93.5t83 155l-344 675h-59q-32 0 -45.5 14t-13.5 50zM383.5 1039.5q4.5 16.5 20.5 25.5l391 216q12 7 23 9.5t21.5 -2t23 -18t27.5 -40.5 q14 -25 19 -42.5t4 -29t-7.5 -18.5t-15.5 -10l-452 -153q-18 -6 -32 4t-20 26q-7 16 -2.5 32.5z" />
<glyph unicode="&#xfe;" d="M25 -306q0 36 14 50t46 14h105v1347h-77q-32 0 -45.5 14.5t-13.5 49.5q0 36 13.5 50t45.5 14h159q32 0 45.5 -14t13.5 -50v-424q57 70 132 107t166 37q87 0 161.5 -29.5t128.5 -85t85 -135.5t31 -181q0 -102 -31 -182t-85 -135t-128.5 -85t-161.5 -30q-94 0 -168 38 t-130 109v-415h209q32 0 45.5 -14t13.5 -50q0 -35 -13.5 -49t-45.5 -14h-455q-32 0 -46 14t-14 49zM331 458q0 -70 21.5 -124.5t60 -91.5t91.5 -57t115 -20q64 0 114 22t84 61t51.5 92.5t17.5 117.5t-17.5 117.5t-51.5 92.5t-84 60.5t-114 21.5q-62 0 -115 -19.5t-91.5 -57 t-60 -92t-21.5 -123.5z" />
<glyph unicode="&#xff;" d="M47 805q0 35 13.5 49.5t45.5 14.5h333q32 0 45.5 -14.5t13.5 -49.5q0 -36 -13.5 -50t-45.5 -14h-120l265 -529l253 529h-84q-32 0 -45.5 14t-13.5 50q0 35 13.5 49.5t45.5 14.5h295q32 0 45.5 -14.5t13.5 -49.5q0 -36 -13.5 -50t-45.5 -14h-58l-385 -788 q-45 -92 -88 -156t-93 -104.5t-109.5 -59.5t-136.5 -22q-28 -1 -46 12t-22 51q-4 41 9.5 59t39.5 20q65 4 110.5 17.5t83 47t73.5 93.5t83 155l-344 675h-59q-32 0 -45.5 14t-13.5 50zM253 1123q0 25 9.5 46t25.5 37t37 25.5t45 9.5q25 0 46 -9.5t37 -25.5t25.5 -37t9.5 -46 q0 -24 -9.5 -45t-25.5 -37t-37 -25.5t-46 -9.5q-24 0 -45 9.5t-37 25.5t-25.5 37t-9.5 45zM666 1123q0 25 9.5 46t25.5 37t37.5 25.5t45.5 9.5t45.5 -9.5t37.5 -25.5t25 -37t9 -46q0 -24 -9 -45t-25 -37t-37.5 -25.5t-45.5 -9.5t-45.5 9.5t-37.5 25.5t-25.5 37t-9.5 45z" />
<glyph unicode="&#x100;" d="M9 64q0 36 14 50t46 14h52l311 860h-175q-32 0 -46 14t-14 50t14 50t46 14h345q37 0 60 -14t35 -47l331 -927h58q32 0 45.5 -14t13.5 -50t-13.5 -50t-45.5 -14h-333q-32 0 -45.5 14t-13.5 50t13.5 50t45.5 14h127l-77 224h-456l-78 -224h114q32 0 45.5 -14t13.5 -50 t-13.5 -50t-45.5 -14h-314q-32 0 -46 14t-14 50zM207 1361q0 36 13.5 50t45.5 14h528q32 0 46 -14t14 -50q0 -35 -14 -49.5t-46 -14.5h-528q-32 0 -45.5 14.5t-13.5 49.5zM391 479h369l-175 509h-18z" />
<glyph unicode="&#x101;" d="M127 254q0 79 30.5 134.5t82.5 89.5t121.5 50t146.5 16q76 0 147.5 -12t137.5 -36v80q0 91 -43.5 134t-149.5 43q-76 0 -153 -20t-136 -63q-21 -16 -44 -11t-43 34q-21 29 -16.5 52t25.5 39q37 27 81 47.5t91.5 33t97 18.5t97.5 6q168 0 251 -79t83 -234v-374 q0 -74 62 -74h33q32 0 46 -14t14 -50t-14 -50t-46 -14h-60q-29 0 -55.5 7t-47.5 22t-36.5 37.5t-22.5 53.5q-74 -65 -163 -103t-194 -38q-70 0 -129.5 18.5t-102.5 53.5t-67 86t-24 117zM254 1107q0 36 13.5 50t45.5 14h528q32 0 46 -14t14 -50q0 -35 -14 -49.5t-46 -14.5 h-528q-32 0 -45.5 14.5t-13.5 49.5zM275 257q0 -69 47.5 -107t133.5 -38q100 0 184 42t153 113v102q-65 22 -138 32.5t-146 10.5q-51 0 -94 -8.5t-74 -27t-48.5 -48t-17.5 -71.5z" />
<glyph unicode="&#x102;" d="M9 64q0 36 14 50t46 14h52l311 860h-175q-32 0 -46 14t-14 50t14 50t46 14h345q37 0 60 -14t35 -47l331 -927h58q32 0 45.5 -14t13.5 -50t-13.5 -50t-45.5 -14h-333q-32 0 -45.5 14t-13.5 50t13.5 50t45.5 14h127l-77 224h-456l-78 -224h114q32 0 45.5 -14t13.5 -50 t-13.5 -50t-45.5 -14h-314q-32 0 -46 14t-14 50zM204 1474q-3 12 2 22.5t15 18t22.5 12t25.5 4.5q12 0 22 -4.5t14 -14.5q33 -64 94.5 -90t158.5 -26t158.5 26t94.5 90q5 10 14.5 14.5t22.5 4.5q12 0 24.5 -4.5t22.5 -12t15 -18t3 -22.5q-12 -49 -41.5 -88.5t-74.5 -67 t-105.5 -42.5t-133.5 -15t-133 15t-105.5 42.5t-75 67t-40.5 88.5zM391 479h369l-175 509h-18z" />
<glyph unicode="&#x103;" d="M127 254q0 79 30.5 134.5t82.5 89.5t121.5 50t146.5 16q76 0 147.5 -12t137.5 -36v80q0 91 -43.5 134t-149.5 43q-76 0 -153 -20t-136 -63q-21 -16 -44 -11t-43 34q-21 29 -16.5 52t25.5 39q37 27 81 47.5t91.5 33t97 18.5t97.5 6q168 0 251 -79t83 -234v-374 q0 -74 62 -74h33q32 0 46 -14t14 -50t-14 -50t-46 -14h-60q-29 0 -55.5 7t-47.5 22t-36.5 37.5t-22.5 53.5q-74 -65 -163 -103t-194 -38q-70 0 -129.5 18.5t-102.5 53.5t-67 86t-24 117zM226 1220q-3 12 2 22.5t15 18t22.5 12t25.5 4.5q12 0 22 -4.5t14 -14.5 q33 -64 94.5 -90t158.5 -26t158.5 26t94.5 90q5 10 14.5 14.5t22.5 4.5q12 0 24.5 -4.5t22.5 -12t15 -18t3 -22.5q-12 -49 -41.5 -88.5t-74.5 -67t-105.5 -42.5t-133.5 -15t-133 15t-105.5 42.5t-75 67t-40.5 88.5zM275 257q0 -69 47.5 -107t133.5 -38q100 0 184 42t153 113 v102q-65 22 -138 32.5t-146 10.5q-51 0 -94 -8.5t-74 -27t-48.5 -48t-17.5 -71.5z" />
<glyph unicode="&#x104;" d="M9 64q0 36 14 50t46 14h52l311 860h-175q-32 0 -46 14t-14 50t14 50t46 14h345q37 0 60 -14t35 -47l331 -927h58q32 0 45.5 -14t13.5 -50t-13.5 -50t-45.5 -14h-59q-83 -78 -119.5 -136t-36.5 -109q0 -35 20.5 -53t52.5 -18q27 0 54.5 2.5t51.5 7.5q19 2 31 -8.5 t16 -37.5q5 -29 -2 -44.5t-28 -22.5q-33 -12 -71.5 -18.5t-82.5 -6.5q-89 0 -138.5 48.5t-49.5 131.5q0 72 41.5 137t112.5 127h-126q-32 0 -45.5 14t-13.5 50t13.5 50t45.5 14h127l-77 224h-456l-78 -224h114q32 0 45.5 -14t13.5 -50t-13.5 -50t-45.5 -14h-314 q-32 0 -46 14t-14 50zM391 479h369l-175 509h-18z" />
<glyph unicode="&#x105;" d="M127 254q0 79 30.5 134.5t82.5 89.5t121.5 50t146.5 16q76 0 147.5 -12t137.5 -36v80q0 91 -43.5 134t-149.5 43q-76 0 -153 -20t-136 -63q-21 -16 -44 -11t-43 34q-21 29 -16.5 52t25.5 39q37 27 81 47.5t91.5 33t97 18.5t97.5 6q168 0 251 -79t83 -234v-374 q0 -74 62 -74h33q32 0 46 -14t14 -50t-14 -50t-46 -14h-20q-84 -78 -120 -136t-36 -109q0 -35 20 -53t52 -18q27 0 54.5 2.5t51.5 7.5q19 2 31 -8.5t16 -37.5q5 -29 -2 -44.5t-28 -22.5q-33 -12 -71.5 -18.5t-82.5 -6.5q-88 0 -138 48.5t-50 131.5q0 78 48.5 147t128.5 136 q-28 14 -48 39t-28 62q-74 -65 -163 -103t-194 -38q-70 0 -129.5 18.5t-102.5 53.5t-67 86t-24 117zM275 257q0 -69 47.5 -107t133.5 -38q100 0 184 42t153 113v102q-65 22 -138 32.5t-146 10.5q-51 0 -94 -8.5t-74 -27t-48.5 -48t-17.5 -71.5z" />
<glyph unicode="&#x106;" d="M111 557q0 131 35 237.5t99.5 183t154 117.5t196.5 41q91 0 158.5 -30.5t114.5 -84.5v54q0 33 15.5 47t54.5 14q40 0 55.5 -14t15.5 -47v-310q0 -33 -15.5 -47t-55.5 -14q-39 0 -54.5 14t-15.5 47q0 46 -15.5 88.5t-48 74.5t-82.5 50.5t-118 18.5q-76 0 -140 -30.5 t-109.5 -87.5t-71 -138.5t-25.5 -183.5q0 -101 24 -182.5t68 -138t106.5 -87.5t138.5 -31q94 0 178 27t152 80q19 15 41.5 13t42.5 -37q20 -33 16.5 -57t-28.5 -42q-89 -62 -191.5 -92.5t-210.5 -30.5q-111 0 -200.5 41.5t-152.5 117t-97.5 182.5t-34.5 237zM392.5 1293.5 q4.5 16.5 20.5 25.5l391 216q12 7 23 9.5t21.5 -2t23 -18t27.5 -40.5q14 -25 19 -42.5t4 -29t-7.5 -18.5t-15.5 -10l-452 -153q-18 -6 -32 4t-20 26q-7 16 -2.5 32.5z" />
<glyph unicode="&#x107;" d="M119 434q0 98 33 181t93 144.5t143 95.5t184 34q86 0 155.5 -30.5t117.5 -86.5v56q0 33 15.5 47t55.5 14q39 0 54.5 -14t15.5 -47v-272q0 -33 -15.5 -47.5t-54.5 -14.5q-40 0 -55.5 14.5t-15.5 47.5q0 42 -17 77.5t-50.5 61.5t-82 40.5t-113.5 14.5q-69 0 -126.5 -23.5 t-99 -65.5t-65 -100t-23.5 -127q0 -68 21.5 -126t61.5 -100.5t96.5 -66t124.5 -23.5q87 0 168 26.5t148 78.5q25 19 46.5 14t41.5 -38q16 -25 13.5 -52.5t-29.5 -46.5q-76 -57 -177.5 -89t-210.5 -32q-103 0 -186.5 34.5t-143 95.5t-91.5 144.5t-32 180.5zM372.5 1039.5 q4.5 16.5 20.5 25.5l391 216q12 7 23 9.5t21.5 -2t23 -18t27.5 -40.5q14 -25 19 -42.5t4 -29t-7.5 -18.5t-15.5 -10l-452 -153q-18 -6 -32 4t-20 26q-7 16 -2.5 32.5z" />
<glyph unicode="&#x108;" d="M111 557q0 131 35 237.5t99.5 183t154 117.5t196.5 41q91 0 158.5 -30.5t114.5 -84.5v54q0 33 15.5 47t54.5 14q40 0 55.5 -14t15.5 -47v-310q0 -33 -15.5 -47t-55.5 -14q-39 0 -54.5 14t-15.5 47q0 46 -15.5 88.5t-48 74.5t-82.5 50.5t-118 18.5q-76 0 -140 -30.5 t-109.5 -87.5t-71 -138.5t-25.5 -183.5q0 -101 24 -182.5t68 -138t106.5 -87.5t138.5 -31q94 0 178 27t152 80q19 15 41.5 13t42.5 -37q20 -33 16.5 -57t-28.5 -42q-89 -62 -191.5 -92.5t-210.5 -30.5q-111 0 -200.5 41.5t-152.5 117t-97.5 182.5t-34.5 237zM288 1282 q0 17 15 30l260 219q21 16 52 16q30 0 52 -16l260 -219q15 -13 15 -30t-9 -32q-10 -15 -25 -22t-31 3l-262 149l-262 -149q-16 -10 -31 -3t-25 22q-9 15 -9 32z" />
<glyph unicode="&#x109;" d="M119 434q0 98 33 181t93 144.5t143 95.5t184 34q86 0 155.5 -30.5t117.5 -86.5v56q0 33 15.5 47t55.5 14q39 0 54.5 -14t15.5 -47v-272q0 -33 -15.5 -47.5t-54.5 -14.5q-40 0 -55.5 14.5t-15.5 47.5q0 42 -17 77.5t-50.5 61.5t-82 40.5t-113.5 14.5q-69 0 -126.5 -23.5 t-99 -65.5t-65 -100t-23.5 -127q0 -68 21.5 -126t61.5 -100.5t96.5 -66t124.5 -23.5q87 0 168 26.5t148 78.5q25 19 46.5 14t41.5 -38q16 -25 13.5 -52.5t-29.5 -46.5q-76 -57 -177.5 -89t-210.5 -32q-103 0 -186.5 34.5t-143 95.5t-91.5 144.5t-32 180.5zM259 1028 q0 17 15 30l260 219q21 16 52 16q30 0 52 -16l260 -219q15 -13 15 -30t-9 -32q-10 -15 -25 -22t-31 3l-262 149l-262 -149q-16 -10 -31 -3t-25 22q-9 15 -9 32z" />
<glyph unicode="&#x10a;" d="M111 557q0 131 35 237.5t99.5 183t154 117.5t196.5 41q91 0 158.5 -30.5t114.5 -84.5v54q0 33 15.5 47t54.5 14q40 0 55.5 -14t15.5 -47v-310q0 -33 -15.5 -47t-55.5 -14q-39 0 -54.5 14t-15.5 47q0 46 -15.5 88.5t-48 74.5t-82.5 50.5t-118 18.5q-76 0 -140 -30.5 t-109.5 -87.5t-71 -138.5t-25.5 -183.5q0 -101 24 -182.5t68 -138t106.5 -87.5t138.5 -31q94 0 178 27t152 80q19 15 41.5 13t42.5 -37q20 -33 16.5 -57t-28.5 -42q-89 -62 -191.5 -92.5t-210.5 -30.5q-111 0 -200.5 41.5t-152.5 117t-97.5 182.5t-34.5 237zM464 1401 q0 27 10 51.5t28 42.5t42.5 28t51.5 10t51.5 -10t42.5 -28t28.5 -42.5t10.5 -51.5t-10.5 -51.5t-28.5 -42.5t-42.5 -28.5t-51.5 -10.5t-51.5 10.5t-42.5 28.5t-28 42.5t-10 51.5z" />
<glyph unicode="&#x10b;" d="M119 434q0 98 33 181t93 144.5t143 95.5t184 34q86 0 155.5 -30.5t117.5 -86.5v56q0 33 15.5 47t55.5 14q39 0 54.5 -14t15.5 -47v-272q0 -33 -15.5 -47.5t-54.5 -14.5q-40 0 -55.5 14.5t-15.5 47.5q0 42 -17 77.5t-50.5 61.5t-82 40.5t-113.5 14.5q-69 0 -126.5 -23.5 t-99 -65.5t-65 -100t-23.5 -127q0 -68 21.5 -126t61.5 -100.5t96.5 -66t124.5 -23.5q87 0 168 26.5t148 78.5q25 19 46.5 14t41.5 -38q16 -25 13.5 -52.5t-29.5 -46.5q-76 -57 -177.5 -89t-210.5 -32q-103 0 -186.5 34.5t-143 95.5t-91.5 144.5t-32 180.5zM454 1147 q0 27 10 51.5t28 42.5t42.5 28t51.5 10t51.5 -10t42.5 -28t28.5 -42.5t10.5 -51.5t-10.5 -51.5t-28.5 -42.5t-42.5 -28.5t-51.5 -10.5t-51.5 10.5t-42.5 28.5t-28 42.5t-10 51.5z" />
<glyph unicode="&#x10c;" d="M111 557q0 131 35 237.5t99.5 183t154 117.5t196.5 41q91 0 158.5 -30.5t114.5 -84.5v54q0 33 15.5 47t54.5 14q40 0 55.5 -14t15.5 -47v-310q0 -33 -15.5 -47t-55.5 -14q-39 0 -54.5 14t-15.5 47q0 46 -15.5 88.5t-48 74.5t-82.5 50.5t-118 18.5q-76 0 -140 -30.5 t-109.5 -87.5t-71 -138.5t-25.5 -183.5q0 -101 24 -182.5t68 -138t106.5 -87.5t138.5 -31q94 0 178 27t152 80q19 15 41.5 13t42.5 -37q20 -33 16.5 -57t-28.5 -42q-89 -62 -191.5 -92.5t-210.5 -30.5q-111 0 -200.5 41.5t-152.5 117t-97.5 182.5t-34.5 237zM278 1494 q0 17 9 32q10 15 25 22t31 -2l262 -150l262 150q16 9 31 2t25 -22q9 -15 9 -32t-15 -30l-260 -218q-22 -17 -52 -17q-31 0 -52 17l-260 218q-15 13 -15 30z" />
<glyph unicode="&#x10d;" d="M119 434q0 98 33 181t93 144.5t143 95.5t184 34q86 0 155.5 -30.5t117.5 -86.5v56q0 33 15.5 47t55.5 14q39 0 54.5 -14t15.5 -47v-272q0 -33 -15.5 -47.5t-54.5 -14.5q-40 0 -55.5 14.5t-15.5 47.5q0 42 -17 77.5t-50.5 61.5t-82 40.5t-113.5 14.5q-69 0 -126.5 -23.5 t-99 -65.5t-65 -100t-23.5 -127q0 -68 21.5 -126t61.5 -100.5t96.5 -66t124.5 -23.5q87 0 168 26.5t148 78.5q25 19 46.5 14t41.5 -38q16 -25 13.5 -52.5t-29.5 -46.5q-76 -57 -177.5 -89t-210.5 -32q-103 0 -186.5 34.5t-143 95.5t-91.5 144.5t-32 180.5zM259 1249 q0 17 9 32q10 15 25 22t31 -2l262 -150l262 150q16 9 31 2t25 -22q9 -15 9 -32t-15 -30l-260 -218q-22 -17 -52 -17q-31 0 -52 17l-260 218q-15 13 -15 30z" />
<glyph unicode="&#x10e;" d="M75 64q0 36 13.5 50t45.5 14h106v860h-106q-32 0 -45.5 14t-13.5 50t13.5 50t45.5 14h443q111 0 202 -38.5t156 -110.5t101 -175.5t36 -234.5q0 -130 -36 -233.5t-101 -175.5t-156 -110t-202 -38h-443q-32 0 -45.5 14t-13.5 50zM222 1484q0 17 9 32q10 15 25 22t31 -2 l262 -150l262 150q16 9 31 2t25 -22q9 -15 9 -32t-15 -30l-260 -218q-22 -17 -52 -17q-31 0 -52 17l-260 218q-15 13 -15 30zM381 128h175q83 0 151 27.5t115.5 81.5t74 134.5t26.5 185.5q0 106 -26.5 186t-74 134.5t-115.5 82.5t-151 28h-175v-860z" />
<glyph unicode="&#x10f;" d="M119 411q0 101 27.5 181t76 135.5t114 85t141.5 29.5q86 0 147.5 -35t103.5 -97v395h-171q-32 0 -45.5 14.5t-13.5 49.5q0 36 13.5 50t45.5 14h253q32 0 45.5 -14t13.5 -50v-1041h78q31 0 45 -14t14 -50t-14 -50t-45 -14h-150q-32 0 -45.5 14t-13.5 50v66 q-42 -67 -105.5 -109t-155.5 -42q-76 0 -141.5 30t-114 85t-76 135t-27.5 182zM268 411q0 -64 14.5 -117.5t42 -92.5t68.5 -61t95 -22q55 0 100 20t76.5 57t48 91.5t16.5 124.5q0 69 -16.5 123.5t-48 92t-76.5 57t-100 19.5q-54 0 -95 -21.5t-68.5 -60.5t-42 -92.5 t-14.5 -117.5zM995 863l78 340q7 30 39 30h134q18 0 24.5 -13.5t-4.5 -34.5l-167 -342q-16 -33 -56 -33q-26 0 -39.5 14t-8.5 39z" />
<glyph unicode="&#x110;" d="M75 64q0 36 13.5 50t45.5 14h106v860h-106q-32 0 -45.5 14t-13.5 50t13.5 50t45.5 14h443q111 0 202 -38.5t156 -110.5t101 -175.5t36 -234.5q0 -130 -36 -233.5t-101 -175.5t-156 -110t-202 -38h-443q-32 0 -45.5 14t-13.5 50zM226 1361q0 36 13.5 50t45.5 14h528 q32 0 46 -14t14 -50q0 -35 -14 -49.5t-46 -14.5h-528q-32 0 -45.5 14.5t-13.5 49.5zM381 128h175q83 0 151 27.5t115.5 81.5t74 134.5t26.5 185.5q0 106 -26.5 186t-74 134.5t-115.5 82.5t-151 28h-175v-860z" />
<glyph unicode="&#x111;" d="M119 411q0 101 31 181t85.5 135.5t128.5 85t161 29.5q94 0 168 -38t130 -108v216h-284q-32 0 -46 14t-14 50q0 35 14 49.5t46 14.5h284v65h-189q-32 0 -46 14.5t-14 49.5q0 36 14 50t46 14h271q32 0 45.5 -14t13.5 -50v-129h103q32 0 45.5 -14.5t13.5 -49.5 q0 -36 -13.5 -50t-45.5 -14h-103v-784h78q31 0 45 -14t14 -50t-14 -50t-45 -14h-150q-32 0 -45.5 14t-13.5 50v75q-58 -76 -136 -118t-172 -42q-87 0 -161 30t-128.5 85t-85.5 135t-31 182zM268 411q0 -64 18 -117.5t51.5 -92.5t83.5 -61t114 -22q62 0 115 20t91.5 57 t60 91.5t21.5 124.5q0 69 -21.5 123.5t-60 92t-91.5 57t-115 19.5q-64 0 -114 -21.5t-83.5 -60.5t-51.5 -92.5t-18 -117.5z" />
<glyph unicode="&#x112;" d="M75 64q0 36 13.5 50t45.5 14h96v860h-96q-32 0 -45.5 14t-13.5 50t13.5 50t45.5 14h822q32 0 45.5 -14t13.5 -50v-239q0 -33 -15.5 -47t-54.5 -14q-40 0 -55.5 14t-15.5 47v175h-503v-349h235v86q0 33 15.5 47t55.5 14q39 0 54.5 -14t15.5 -47v-299q0 -33 -15.5 -47 t-54.5 -14q-40 0 -55.5 14t-15.5 47v85h-235v-383h522v215q0 33 15.5 47t55.5 14q39 0 54.5 -14t15.5 -47v-279q0 -36 -13.5 -50t-45.5 -14h-841q-32 0 -45.5 14t-13.5 50zM274 1361q0 36 13.5 50t45.5 14h528q32 0 46 -14t14 -50q0 -35 -14 -49.5t-46 -14.5h-528 q-32 0 -45.5 14.5t-13.5 49.5z" />
<glyph unicode="&#x113;" d="M137 434q0 103 33.5 187t92.5 143.5t141.5 92t181.5 32.5q104 0 184 -32.5t135 -89.5t85 -136t36 -173q0 -32 -14 -45t-46 -13h-680q7 -142 78 -213t203 -71q95 0 184 21.5t154 58.5q30 17 50.5 3t32.5 -44q13 -30 5.5 -54t-38.5 -40q-37 -18 -81.5 -33t-95 -25.5 t-104 -17t-107.5 -6.5q-104 0 -183.5 31.5t-134 90.5t-83.5 143t-29 190zM273 1107q0 36 13.5 50t45.5 14h528q32 0 46 -14t14 -50q0 -35 -14 -49.5t-46 -14.5h-528q-32 0 -45.5 14.5t-13.5 49.5zM295 531h575q-20 106 -89.5 164t-194.5 58q-118 0 -192.5 -59t-98.5 -163z " />
<glyph unicode="&#x114;" d="M75 64q0 36 13.5 50t45.5 14h96v860h-96q-32 0 -45.5 14t-13.5 50t13.5 50t45.5 14h822q32 0 45.5 -14t13.5 -50v-239q0 -33 -15.5 -47t-54.5 -14q-40 0 -55.5 14t-15.5 47v175h-503v-349h235v86q0 33 15.5 47t55.5 14q39 0 54.5 -14t15.5 -47v-299q0 -33 -15.5 -47 t-54.5 -14q-40 0 -55.5 14t-15.5 47v85h-235v-383h522v215q0 33 15.5 47t55.5 14q39 0 54.5 -14t15.5 -47v-279q0 -36 -13.5 -50t-45.5 -14h-841q-32 0 -45.5 14t-13.5 50zM223 1474q-3 12 2 22.5t15 18t22.5 12t25.5 4.5q12 0 22 -4.5t14 -14.5q33 -64 94.5 -90t158.5 -26 t158.5 26t94.5 90q5 10 14.5 14.5t22.5 4.5q12 0 24.5 -4.5t22.5 -12t15 -18t3 -22.5q-12 -49 -41.5 -88.5t-74.5 -67t-105.5 -42.5t-133.5 -15t-133 15t-105.5 42.5t-75 67t-40.5 88.5z" />
<glyph unicode="&#x115;" d="M137 434q0 103 33.5 187t92.5 143.5t141.5 92t181.5 32.5q104 0 184 -32.5t135 -89.5t85 -136t36 -173q0 -32 -14 -45t-46 -13h-680q7 -142 78 -213t203 -71q95 0 184 21.5t154 58.5q30 17 50.5 3t32.5 -44q13 -30 5.5 -54t-38.5 -40q-37 -18 -81.5 -33t-95 -25.5 t-104 -17t-107.5 -6.5q-104 0 -183.5 31.5t-134 90.5t-83.5 143t-29 190zM242 1220q-3 12 2 22.5t15 18t22.5 12t25.5 4.5q12 0 22 -4.5t14 -14.5q33 -64 94.5 -90t158.5 -26t158.5 26t94.5 90q5 10 14.5 14.5t22.5 4.5q12 0 24.5 -4.5t22.5 -12t15 -18t3 -22.5 q-12 -49 -41.5 -88.5t-74.5 -67t-105.5 -42.5t-133.5 -15t-133 15t-105.5 42.5t-75 67t-40.5 88.5zM295 531h575q-20 106 -89.5 164t-194.5 58q-118 0 -192.5 -59t-98.5 -163z" />
<glyph unicode="&#x116;" d="M75 64q0 36 13.5 50t45.5 14h96v860h-96q-32 0 -45.5 14t-13.5 50t13.5 50t45.5 14h822q32 0 45.5 -14t13.5 -50v-239q0 -33 -15.5 -47t-54.5 -14q-40 0 -55.5 14t-15.5 47v175h-503v-349h235v86q0 33 15.5 47t55.5 14q39 0 54.5 -14t15.5 -47v-299q0 -33 -15.5 -47 t-54.5 -14q-40 0 -55.5 14t-15.5 47v85h-235v-383h522v215q0 33 15.5 47t55.5 14q39 0 54.5 -14t15.5 -47v-279q0 -36 -13.5 -50t-45.5 -14h-841q-32 0 -45.5 14t-13.5 50zM445 1401q0 27 10 51.5t28 42.5t42.5 28t51.5 10t51.5 -10t42.5 -28t28.5 -42.5t10.5 -51.5 t-10.5 -51.5t-28.5 -42.5t-42.5 -28.5t-51.5 -10.5t-51.5 10.5t-42.5 28.5t-28 42.5t-10 51.5z" />
<glyph unicode="&#x117;" d="M137 434q0 103 33.5 187t92.5 143.5t141.5 92t181.5 32.5q104 0 184 -32.5t135 -89.5t85 -136t36 -173q0 -32 -14 -45t-46 -13h-680q7 -142 78 -213t203 -71q95 0 184 21.5t154 58.5q30 17 50.5 3t32.5 -44q13 -30 5.5 -54t-38.5 -40q-37 -18 -81.5 -33t-95 -25.5 t-104 -17t-107.5 -6.5q-104 0 -183.5 31.5t-134 90.5t-83.5 143t-29 190zM295 531h575q-20 106 -89.5 164t-194.5 58q-118 0 -192.5 -59t-98.5 -163zM464 1147q0 27 10 51.5t28 42.5t42.5 28t51.5 10t51.5 -10t42.5 -28t28.5 -42.5t10.5 -51.5t-10.5 -51.5t-28.5 -42.5 t-42.5 -28.5t-51.5 -10.5t-51.5 10.5t-42.5 28.5t-28 42.5t-10 51.5z" />
<glyph unicode="&#x118;" d="M75 64q0 36 13.5 50t45.5 14h96v860h-96q-32 0 -45.5 14t-13.5 50t13.5 50t45.5 14h822q32 0 45.5 -14t13.5 -50v-239q0 -33 -15.5 -47t-54.5 -14q-40 0 -55.5 14t-15.5 47v175h-503v-349h235v86q0 33 15.5 47t55.5 14q39 0 54.5 -14t15.5 -47v-299q0 -33 -15.5 -47 t-54.5 -14q-40 0 -55.5 14t-15.5 47v85h-235v-383h522v215q0 33 15.5 47t55.5 14q39 0 54.5 -14t15.5 -47v-279q0 -36 -13.5 -50t-45.5 -14h-23q-83 -78 -119.5 -136t-36.5 -109q0 -35 20.5 -53t52.5 -18q27 0 54 2.5t52 7.5q19 2 31 -8.5t16 -37.5q4 -29 -3 -44.5 t-27 -22.5q-33 -12 -71.5 -18.5t-82.5 -6.5q-89 0 -138.5 48.5t-49.5 131.5q0 72 41.5 137t112.5 127h-670q-32 0 -45.5 14t-13.5 50z" />
<glyph unicode="&#x119;" d="M137 434q0 103 33.5 187t92.5 143.5t141.5 92t181.5 32.5q104 0 184 -32.5t135 -89.5t85 -136t36 -173q0 -32 -14 -45t-46 -13h-680q7 -142 78 -213t203 -71q95 0 184 21.5t154 58.5q30 17 50.5 3t32.5 -44q13 -30 5.5 -54t-38.5 -40q-8 -5 -26.5 -18t-56.5 -48 q-42 -39 -70.5 -72.5t-46.5 -62.5t-26 -55.5t-8 -49.5q0 -35 20 -53t52 -18q28 0 55 2.5t52 7.5q18 2 30.5 -8.5t16.5 -37.5q4 -29 -3 -44.5t-28 -22.5q-32 -12 -70.5 -18.5t-83.5 -6.5q-88 0 -138 48.5t-50 131.5q0 70 39 132.5t106 123.5q-37 -6 -75 -9.5t-77 -3.5 q-104 0 -183.5 31.5t-134 90.5t-83.5 143t-29 190zM295 531h575q-20 106 -89.5 164t-194.5 58q-118 0 -192.5 -59t-98.5 -163z" />
<glyph unicode="&#x11a;" d="M75 64q0 36 13.5 50t45.5 14h96v860h-96q-32 0 -45.5 14t-13.5 50t13.5 50t45.5 14h822q32 0 45.5 -14t13.5 -50v-239q0 -33 -15.5 -47t-54.5 -14q-40 0 -55.5 14t-15.5 47v175h-503v-349h235v86q0 33 15.5 47t55.5 14q39 0 54.5 -14t15.5 -47v-299q0 -33 -15.5 -47 t-54.5 -14q-40 0 -55.5 14t-15.5 47v85h-235v-383h522v215q0 33 15.5 47t55.5 14q39 0 54.5 -14t15.5 -47v-279q0 -36 -13.5 -50t-45.5 -14h-841q-32 0 -45.5 14t-13.5 50zM250 1484q0 17 9 32q10 15 25 22t31 -2l262 -150l262 150q16 9 31 2t25 -22q9 -15 9 -32t-15 -30 l-260 -218q-22 -17 -52 -17q-31 0 -52 17l-260 218q-15 13 -15 30z" />
<glyph unicode="&#x11b;" d="M137 434q0 103 33.5 187t92.5 143.5t141.5 92t181.5 32.5q104 0 184 -32.5t135 -89.5t85 -136t36 -173q0 -32 -14 -45t-46 -13h-680q7 -142 78 -213t203 -71q95 0 184 21.5t154 58.5q30 17 50.5 3t32.5 -44q13 -30 5.5 -54t-38.5 -40q-37 -18 -81.5 -33t-95 -25.5 t-104 -17t-107.5 -6.5q-104 0 -183.5 31.5t-134 90.5t-83.5 143t-29 190zM265 1249q0 17 9 32q10 15 25 22t31 -2l262 -150l262 150q16 9 31 2t25 -22q9 -15 9 -32t-15 -30l-260 -218q-22 -17 -52 -17q-31 0 -52 17l-260 218q-15 13 -15 30zM295 531h575q-20 106 -89.5 164 t-194.5 58q-118 0 -192.5 -59t-98.5 -163z" />
<glyph unicode="&#x11c;" d="M92 557q0 131 37 237.5t103 183t156.5 117.5t198.5 41q91 0 158 -28t112 -79v46q0 33 15.5 47t55.5 14q39 0 54.5 -14t15.5 -47v-272q0 -33 -15.5 -47t-54.5 -14q-40 0 -55.5 14t-15.5 47q0 42 -17.5 77.5t-50 61.5t-81.5 40.5t-112 14.5q-78 0 -143.5 -30.5 t-112.5 -87.5t-73 -138.5t-26 -183.5q0 -101 24.5 -182.5t70 -138t109.5 -87.5t142 -31q79 0 149 13t132 41v213h-233q-32 0 -45.5 14.5t-13.5 49.5q0 36 13.5 50t45.5 14h404q32 0 45.5 -14t13.5 -50q0 -35 -13.5 -49.5t-45.5 -14.5h-30v-251q0 -46 -34 -64 q-78 -46 -178.5 -68.5t-209.5 -22.5q-111 0 -202.5 41.5t-156 117t-100.5 182.5t-36 237zM278 1282q0 17 15 30l260 219q21 16 52 16q30 0 52 -16l260 -219q15 -13 15 -30t-9 -32q-10 -15 -25 -22t-31 3l-262 149l-262 -149q-16 -10 -31 -3t-25 22q-9 15 -9 32z" />
<glyph unicode="&#x11d;" d="M119 458q0 101 31 181t85.5 135.5t128.5 85t161 29.5q94 0 172 -41.5t136 -118.5v76q0 35 13.5 49.5t45.5 14.5h150q31 0 45 -14.5t14 -49.5q0 -36 -14 -50t-45 -14h-78v-774q0 -85 -25.5 -151t-75.5 -111.5t-122.5 -70t-164.5 -24.5q-82 0 -164.5 14t-156.5 42 q-26 11 -34 31.5t5 56.5q12 35 31 46.5t43 1.5q65 -28 136.5 -40.5t139.5 -12.5q63 0 109.5 16.5t77 47t45.5 73t15 93.5v194q-56 -71 -130 -109t-168 -38q-87 0 -161 30t-128.5 85t-85.5 135t-31 182zM250 1028q0 17 15 30l260 219q21 16 52 16q30 0 52 -16l260 -219 q15 -13 15 -30t-9 -32q-10 -15 -25 -22t-31 3l-262 149l-262 -149q-16 -10 -31 -3t-25 22q-9 15 -9 32zM268 458q0 -64 18 -117.5t51.5 -92.5t83.5 -61t114 -22q62 0 115 20t91.5 57t60 91.5t21.5 124.5q0 69 -21.5 123.5t-60 92t-91.5 57t-115 19.5q-64 0 -114 -21.5 t-83.5 -60.5t-51.5 -92.5t-18 -117.5z" />
<glyph unicode="&#x11e;" d="M92 557q0 131 37 237.5t103 183t156.5 117.5t198.5 41q91 0 158 -28t112 -79v46q0 33 15.5 47t55.5 14q39 0 54.5 -14t15.5 -47v-272q0 -33 -15.5 -47t-54.5 -14q-40 0 -55.5 14t-15.5 47q0 42 -17.5 77.5t-50 61.5t-81.5 40.5t-112 14.5q-78 0 -143.5 -30.5 t-112.5 -87.5t-73 -138.5t-26 -183.5q0 -101 24.5 -182.5t70 -138t109.5 -87.5t142 -31q79 0 149 13t132 41v213h-233q-32 0 -45.5 14.5t-13.5 49.5q0 36 13.5 50t45.5 14h404q32 0 45.5 -14t13.5 -50q0 -35 -13.5 -49.5t-45.5 -14.5h-30v-251q0 -46 -34 -64 q-78 -46 -178.5 -68.5t-209.5 -22.5q-111 0 -202.5 41.5t-156 117t-100.5 182.5t-36 237zM232 1474q-3 12 2 22.5t15 18t22.5 12t25.5 4.5q12 0 22 -4.5t14 -14.5q33 -64 94.5 -90t158.5 -26t158.5 26t94.5 90q5 10 14.5 14.5t22.5 4.5q12 0 24.5 -4.5t22.5 -12t15 -18 t3 -22.5q-12 -49 -41.5 -88.5t-74.5 -67t-105.5 -42.5t-133.5 -15t-133 15t-105.5 42.5t-75 67t-40.5 88.5z" />
<glyph unicode="&#x11f;" d="M119 458q0 101 31 181t85.5 135.5t128.5 85t161 29.5q94 0 172 -41.5t136 -118.5v76q0 35 13.5 49.5t45.5 14.5h150q31 0 45 -14.5t14 -49.5q0 -36 -14 -50t-45 -14h-78v-774q0 -85 -25.5 -151t-75.5 -111.5t-122.5 -70t-164.5 -24.5q-82 0 -164.5 14t-156.5 42 q-26 11 -34 31.5t5 56.5q12 35 31 46.5t43 1.5q65 -28 136.5 -40.5t139.5 -12.5q63 0 109.5 16.5t77 47t45.5 73t15 93.5v194q-56 -71 -130 -109t-168 -38q-87 0 -161 30t-128.5 85t-85.5 135t-31 182zM223 1220q-3 12 2 22.5t15 18t22.5 12t25.5 4.5q12 0 22 -4.5t14 -14.5 q33 -64 94.5 -90t158.5 -26t158.5 26t94.5 90q5 10 14.5 14.5t22.5 4.5q12 0 24.5 -4.5t22.5 -12t15 -18t3 -22.5q-12 -49 -41.5 -88.5t-74.5 -67t-105.5 -42.5t-133.5 -15t-133 15t-105.5 42.5t-75 67t-40.5 88.5zM268 458q0 -64 18 -117.5t51.5 -92.5t83.5 -61t114 -22 q62 0 115 20t91.5 57t60 91.5t21.5 124.5q0 69 -21.5 123.5t-60 92t-91.5 57t-115 19.5q-64 0 -114 -21.5t-83.5 -60.5t-51.5 -92.5t-18 -117.5z" />
<glyph unicode="&#x120;" d="M92 557q0 131 37 237.5t103 183t156.5 117.5t198.5 41q91 0 158 -28t112 -79v46q0 33 15.5 47t55.5 14q39 0 54.5 -14t15.5 -47v-272q0 -33 -15.5 -47t-54.5 -14q-40 0 -55.5 14t-15.5 47q0 42 -17.5 77.5t-50 61.5t-81.5 40.5t-112 14.5q-78 0 -143.5 -30.5 t-112.5 -87.5t-73 -138.5t-26 -183.5q0 -101 24.5 -182.5t70 -138t109.5 -87.5t142 -31q79 0 149 13t132 41v213h-233q-32 0 -45.5 14.5t-13.5 49.5q0 36 13.5 50t45.5 14h404q32 0 45.5 -14t13.5 -50q0 -35 -13.5 -49.5t-45.5 -14.5h-30v-251q0 -46 -34 -64 q-78 -46 -178.5 -68.5t-209.5 -22.5q-111 0 -202.5 41.5t-156 117t-100.5 182.5t-36 237zM454 1401q0 27 10 51.5t28 42.5t42.5 28t51.5 10t51.5 -10t42.5 -28t28.5 -42.5t10.5 -51.5t-10.5 -51.5t-28.5 -42.5t-42.5 -28.5t-51.5 -10.5t-51.5 10.5t-42.5 28.5t-28 42.5 t-10 51.5z" />
<glyph unicode="&#x121;" d="M119 458q0 101 31 181t85.5 135.5t128.5 85t161 29.5q94 0 172 -41.5t136 -118.5v76q0 35 13.5 49.5t45.5 14.5h150q31 0 45 -14.5t14 -49.5q0 -36 -14 -50t-45 -14h-78v-774q0 -85 -25.5 -151t-75.5 -111.5t-122.5 -70t-164.5 -24.5q-82 0 -164.5 14t-156.5 42 q-26 11 -34 31.5t5 56.5q12 35 31 46.5t43 1.5q65 -28 136.5 -40.5t139.5 -12.5q63 0 109.5 16.5t77 47t45.5 73t15 93.5v194q-56 -71 -130 -109t-168 -38q-87 0 -161 30t-128.5 85t-85.5 135t-31 182zM268 458q0 -64 18 -117.5t51.5 -92.5t83.5 -61t114 -22q62 0 115 20 t91.5 57t60 91.5t21.5 124.5q0 69 -21.5 123.5t-60 92t-91.5 57t-115 19.5q-64 0 -114 -21.5t-83.5 -60.5t-51.5 -92.5t-18 -117.5zM445 1147q0 27 10 51.5t28 42.5t42.5 28t51.5 10t51.5 -10t42.5 -28t28.5 -42.5t10.5 -51.5t-10.5 -51.5t-28.5 -42.5t-42.5 -28.5 t-51.5 -10.5t-51.5 10.5t-42.5 28.5t-28 42.5t-10 51.5z" />
<glyph unicode="&#x122;" d="M92 557q0 131 37 237.5t103 183t156.5 117.5t198.5 41q91 0 158 -28t112 -79v46q0 33 15.5 47t55.5 14q39 0 54.5 -14t15.5 -47v-272q0 -33 -15.5 -47t-54.5 -14q-40 0 -55.5 14t-15.5 47q0 42 -17.5 77.5t-50 61.5t-81.5 40.5t-112 14.5q-78 0 -143.5 -30.5 t-112.5 -87.5t-73 -138.5t-26 -183.5q0 -101 24.5 -182.5t70 -138t109.5 -87.5t142 -31q79 0 149 13t132 41v213h-233q-32 0 -45.5 14.5t-13.5 49.5q0 36 13.5 50t45.5 14h404q32 0 45.5 -14t13.5 -50q0 -35 -13.5 -49.5t-45.5 -14.5h-30v-251q0 -46 -34 -64 q-78 -46 -178.5 -68.5t-209.5 -22.5q-111 0 -202.5 41.5t-156 117t-100.5 182.5t-36 237zM441 -441l59 274q3 15 13 22.5t26 7.5h134q18 0 24.5 -14t-4.5 -34l-144 -274q-9 -16 -25.5 -25.5t-36.5 -9.5q-26 0 -38 14.5t-8 38.5z" />
<glyph unicode="&#x123;" d="M119 458q0 101 31 181t85.5 135.5t128.5 85t161 29.5q94 0 172 -41.5t136 -118.5v76q0 35 13.5 49.5t45.5 14.5h150q31 0 45 -14.5t14 -49.5q0 -36 -14 -50t-45 -14h-78v-774q0 -85 -25.5 -151t-75.5 -111.5t-122.5 -70t-164.5 -24.5q-82 0 -164.5 14t-156.5 42 q-26 11 -34 31.5t5 56.5q12 35 31 46.5t43 1.5q65 -28 136.5 -40.5t139.5 -12.5q63 0 109.5 16.5t77 47t45.5 73t15 93.5v194q-56 -71 -130 -109t-168 -38q-87 0 -161 30t-128.5 85t-85.5 135t-31 182zM268 458q0 -64 18 -117.5t51.5 -92.5t83.5 -61t114 -22q62 0 115 20 t91.5 57t60 91.5t21.5 124.5q0 69 -21.5 123.5t-60 92t-91.5 57t-115 19.5q-64 0 -114 -21.5t-83.5 -60.5t-51.5 -92.5t-18 -117.5zM473.5 1014q-6.5 14 4.5 34l144 274q9 16 25.5 25.5t36.5 9.5q26 0 38 -14.5t8 -38.5l-59 -274q-3 -15 -13 -22.5t-26 -7.5h-134 q-18 0 -24.5 14z" />
<glyph unicode="&#x124;" d="M75 64q0 36 13.5 50t45.5 14h68v860h-68q-32 0 -45.5 14t-13.5 50t13.5 50t45.5 14h296q32 0 45.5 -14t13.5 -50t-13.5 -50t-45.5 -14h-87v-349h468v349h-86q-32 0 -45.5 14t-13.5 50t13.5 50t45.5 14h295q32 0 45.5 -14t13.5 -50t-13.5 -50t-45.5 -14h-68v-860h68 q32 0 45.5 -14t13.5 -50t-13.5 -50t-45.5 -14h-295q-32 0 -45.5 14t-13.5 50t13.5 50t45.5 14h86v383h-468v-383h87q32 0 45.5 -14t13.5 -50t-13.5 -50t-45.5 -14h-296q-32 0 -45.5 14t-13.5 50zM250 1282q0 17 15 30l260 219q21 16 52 16q30 0 52 -16l260 -219 q15 -13 15 -30t-9 -32q-10 -15 -25 -22t-31 3l-262 149l-262 -149q-16 -10 -31 -3t-25 22q-9 15 -9 32z" />
<glyph unicode="&#x125;" d="M72 1169q0 36 14 50t46 14h168q32 0 45.5 -14t13.5 -50v-468q61 91 141 139.5t174 48.5q65 0 116.5 -21.5t88 -61t55.5 -96.5t19 -127v-455h77q32 0 45.5 -14t13.5 -50t-13.5 -50t-45.5 -14h-304q-32 0 -46 14t-14 50t14 50t46 14h86v441q0 40 -9.5 73.5t-28 57.5 t-47.5 37t-67 13q-60 0 -114.5 -26.5t-96 -73.5t-66 -111.5t-24.5 -141.5v-269h87q32 0 45.5 -14t13.5 -50t-13.5 -50t-45.5 -14h-305q-32 0 -45.5 14t-13.5 50t13.5 50t45.5 14h77v977h-86q-32 0 -46 14.5t-14 49.5zM241 1376q0 17 15 30l260 219q21 16 52 16q30 0 52 -16 l260 -219q15 -13 15 -30t-9 -32q-10 -15 -25 -22t-31 3l-262 149l-262 -149q-16 -10 -31 -3t-25 22q-9 15 -9 32z" />
<glyph unicode="&#x126;" d="M28 805q0 35 13.5 49.5t45.5 14.5h115v119h-68q-32 0 -45.5 14t-13.5 50t13.5 50t45.5 14h296q32 0 45.5 -14t13.5 -50t-13.5 -50t-45.5 -14h-87v-119h468v119h-86q-32 0 -45.5 14t-13.5 50t13.5 50t45.5 14h295q32 0 45.5 -14t13.5 -50t-13.5 -50t-45.5 -14h-68v-119 h115q32 0 45.5 -14.5t13.5 -49.5q0 -36 -13.5 -50t-45.5 -14h-115v-613h68q32 0 45.5 -14t13.5 -50t-13.5 -50t-45.5 -14h-295q-32 0 -45.5 14t-13.5 50t13.5 50t45.5 14h86v383h-468v-383h87q32 0 45.5 -14t13.5 -50t-13.5 -50t-45.5 -14h-296q-32 0 -45.5 14t-13.5 50 t13.5 50t45.5 14h68v613h-115q-32 0 -45.5 14t-13.5 50zM343 639h468v102h-468v-102z" />
<glyph unicode="&#x127;" d="M19 995q0 35 13.5 49t45.5 14h140v47h-86q-32 0 -46 14.5t-14 49.5q0 36 14 50t46 14h168q32 0 45.5 -14t13.5 -50v-111h247q32 0 46 -14t14 -49q0 -36 -14 -50t-46 -14h-247v-230q61 91 141 139.5t174 48.5q65 0 116.5 -21.5t88 -61t55.5 -96.5t19 -127v-455h77 q32 0 45.5 -14t13.5 -50t-13.5 -50t-45.5 -14h-304q-32 0 -46 14t-14 50t14 50t46 14h86v441q0 40 -9.5 73.5t-28 57.5t-47.5 37t-67 13q-60 0 -114.5 -26.5t-96 -73.5t-66 -111.5t-24.5 -141.5v-269h87q32 0 45.5 -14t13.5 -50t-13.5 -50t-45.5 -14h-305q-32 0 -45.5 14 t-13.5 50t13.5 50t45.5 14h77v803h-140q-32 0 -45.5 14t-13.5 50z" />
<glyph unicode="&#x128;" d="M188 64q0 36 13.5 50t45.5 14h260v860h-241q-32 0 -45.5 14t-13.5 50t13.5 50t45.5 14h622q32 0 46 -14t14 -50t-14 -50t-46 -14h-240v-860h259q32 0 45.5 -14t13.5 -50t-13.5 -50t-45.5 -14h-660q-32 0 -45.5 14t-13.5 50zM250.5 1347q1.5 18 16.5 31q56 47 102 66 t86 19q35 0 67 -9.5t63 -20t61 -20t62 -9.5q28 0 61 10t66 29q16 10 31 4t27 -27t10.5 -39t-16.5 -31q-56 -47 -101.5 -66t-86.5 -19q-34 0 -66 9.5t-63 20t-61.5 20t-62.5 9.5q-28 0 -61 -10t-65 -29q-16 -10 -31 -4t-28 27q-12 21 -10.5 39z" />
<glyph unicode="&#x129;" d="M176 64q0 36 13.5 50t45.5 14h294v613h-238q-32 0 -45.5 14t-13.5 50q0 35 13.5 49.5t45.5 14.5h320q32 0 45.5 -14.5t13.5 -49.5v-677h302q32 0 45.5 -14t13.5 -50t-13.5 -50t-45.5 -14h-737q-32 0 -45.5 14t-13.5 50zM231.5 1103q1.5 18 16.5 31q56 47 102 66t86 19 q35 0 67 -9.5t63 -20t61 -20t62 -9.5q28 0 61 10t66 29q16 10 31 4t27 -27t10.5 -39t-16.5 -31q-56 -47 -101.5 -66t-86.5 -19q-34 0 -66 9.5t-63 20t-61.5 20t-62.5 9.5q-28 0 -61 -10t-65 -29q-16 -10 -31 -4t-28 27q-12 21 -10.5 39z" />
<glyph unicode="&#x12a;" d="M188 64q0 36 13.5 50t45.5 14h260v860h-241q-32 0 -45.5 14t-13.5 50t13.5 50t45.5 14h622q32 0 46 -14t14 -50t-14 -50t-46 -14h-240v-860h259q32 0 45.5 -14t13.5 -50t-13.5 -50t-45.5 -14h-660q-32 0 -45.5 14t-13.5 50zM254 1361q0 36 13.5 50t45.5 14h528 q32 0 46 -14t14 -50q0 -35 -14 -49.5t-46 -14.5h-528q-32 0 -45.5 14.5t-13.5 49.5z" />
<glyph unicode="&#x12b;" d="M176 64q0 36 13.5 50t45.5 14h294v613h-238q-32 0 -45.5 14t-13.5 50q0 35 13.5 49.5t45.5 14.5h320q32 0 45.5 -14.5t13.5 -49.5v-677h302q32 0 45.5 -14t13.5 -50t-13.5 -50t-45.5 -14h-737q-32 0 -45.5 14t-13.5 50zM245 1107q0 36 13.5 50t45.5 14h528q32 0 46 -14 t14 -50q0 -35 -14 -49.5t-46 -14.5h-528q-32 0 -45.5 14.5t-13.5 49.5z" />
<glyph unicode="&#x12c;" d="M188 64q0 36 13.5 50t45.5 14h260v860h-241q-32 0 -45.5 14t-13.5 50t13.5 50t45.5 14h622q32 0 46 -14t14 -50t-14 -50t-46 -14h-240v-860h259q32 0 45.5 -14t13.5 -50t-13.5 -50t-45.5 -14h-660q-32 0 -45.5 14t-13.5 50zM223 1474q-3 12 2 22.5t15 18t22.5 12 t25.5 4.5q12 0 22 -4.5t14 -14.5q33 -64 94.5 -90t158.5 -26t158.5 26t94.5 90q5 10 14.5 14.5t22.5 4.5q12 0 24.5 -4.5t22.5 -12t15 -18t3 -22.5q-12 -49 -41.5 -88.5t-74.5 -67t-105.5 -42.5t-133.5 -15t-133 15t-105.5 42.5t-75 67t-40.5 88.5z" />
<glyph unicode="&#x12d;" d="M176 64q0 36 13.5 50t45.5 14h294v613h-238q-32 0 -45.5 14t-13.5 50q0 35 13.5 49.5t45.5 14.5h320q32 0 45.5 -14.5t13.5 -49.5v-677h302q32 0 45.5 -14t13.5 -50t-13.5 -50t-45.5 -14h-737q-32 0 -45.5 14t-13.5 50zM214 1220q-3 12 2 22.5t15 18t22.5 12t25.5 4.5 q12 0 22 -4.5t14 -14.5q33 -64 94.5 -90t158.5 -26t158.5 26t94.5 90q5 10 14.5 14.5t22.5 4.5q12 0 24.5 -4.5t22.5 -12t15 -18t3 -22.5q-12 -49 -41.5 -88.5t-74.5 -67t-105.5 -42.5t-133.5 -15t-133 15t-105.5 42.5t-75 67t-40.5 88.5z" />
<glyph unicode="&#x12e;" d="M188 64q0 36 13.5 50t45.5 14h260v860h-241q-32 0 -45.5 14t-13.5 50t13.5 50t45.5 14h622q32 0 46 -14t14 -50t-14 -50t-46 -14h-240v-860h259q32 0 45.5 -14t13.5 -50t-13.5 -50t-45.5 -14h-256q-83 -78 -119.5 -136t-36.5 -109q0 -35 20.5 -53t52.5 -18q27 0 54.5 2.5 t51.5 7.5q19 2 31 -8.5t16 -37.5q5 -29 -2 -44.5t-28 -22.5q-33 -12 -71.5 -18.5t-82.5 -6.5q-89 0 -138.5 48.5t-49.5 131.5q0 72 41.5 137t112.5 127h-256q-32 0 -45.5 14t-13.5 50z" />
<glyph unicode="&#x12f;" d="M176 64q0 36 13.5 50t45.5 14h294v613h-238q-32 0 -45.5 14t-13.5 50q0 35 13.5 49.5t45.5 14.5h320q32 0 45.5 -14.5t13.5 -49.5v-677h302q32 0 45.5 -14t13.5 -50t-13.5 -50t-45.5 -14h-302q-83 -78 -119.5 -136t-36.5 -109q0 -35 20.5 -53t52.5 -18q27 0 54 2.5 t52 7.5q19 2 31 -8.5t16 -37.5q4 -29 -3 -44.5t-27 -22.5q-33 -12 -71.5 -18.5t-82.5 -6.5q-89 0 -138.5 48.5t-49.5 131.5q0 72 41.5 137t112.5 127h-287q-32 0 -45.5 14t-13.5 50zM492 1098v122q0 33 17.5 47t71.5 14q53 0 71 -14t18 -47v-122q0 -33 -18 -47t-71 -14 q-54 0 -71.5 14t-17.5 47z" />
<glyph unicode="&#x130;" d="M188 64q0 36 13.5 50t45.5 14h260v860h-241q-32 0 -45.5 14t-13.5 50t13.5 50t45.5 14h622q32 0 46 -14t14 -50t-14 -50t-46 -14h-240v-860h259q32 0 45.5 -14t13.5 -50t-13.5 -50t-45.5 -14h-660q-32 0 -45.5 14t-13.5 50zM445 1401q0 27 10 51.5t28 42.5t42.5 28 t51.5 10t51.5 -10t42.5 -28t28.5 -42.5t10.5 -51.5t-10.5 -51.5t-28.5 -42.5t-42.5 -28.5t-51.5 -10.5t-51.5 10.5t-42.5 28.5t-28 42.5t-10 51.5z" />
<glyph unicode="&#x131;" d="M176 64q0 36 13.5 50t45.5 14h294v613h-238q-32 0 -45.5 14t-13.5 50q0 35 13.5 49.5t45.5 14.5h320q32 0 45.5 -14.5t13.5 -49.5v-677h302q32 0 45.5 -14t13.5 -50t-13.5 -50t-45.5 -14h-737q-32 0 -45.5 14t-13.5 50z" />
<glyph unicode="&#x132;" d="M19 64q0 36 13.5 50t45.5 14h90v860h-81q-32 0 -45.5 14t-13.5 50t13.5 50t45.5 14h303q32 0 45.5 -14t13.5 -50t-13.5 -50t-45.5 -14h-81v-860h91q31 0 45 -14t14 -50t-14 -50t-45 -14h-322q-32 0 -45.5 14t-13.5 50zM522 122v268q0 33 15.5 47t54.5 14q40 0 55.5 -14 t15.5 -47v-239q19 -18 42.5 -25.5t51.5 -7.5q59 0 85.5 31t26.5 98v741h-133q-32 0 -45.5 14t-13.5 50t13.5 50t45.5 14h340q32 0 46 -14t14 -50t-14 -50t-46 -14h-66v-769q0 -56 -15 -100.5t-46 -75.5t-79 -47.5t-114 -16.5q-65 0 -121.5 26.5t-97.5 68.5q-15 15 -15 48z " />
<glyph unicode="&#x133;" d="M54 64q0 36 13.5 50t45.5 14h153v613h-116q-32 0 -45.5 14t-13.5 50q0 35 13.5 49.5t45.5 14.5h198q32 0 45.5 -14.5t13.5 -49.5v-677h161q32 0 45.5 -14t13.5 -50t-13.5 -50t-45.5 -14h-455q-32 0 -45.5 14t-13.5 50zM228 1098v122q0 33 18 47t72 14q53 0 71 -14t18 -47 v-122q0 -33 -18 -47t-71 -14q-54 0 -72 14t-18 47zM392 -275q0 13 4 29t11.5 29.5t18 23t24.5 9.5q15 0 29 -8q55 -30 109 -45.5t113 -15.5q47 0 79 13t51.5 38.5t28 64.5t8.5 91v787h-210q-32 0 -45.5 14t-13.5 50q0 35 13.5 49.5t45.5 14.5h291q32 0 46 -14.5t14 -49.5 v-863q0 -81 -17.5 -143t-54.5 -104t-95.5 -63.5t-140.5 -21.5q-76 0 -149.5 19.5t-127.5 49.5q-15 7 -23.5 18.5t-8.5 27.5zM830 1098v122q0 33 18 47t71 14q54 0 72 -14t18 -47v-122q0 -33 -18 -47t-72 -14q-53 0 -71 14t-18 47z" />
<glyph unicode="&#x134;" d="M108 169v268q0 33 15.5 47t55.5 14q39 0 54.5 -14t15.5 -47v-248q79 -71 216 -71q125 0 179.5 55.5t54.5 167.5v647h-320q-32 0 -45.5 14t-13.5 50t13.5 50t45.5 14h650q32 0 46 -14t14 -50t-14 -50t-46 -14h-189v-675q0 -166 -95.5 -250t-280.5 -84q-112 0 -198 39.5 t-143 102.5q-15 18 -15 48zM400 1282q0 17 15 30l260 219q21 16 52 16q30 0 52 -16l260 -219q15 -13 15 -30t-9 -32q-10 -15 -25 -22t-31 3l-262 149l-262 -149q-16 -10 -31 -3t-25 22q-9 15 -9 32z" />
<glyph unicode="&#x135;" d="M179.5 -248.5q-6.5 21.5 11.5 54.5q18 34 40 41t43 -7q63 -40 132.5 -66.5t134.5 -26.5q47 0 79 13t51.5 38.5t28 64.5t8.5 91v787h-398q-32 0 -45.5 14t-13.5 50q0 35 13.5 49.5t45.5 14.5h480q32 0 45.5 -14.5t13.5 -49.5v-863q0 -81 -17.5 -143t-54.5 -104 t-95.5 -63.5t-140.5 -21.5q-40 0 -83.5 8t-87 22t-85 33.5t-75.5 41.5q-24 15 -30.5 36.5zM353 1028q0 17 15 30l260 219q21 16 52 16q30 0 52 -16l260 -219q15 -13 15 -30t-9 -32q-10 -15 -25 -22t-31 3l-262 149l-262 -149q-16 -10 -31 -3t-25 22q-9 15 -9 32z" />
<glyph unicode="&#x136;" d="M75 64q0 36 13.5 50t45.5 14h106v860h-106q-32 0 -45.5 14t-13.5 50t13.5 50t45.5 14h333q32 0 45.5 -14t13.5 -50t-13.5 -50t-45.5 -14h-86v-396l408 396h-64q-32 0 -45.5 14t-13.5 50t13.5 50t45.5 14h304q32 0 46 -14t14 -50t-14 -50t-46 -14h-53l-398 -381 q64 5 119.5 -15.5t99.5 -77.5q26 -35 47 -77t38 -85.5t32.5 -84t32.5 -71.5q17 -32 37 -50t47 -18h27q31 0 45 -14t14 -50t-14 -50t-45 -14h-78q-42 0 -83.5 29t-77.5 102q-19 37 -35 78t-31 81t-31.5 76.5t-37.5 65.5q-22 33 -56 50.5t-78 17.5q-39 0 -75.5 -13.5 t-65.5 -41.5l-28 -28v-289h152q32 0 45.5 -14t13.5 -50t-13.5 -50t-45.5 -14h-399q-32 0 -45.5 14t-13.5 50zM441 -441l59 274q3 15 13 22.5t26 7.5h134q18 0 24.5 -14t-4.5 -34l-144 -274q-9 -16 -25.5 -25.5t-36.5 -9.5q-26 0 -38 14.5t-8 38.5z" />
<glyph unicode="&#x137;" d="M63 1169q0 36 13.5 50t45.5 14h205q32 0 45.5 -14t13.5 -50v-744l358 316h-66q-32 0 -45.5 14t-13.5 50q0 35 13.5 49.5t45.5 14.5h314q32 0 45.5 -14.5t13.5 -49.5q0 -36 -13.5 -50t-45.5 -14h-56l-276 -244l316 -369h54q32 0 45.5 -14t13.5 -50t-13.5 -50t-45.5 -14 h-314q-32 0 -45.5 14t-13.5 50t13.5 50t45.5 14h77l-236 280l-171 -150v-130h60q32 0 45.5 -14t13.5 -50t-13.5 -50t-45.5 -14h-305q-32 0 -45.5 14t-13.5 50t13.5 50t45.5 14h104v977h-123q-32 0 -45.5 14.5t-13.5 49.5zM413 -441l59 274q3 15 13 22.5t26 7.5h134 q18 0 24.5 -14t-4.5 -34l-144 -274q-9 -16 -25.5 -25.5t-36.5 -9.5q-26 0 -38 14.5t-8 38.5z" />
<glyph unicode="&#x139;" d="M75 64q0 36 13.5 50t45.5 14h153v860h-153q-32 0 -45.5 14t-13.5 50t13.5 50t45.5 14h521q32 0 45.5 -14t13.5 -50t-13.5 -50t-45.5 -14h-227v-860h465v309q0 33 15.5 47t55.5 14q39 0 54.5 -14t15.5 -47v-373q0 -36 -13.5 -50t-45.5 -14h-841q-32 0 -45.5 14t-13.5 50z M185.5 1293.5q4.5 16.5 20.5 25.5l391 216q12 7 23 9.5t21.5 -2t23 -18t27.5 -40.5q14 -25 19 -42.5t4 -29t-7.5 -18.5t-15.5 -10l-452 -153q-18 -6 -32 4t-20 26q-7 16 -2.5 32.5z" />
<glyph unicode="&#x13a;" d="M166 64q0 36 14 50t46 14h294v977h-257q-32 0 -45.5 14.5t-13.5 49.5q0 36 13.5 50t45.5 14h339q32 0 45.5 -14t13.5 -50v-1041h302q32 0 45.5 -14t13.5 -50t-13.5 -50t-45.5 -14h-737q-32 0 -46 14t-14 50zM345.5 1387.5q4.5 16.5 20.5 25.5l391 216q12 7 23 9.5 t21.5 -2t23 -18t27.5 -40.5q14 -25 19 -42.5t4 -29t-7.5 -18.5t-15.5 -10l-452 -153q-18 -6 -32 4t-20 26q-7 16 -2.5 32.5z" />
<glyph unicode="&#x13b;" d="M75 64q0 36 13.5 50t45.5 14h153v860h-153q-32 0 -45.5 14t-13.5 50t13.5 50t45.5 14h521q32 0 45.5 -14t13.5 -50t-13.5 -50t-45.5 -14h-227v-860h465v309q0 33 15.5 47t55.5 14q39 0 54.5 -14t15.5 -47v-373q0 -36 -13.5 -50t-45.5 -14h-841q-32 0 -45.5 14t-13.5 50z M432 -441l59 274q3 15 13 22.5t26 7.5h134q18 0 24.5 -14t-4.5 -34l-144 -274q-9 -16 -25.5 -25.5t-36.5 -9.5q-26 0 -38 14.5t-8 38.5z" />
<glyph unicode="&#x13c;" d="M166 64q0 36 14 50t46 14h294v977h-257q-32 0 -45.5 14.5t-13.5 49.5q0 36 13.5 50t45.5 14h339q32 0 45.5 -14t13.5 -50v-1041h302q32 0 45.5 -14t13.5 -50t-13.5 -50t-45.5 -14h-737q-32 0 -46 14t-14 50zM432 -441l59 274q3 15 13 22.5t26 7.5h134q18 0 24.5 -14 t-4.5 -34l-144 -274q-9 -16 -25.5 -25.5t-36.5 -9.5q-26 0 -38 14.5t-8 38.5z" />
<glyph unicode="&#x13d;" d="M75 64q0 36 13.5 50t45.5 14h153v860h-153q-32 0 -45.5 14t-13.5 50t13.5 50t45.5 14h521q32 0 45.5 -14t13.5 -50t-13.5 -50t-45.5 -14h-227v-860h465v309q0 33 15.5 47t55.5 14q39 0 54.5 -14t15.5 -47v-373q0 -36 -13.5 -50t-45.5 -14h-841q-32 0 -45.5 14t-13.5 50z M725 726l77 340q7 30 39 30h134q18 0 24.5 -14t-3.5 -34l-168 -342q-16 -32 -56 -32q-26 0 -39.5 14t-7.5 38z" />
<glyph unicode="&#x13e;" d="M138 64q0 36 14 50t46 14h294v977h-257q-32 0 -45.5 14.5t-13.5 49.5q0 36 13.5 50t45.5 14h339q32 0 45.5 -14t13.5 -50v-1041h302q32 0 45.5 -14t13.5 -50t-13.5 -50t-45.5 -14h-737q-32 0 -46 14t-14 50zM717 804l77 340q7 30 39 30h134q18 0 24.5 -14t-3.5 -34 l-168 -342q-16 -32 -56 -32q-26 0 -39.5 14t-7.5 38z" />
<glyph unicode="&#x13f;" d="M75 64q0 36 13.5 50t45.5 14h153v860h-153q-32 0 -45.5 14t-13.5 50t13.5 50t45.5 14h521q32 0 45.5 -14t13.5 -50t-13.5 -50t-45.5 -14h-227v-860h465v309q0 33 15.5 47t55.5 14q39 0 54.5 -14t15.5 -47v-373q0 -36 -13.5 -50t-45.5 -14h-841q-32 0 -45.5 14t-13.5 50z M567 668q0 27 10 51.5t28 42.5t42.5 28t51.5 10t51.5 -10t42.5 -28t28.5 -42.5t10.5 -51.5t-10.5 -51.5t-28.5 -42.5t-42.5 -28.5t-51.5 -10.5t-51.5 10.5t-42.5 28.5t-28 42.5t-10 51.5z" />
<glyph unicode="&#x140;" d="M138 64q0 36 14 50t46 14h294v977h-257q-32 0 -45.5 14.5t-13.5 49.5q0 36 13.5 50t45.5 14h339q32 0 45.5 -14t13.5 -50v-1041h302q32 0 45.5 -14t13.5 -50t-13.5 -50t-45.5 -14h-737q-32 0 -46 14t-14 50zM783 677q0 27 10 51.5t28 42.5t42.5 28t51.5 10t51.5 -10 t42.5 -28t28.5 -42.5t10.5 -51.5t-10.5 -51.5t-28.5 -42.5t-42.5 -28.5t-51.5 -10.5t-51.5 10.5t-42.5 28.5t-28 42.5t-10 51.5z" />
<glyph unicode="&#x141;" d="M57 403q3 19 29 37l201 136v412h-153q-32 0 -45.5 14t-13.5 50t13.5 50t45.5 14h521q32 0 45.5 -14t13.5 -50t-13.5 -50t-45.5 -14h-227v-316l193 132q27 18 46.5 14t39.5 -34q20 -29 16.5 -48.5t-29.5 -37.5l-266 -181v-389h465v309q0 33 15.5 47t55.5 14q39 0 54.5 -14 t15.5 -47v-373q0 -36 -13.5 -50t-45.5 -14h-841q-32 0 -45.5 14t-13.5 50t13.5 50t45.5 14h153v293l-128 -86q-26 -18 -46 -14.5t-40 33.5q-19 30 -16 49z" />
<glyph unicode="&#x142;" d="M166 64q0 36 14 50t46 14h294v396l-165 -112q-26 -18 -45.5 -14.5t-39.5 33.5t-16.5 49t29.5 37l237 161v427h-257q-32 0 -45.5 14.5t-13.5 49.5q0 36 13.5 50t45.5 14h339q32 0 45.5 -14t13.5 -50v-395l157 107q26 18 46 14t39 -34q20 -29 16.5 -48.5t-29.5 -36.5 l-229 -157v-491h302q32 0 45.5 -14t13.5 -50t-13.5 -50t-45.5 -14h-737q-32 0 -46 14t-14 50z" />
<glyph unicode="&#x143;" d="M66 1052q0 36 13.5 50t45.5 14h211q38 0 53 -27l446 -797v696h-110q-32 0 -45.5 14t-13.5 50t13.5 50t45.5 14h304q32 0 46 -14t14 -50t-14 -50t-46 -14h-53v-953q0 -25 -17 -40.5t-54 -15.5q-27 0 -46 14t-33 38l-488 871v-774h129q32 0 45.5 -14t13.5 -50t-13.5 -50 t-45.5 -14h-333q-32 0 -45.5 14t-13.5 50t13.5 50t45.5 14h63v860h-72q-32 0 -45.5 14t-13.5 50zM373.5 1293.5q4.5 16.5 20.5 25.5l391 216q12 7 23 9.5t21.5 -2t23 -18t27.5 -40.5q14 -25 19 -42.5t4 -29t-7.5 -18.5t-15.5 -10l-452 -153q-18 -6 -32 4t-20 26 q-7 16 -2.5 32.5z" />
<glyph unicode="&#x144;" d="M72 805q0 35 14 49.5t46 14.5h168q32 0 45.5 -14.5t13.5 -49.5v-113q62 97 145 147t179 50q65 0 117 -21.5t88 -61t55.5 -96.5t19.5 -127v-455h77q32 0 45.5 -14t13.5 -50t-13.5 -50t-45.5 -14h-305q-32 0 -45.5 14t-13.5 50t13.5 50t45.5 14h87v441q0 40 -9.5 73.5 t-28.5 57.5t-47.5 37t-67.5 13q-60 0 -114.5 -26.5t-96 -73.5t-66 -111.5t-24.5 -141.5v-269h87q32 0 45.5 -14t13.5 -50t-13.5 -50t-45.5 -14h-305q-32 0 -45.5 14t-13.5 50t13.5 50t45.5 14h77v613h-95q-32 0 -46 14t-14 50zM373.5 1039.5q4.5 16.5 20.5 25.5l391 216 q12 7 23 9.5t21.5 -2t23 -18t27.5 -40.5q14 -25 19 -42.5t4 -29t-7.5 -18.5t-15.5 -10l-452 -153q-18 -6 -32 4t-20 26q-7 16 -2.5 32.5z" />
<glyph unicode="&#x145;" d="M66 1052q0 36 13.5 50t45.5 14h211q38 0 53 -27l446 -797v696h-110q-32 0 -45.5 14t-13.5 50t13.5 50t45.5 14h304q32 0 46 -14t14 -50t-14 -50t-46 -14h-53v-953q0 -25 -17 -40.5t-54 -15.5q-27 0 -46 14t-33 38l-488 871v-774h129q32 0 45.5 -14t13.5 -50t-13.5 -50 t-45.5 -14h-333q-32 0 -45.5 14t-13.5 50t13.5 50t45.5 14h63v860h-72q-32 0 -45.5 14t-13.5 50zM432 -441l59 274q3 15 13 22.5t26 7.5h134q18 0 24.5 -14t-4.5 -34l-144 -274q-9 -16 -25.5 -25.5t-36.5 -9.5q-26 0 -38 14.5t-8 38.5z" />
<glyph unicode="&#x146;" d="M72 805q0 35 14 49.5t46 14.5h168q32 0 45.5 -14.5t13.5 -49.5v-113q62 97 145 147t179 50q65 0 117 -21.5t88 -61t55.5 -96.5t19.5 -127v-455h77q32 0 45.5 -14t13.5 -50t-13.5 -50t-45.5 -14h-305q-32 0 -45.5 14t-13.5 50t13.5 50t45.5 14h87v441q0 40 -9.5 73.5 t-28.5 57.5t-47.5 37t-67.5 13q-60 0 -114.5 -26.5t-96 -73.5t-66 -111.5t-24.5 -141.5v-269h87q32 0 45.5 -14t13.5 -50t-13.5 -50t-45.5 -14h-305q-32 0 -45.5 14t-13.5 50t13.5 50t45.5 14h77v613h-95q-32 0 -46 14t-14 50zM432 -441l59 274q3 15 13 22.5t26 7.5h134 q18 0 24.5 -14t-4.5 -34l-144 -274q-9 -16 -25.5 -25.5t-36.5 -9.5q-26 0 -38 14.5t-8 38.5z" />
<glyph unicode="&#x147;" d="M66 1052q0 36 13.5 50t45.5 14h211q38 0 53 -27l446 -797v696h-110q-32 0 -45.5 14t-13.5 50t13.5 50t45.5 14h304q32 0 46 -14t14 -50t-14 -50t-46 -14h-53v-953q0 -25 -17 -40.5t-54 -15.5q-27 0 -46 14t-33 38l-488 871v-774h129q32 0 45.5 -14t13.5 -50t-13.5 -50 t-45.5 -14h-333q-32 0 -45.5 14t-13.5 50t13.5 50t45.5 14h63v860h-72q-32 0 -45.5 14t-13.5 50zM250 1484q0 17 9 32q10 15 25 22t31 -2l262 -150l262 150q16 9 31 2t25 -22q9 -15 9 -32t-15 -30l-260 -218q-22 -17 -52 -17q-31 0 -52 17l-260 218q-15 13 -15 30z" />
<glyph unicode="&#x148;" d="M72 805q0 35 14 49.5t46 14.5h168q32 0 45.5 -14.5t13.5 -49.5v-113q62 97 145 147t179 50q65 0 117 -21.5t88 -61t55.5 -96.5t19.5 -127v-455h77q32 0 45.5 -14t13.5 -50t-13.5 -50t-45.5 -14h-305q-32 0 -45.5 14t-13.5 50t13.5 50t45.5 14h87v441q0 40 -9.5 73.5 t-28.5 57.5t-47.5 37t-67.5 13q-60 0 -114.5 -26.5t-96 -73.5t-66 -111.5t-24.5 -141.5v-269h87q32 0 45.5 -14t13.5 -50t-13.5 -50t-45.5 -14h-305q-32 0 -45.5 14t-13.5 50t13.5 50t45.5 14h77v613h-95q-32 0 -46 14t-14 50zM250 1249q0 17 9 32q10 15 25 22t31 -2 l262 -150l262 150q16 9 31 2t25 -22q9 -15 9 -32t-15 -30l-260 -218q-22 -17 -52 -17q-31 0 -52 17l-260 218q-15 13 -15 30z" />
<glyph unicode="&#x14c;" d="M83 557q0 131 35.5 237.5t100.5 183t156 117.5t202 41t202 -41t156 -117.5t101 -183t36 -237.5q0 -130 -36 -237t-101 -182.5t-156 -117t-202 -41.5t-202 41.5t-156 117t-100.5 182.5t-35.5 237zM231 557q0 -101 25 -182.5t70 -138t109 -87.5t142 -31t142 31t109 87.5 t70 138t25 182.5q0 102 -25 183.5t-70 138.5t-109 87.5t-142 30.5t-142 -30.5t-109 -87.5t-70 -138.5t-25 -183.5zM254 1361q0 36 13.5 50t45.5 14h528q32 0 46 -14t14 -50q0 -35 -14 -49.5t-46 -14.5h-528q-32 0 -45.5 14.5t-13.5 49.5z" />
<glyph unicode="&#x14d;" d="M113 434q0 100 35 183t97 144t147.5 94.5t184.5 33.5q100 0 185 -33.5t147 -94.5t97.5 -144t35.5 -183q0 -99 -35.5 -182.5t-97.5 -144t-147 -94.5t-185 -34q-99 0 -184.5 34t-147.5 94.5t-97 144t-35 182.5zM254 1107q0 36 13.5 50t45.5 14h528q32 0 46 -14t14 -50 q0 -35 -14 -49.5t-46 -14.5h-528q-32 0 -45.5 14.5t-13.5 49.5zM261 434q0 -68 23 -126t64.5 -100.5t100 -66t128.5 -23.5q71 0 129 23.5t99.5 66t64.5 100.5t23 126q0 69 -23 127t-64.5 100t-99.5 65.5t-129 23.5q-70 0 -128.5 -23.5t-100 -65.5t-64.5 -100t-23 -127z" />
<glyph unicode="&#x14e;" d="M83 557q0 131 35.5 237.5t100.5 183t156 117.5t202 41t202 -41t156 -117.5t101 -183t36 -237.5q0 -130 -36 -237t-101 -182.5t-156 -117t-202 -41.5t-202 41.5t-156 117t-100.5 182.5t-35.5 237zM223 1474q-3 12 2 22.5t15 18t22.5 12t25.5 4.5q12 0 22 -4.5t14 -14.5 q33 -64 94.5 -90t158.5 -26t158.5 26t94.5 90q5 10 14.5 14.5t22.5 4.5q12 0 24.5 -4.5t22.5 -12t15 -18t3 -22.5q-12 -49 -41.5 -88.5t-74.5 -67t-105.5 -42.5t-133.5 -15t-133 15t-105.5 42.5t-75 67t-40.5 88.5zM231 557q0 -101 25 -182.5t70 -138t109 -87.5t142 -31 t142 31t109 87.5t70 138t25 182.5q0 102 -25 183.5t-70 138.5t-109 87.5t-142 30.5t-142 -30.5t-109 -87.5t-70 -138.5t-25 -183.5z" />
<glyph unicode="&#x14f;" d="M113 434q0 100 35 183t97 144t147.5 94.5t184.5 33.5q100 0 185 -33.5t147 -94.5t97.5 -144t35.5 -183q0 -99 -35.5 -182.5t-97.5 -144t-147 -94.5t-185 -34q-99 0 -184.5 34t-147.5 94.5t-97 144t-35 182.5zM223 1220q-3 12 2 22.5t15 18t22.5 12t25.5 4.5q12 0 22 -4.5 t14 -14.5q33 -64 94.5 -90t158.5 -26t158.5 26t94.5 90q5 10 14.5 14.5t22.5 4.5q12 0 24.5 -4.5t22.5 -12t15 -18t3 -22.5q-12 -49 -41.5 -88.5t-74.5 -67t-105.5 -42.5t-133.5 -15t-133 15t-105.5 42.5t-75 67t-40.5 88.5zM261 434q0 -68 23 -126t64.5 -100.5t100 -66 t128.5 -23.5q71 0 129 23.5t99.5 66t64.5 100.5t23 126q0 69 -23 127t-64.5 100t-99.5 65.5t-129 23.5q-70 0 -128.5 -23.5t-100 -65.5t-64.5 -100t-23 -127z" />
<glyph unicode="&#x150;" d="M83 557q0 131 35.5 237.5t100.5 183t156 117.5t202 41t202 -41t156 -117.5t101 -183t36 -237.5q0 -130 -36 -237t-101 -182.5t-156 -117t-202 -41.5t-202 41.5t-156 117t-100.5 182.5t-35.5 237zM231 557q0 -101 25 -182.5t70 -138t109 -87.5t142 -31t142 31t109 87.5 t70 138t25 182.5q0 102 -25 183.5t-70 138.5t-109 87.5t-142 30.5t-142 -30.5t-109 -87.5t-70 -138.5t-25 -183.5zM312 1289q0 15 12 27l219 212q13 12 28 19t33 7q14 0 30.5 -5.5t31.5 -15.5t24.5 -23t9.5 -27q0 -12 -5.5 -21.5t-14.5 -16.5l-271 -189q-17 -12 -40 -12 q-9 0 -19 3t-18.5 9t-14 14.5t-5.5 18.5zM641 1289q0 15 12 27l219 212q13 12 28 19t33 7q14 0 30.5 -5.5t31.5 -15.5t24.5 -23t9.5 -27q0 -12 -5.5 -21.5t-14.5 -16.5l-271 -189q-17 -12 -40 -12q-9 0 -19 3t-18.5 9t-14 14.5t-5.5 18.5z" />
<glyph unicode="&#x151;" d="M113 434q0 100 35 183t97 144t147.5 94.5t184.5 33.5q100 0 185 -33.5t147 -94.5t97.5 -144t35.5 -183q0 -99 -35.5 -182.5t-97.5 -144t-147 -94.5t-185 -34q-99 0 -184.5 34t-147.5 94.5t-97 144t-35 182.5zM261 434q0 -68 23 -126t64.5 -100.5t100 -66t128.5 -23.5 q71 0 129 23.5t99.5 66t64.5 100.5t23 126q0 69 -23 127t-64.5 100t-99.5 65.5t-129 23.5q-70 0 -128.5 -23.5t-100 -65.5t-64.5 -100t-23 -127zM312 1035q0 15 12 27l219 212q13 12 28 19t33 7q14 0 30.5 -5.5t31.5 -15.5t24.5 -23t9.5 -27q0 -12 -5.5 -21.5t-14.5 -16.5 l-271 -189q-17 -12 -40 -12q-9 0 -19 3t-18.5 9t-14 14.5t-5.5 18.5zM641 1035q0 15 12 27l219 212q13 12 28 19t33 7q14 0 30.5 -5.5t31.5 -15.5t24.5 -23t9.5 -27q0 -12 -5.5 -21.5t-14.5 -16.5l-271 -189q-17 -12 -40 -12q-9 0 -19 3t-18.5 9t-14 14.5t-5.5 18.5z" />
<glyph unicode="&#x152;" d="M58 557q0 131 34.5 234.5t97.5 175.5t152 110.5t198 38.5h459q32 0 45.5 -14t13.5 -50v-239q0 -33 -15.5 -47t-54.5 -14q-40 0 -55.5 14t-15.5 47v175h-244v-344h181q31 0 45 -14t14 -50t-14 -50t-45 -14h-181v-388h256v215q0 33 15.5 47t54.5 14q40 0 55.5 -14t15.5 -47 v-279q0 -36 -14 -50t-46 -14h-470q-109 0 -198 38t-152 110t-97.5 175.5t-34.5 233.5zM207 557q0 -102 23 -181t65.5 -133t103 -83t133.5 -32v859q-73 -3 -133.5 -31.5t-103 -83t-65.5 -133.5t-23 -182z" />
<glyph unicode="&#x153;" d="M66 434q0 108 18 193t55 143t92 88.5t128 30.5q75 0 128.5 -33.5t88.5 -97.5q39 65 95.5 98t130.5 33t126.5 -30t85.5 -84.5t49 -131.5t19 -171q0 -32 -13.5 -45t-45.5 -13h-375q1 -85 13.5 -142.5t33 -92t48.5 -49t59 -14.5q45 0 82.5 17t77.5 56q17 18 42 16t47 -29 t19.5 -51t-25.5 -46q-52 -50 -113.5 -75t-129.5 -25q-74 0 -130.5 32t-95.5 98q-35 -64 -89 -97t-128 -33q-73 0 -128 30.5t-92 89t-55 143t-18 192.5zM214 434q0 -165 35.5 -240.5t109.5 -75.5t109.5 75.5t35.5 240.5q0 166 -35.5 241t-109.5 75t-109.5 -75t-35.5 -241z M652 545h282q-6 97 -36 152.5t-94 55.5q-65 0 -102.5 -48t-49.5 -160z" />
<glyph unicode="&#x154;" d="M75 64q0 36 13.5 50t45.5 14h115v860h-115q-32 0 -45.5 14t-13.5 50t13.5 50t45.5 14h476q90 0 159.5 -23t117 -64.5t72 -100t24.5 -129.5q0 -55 -18 -101t-52 -81.5t-82.5 -61.5t-107.5 -39q24 -11 45 -28t39 -38q24 -26 45 -57t39.5 -62.5t35.5 -62.5t33 -57 q22 -38 45.5 -60.5t52.5 -22.5h18q32 0 46 -14t14 -50t-14 -50t-46 -14h-66q-40 0 -80 28.5t-85 102.5q-19 31 -36.5 63.5t-35.5 65t-37 62.5t-39 55q-24 31 -50 51.5t-56 33t-64.5 17.5t-78.5 5h-58v-356h122q32 0 46 -14t14 -50t-14 -50t-46 -14h-378q-32 0 -45.5 14 t-13.5 50zM354.5 1293.5q4.5 16.5 20.5 25.5l391 216q12 7 23 9.5t21.5 -2t23 -18t27.5 -40.5q14 -25 19 -42.5t4 -29t-7.5 -18.5t-15.5 -10l-452 -153q-18 -6 -32 4t-20 26q-7 16 -2.5 32.5zM390 612h191q58 0 105 10.5t80 33t51 58t18 85.5q0 91 -63.5 140t-181.5 49h-200 v-376z" />
<glyph unicode="&#x155;" d="M138 64q0 36 13.5 50t45.5 14h148v613h-119q-32 0 -46 14t-14 50q0 35 14 49.5t46 14.5h191q32 0 46 -14.5t14 -49.5v-190q34 63 79 113.5t95.5 86.5t105 55t108.5 19q73 0 137 -37q27 -16 34.5 -39.5t-5.5 -58.5q-13 -34 -33 -48t-48 2q-47 25 -98 25q-43 0 -86.5 -15.5 t-84.5 -43t-76 -66.5t-62 -86t-42 -100.5t-15 -111.5v-182h317q32 0 45.5 -14t13.5 -50t-13.5 -50t-45.5 -14h-606q-32 0 -45.5 14t-13.5 50zM422.5 1039.5q4.5 16.5 20.5 25.5l391 216q12 7 23 9.5t21.5 -2t23 -18t27.5 -40.5q14 -25 19 -42.5t4 -29t-7.5 -18.5t-15.5 -10 l-452 -153q-18 -6 -32 4t-20 26q-7 16 -2.5 32.5z" />
<glyph unicode="&#x156;" d="M75 64q0 36 13.5 50t45.5 14h115v860h-115q-32 0 -45.5 14t-13.5 50t13.5 50t45.5 14h476q90 0 159.5 -23t117 -64.5t72 -100t24.5 -129.5q0 -55 -18 -101t-52 -81.5t-82.5 -61.5t-107.5 -39q24 -11 45 -28t39 -38q24 -26 45 -57t39.5 -62.5t35.5 -62.5t33 -57 q22 -38 45.5 -60.5t52.5 -22.5h18q32 0 46 -14t14 -50t-14 -50t-46 -14h-66q-40 0 -80 28.5t-85 102.5q-19 31 -36.5 63.5t-35.5 65t-37 62.5t-39 55q-24 31 -50 51.5t-56 33t-64.5 17.5t-78.5 5h-58v-356h122q32 0 46 -14t14 -50t-14 -50t-46 -14h-378q-32 0 -45.5 14 t-13.5 50zM390 612h191q58 0 105 10.5t80 33t51 58t18 85.5q0 91 -63.5 140t-181.5 49h-200v-376zM460 -441l59 274q3 15 13 22.5t26 7.5h134q18 0 24.5 -14t-4.5 -34l-144 -274q-9 -16 -25.5 -25.5t-36.5 -9.5q-26 0 -38 14.5t-8 38.5z" />
<glyph unicode="&#x157;" d="M138 64q0 36 13.5 50t45.5 14h148v613h-119q-32 0 -46 14t-14 50q0 35 14 49.5t46 14.5h191q32 0 46 -14.5t14 -49.5v-190q34 63 79 113.5t95.5 86.5t105 55t108.5 19q73 0 137 -37q27 -16 34.5 -39.5t-5.5 -58.5q-13 -34 -33 -48t-48 2q-47 25 -98 25q-43 0 -86.5 -15.5 t-84.5 -43t-76 -66.5t-62 -86t-42 -100.5t-15 -111.5v-182h317q32 0 45.5 -14t13.5 -50t-13.5 -50t-45.5 -14h-606q-32 0 -45.5 14t-13.5 50zM319 -441l59 274q3 15 13 22.5t26 7.5h134q18 0 24.5 -14t-4.5 -34l-144 -274q-9 -16 -25.5 -25.5t-36.5 -9.5q-26 0 -38 14.5 t-8 38.5z" />
<glyph unicode="&#x158;" d="M75 64q0 36 13.5 50t45.5 14h115v860h-115q-32 0 -45.5 14t-13.5 50t13.5 50t45.5 14h476q90 0 159.5 -23t117 -64.5t72 -100t24.5 -129.5q0 -55 -18 -101t-52 -81.5t-82.5 -61.5t-107.5 -39q24 -11 45 -28t39 -38q24 -26 45 -57t39.5 -62.5t35.5 -62.5t33 -57 q22 -38 45.5 -60.5t52.5 -22.5h18q32 0 46 -14t14 -50t-14 -50t-46 -14h-66q-40 0 -80 28.5t-85 102.5q-19 31 -36.5 63.5t-35.5 65t-37 62.5t-39 55q-24 31 -50 51.5t-56 33t-64.5 17.5t-78.5 5h-58v-356h122q32 0 46 -14t14 -50t-14 -50t-46 -14h-378q-32 0 -45.5 14 t-13.5 50zM231 1484q0 17 9 32q10 15 25 22t31 -2l262 -150l262 150q16 9 31 2t25 -22q9 -15 9 -32t-15 -30l-260 -218q-22 -17 -52 -17q-31 0 -52 17l-260 218q-15 13 -15 30zM390 612h191q58 0 105 10.5t80 33t51 58t18 85.5q0 91 -63.5 140t-181.5 49h-200v-376z" />
<glyph unicode="&#x159;" d="M138 64q0 36 13.5 50t45.5 14h148v613h-119q-32 0 -46 14t-14 50q0 35 14 49.5t46 14.5h191q32 0 46 -14.5t14 -49.5v-190q34 63 79 113.5t95.5 86.5t105 55t108.5 19q73 0 137 -37q27 -16 34.5 -39.5t-5.5 -58.5q-13 -34 -33 -48t-48 2q-47 25 -98 25q-43 0 -86.5 -15.5 t-84.5 -43t-76 -66.5t-62 -86t-42 -100.5t-15 -111.5v-182h317q32 0 45.5 -14t13.5 -50t-13.5 -50t-45.5 -14h-606q-32 0 -45.5 14t-13.5 50zM278 1249q0 17 9 32q10 15 25 22t31 -2l262 -150l262 150q16 9 31 2t25 -22q9 -15 9 -32t-15 -30l-260 -218q-22 -17 -52 -17 q-31 0 -52 17l-260 218q-15 13 -15 30z" />
<glyph unicode="&#x15a;" d="M149 40v282q0 33 15.5 47.5t54.5 14.5q40 0 55 -40q38 -109 121.5 -167.5t207.5 -58.5q63 0 109.5 14.5t77.5 39t47 59.5t16 76q0 62 -31.5 99t-84.5 59q-43 18 -96 30t-108.5 23t-111 24.5t-103.5 34.5q-35 15 -64 36.5t-50.5 51t-33 68t-11.5 88.5q0 73 27 131.5 t75.5 99.5t116 62.5t147.5 21.5q85 0 161 -32t130 -86v57q0 33 15.5 47t54.5 14q40 0 55.5 -14t15.5 -47v-216q0 -33 -15.5 -47t-55.5 -14q-35 0 -48 24q-47 88 -128.5 131.5t-184.5 43.5q-106 0 -162 -48.5t-56 -127.5q0 -41 21 -67t56 -43q37 -19 87.5 -30.5t106 -22 t113 -23.5t110.5 -33q42 -17 78.5 -41.5t63.5 -60t42.5 -83t15.5 -110.5q0 -72 -26 -132.5t-76 -104t-124.5 -67.5t-171.5 -24q-94 0 -174 34t-139 101v-74q0 -32 -16 -46.5t-55 -14.5t-54.5 14.5t-15.5 46.5zM354.5 1293.5q4.5 16.5 20.5 25.5l391 216q12 7 23 9.5t21.5 -2 t23 -18t27.5 -40.5q14 -25 19 -42.5t4 -29t-7.5 -18.5t-15.5 -10l-452 -153q-18 -6 -32 4t-20 26q-7 16 -2.5 32.5z" />
<glyph unicode="&#x15b;" d="M168 40v226q0 33 15.5 47t55.5 14q20 0 31.5 -9.5t19.5 -28.5q34 -92 113 -132.5t210 -40.5q113 0 169 40t56 104q0 34 -21.5 54.5t-57.5 32.5q-42 14 -96.5 20.5t-114.5 13t-120 17t-110 30.5q-32 12 -58.5 30t-45.5 42.5t-30 56t-11 73.5q0 63 25.5 111.5t70 81 t105 49.5t132.5 17q94 0 168.5 -27.5t128.5 -75.5v42q0 33 15.5 47t54.5 14q40 0 55.5 -14t15.5 -47v-178q0 -33 -15.5 -47.5t-55.5 -14.5q-32 0 -45 25q-21 40 -52 67.5t-70.5 43.5t-87.5 22.5t-103 6.5q-91 0 -142.5 -32t-51.5 -91q0 -31 20.5 -50t56.5 -30 q39 -13 91.5 -19t111 -12.5t117.5 -15.5t110 -27q35 -14 64 -32t50.5 -44t33 -60t11.5 -80q0 -63 -24 -114.5t-70.5 -88.5t-114.5 -57.5t-156 -20.5q-102 0 -178.5 28.5t-134.5 85.5v-53q0 -32 -15.5 -46.5t-54.5 -14.5q-40 0 -55.5 14.5t-15.5 46.5zM354.5 1039.5 q4.5 16.5 20.5 25.5l391 216q12 7 23 9.5t21.5 -2t23 -18t27.5 -40.5q14 -25 19 -42.5t4 -29t-7.5 -18.5t-15.5 -10l-452 -153q-18 -6 -32 4t-20 26q-7 16 -2.5 32.5z" />
<glyph unicode="&#x15c;" d="M149 40v282q0 33 15.5 47.5t54.5 14.5q40 0 55 -40q38 -109 121.5 -167.5t207.5 -58.5q63 0 109.5 14.5t77.5 39t47 59.5t16 76q0 62 -31.5 99t-84.5 59q-43 18 -96 30t-108.5 23t-111 24.5t-103.5 34.5q-35 15 -64 36.5t-50.5 51t-33 68t-11.5 88.5q0 73 27 131.5 t75.5 99.5t116 62.5t147.5 21.5q85 0 161 -32t130 -86v57q0 33 15.5 47t54.5 14q40 0 55.5 -14t15.5 -47v-216q0 -33 -15.5 -47t-55.5 -14q-35 0 -48 24q-47 88 -128.5 131.5t-184.5 43.5q-106 0 -162 -48.5t-56 -127.5q0 -41 21 -67t56 -43q37 -19 87.5 -30.5t106 -22 t113 -23.5t110.5 -33q42 -17 78.5 -41.5t63.5 -60t42.5 -83t15.5 -110.5q0 -72 -26 -132.5t-76 -104t-124.5 -67.5t-171.5 -24q-94 0 -174 34t-139 101v-74q0 -32 -16 -46.5t-55 -14.5t-54.5 14.5t-15.5 46.5zM246 1282q0 17 15 30l260 219q21 16 52 16q30 0 52 -16 l260 -219q15 -13 15 -30t-9 -32q-10 -15 -25 -22t-31 3l-262 149l-262 -149q-16 -10 -31 -3t-25 22q-9 15 -9 32z" />
<glyph unicode="&#x15d;" d="M168 40v226q0 33 15.5 47t55.5 14q20 0 31.5 -9.5t19.5 -28.5q34 -92 113 -132.5t210 -40.5q113 0 169 40t56 104q0 34 -21.5 54.5t-57.5 32.5q-42 14 -96.5 20.5t-114.5 13t-120 17t-110 30.5q-32 12 -58.5 30t-45.5 42.5t-30 56t-11 73.5q0 63 25.5 111.5t70 81 t105 49.5t132.5 17q94 0 168.5 -27.5t128.5 -75.5v42q0 33 15.5 47t54.5 14q40 0 55.5 -14t15.5 -47v-178q0 -33 -15.5 -47.5t-55.5 -14.5q-32 0 -45 25q-21 40 -52 67.5t-70.5 43.5t-87.5 22.5t-103 6.5q-91 0 -142.5 -32t-51.5 -91q0 -31 20.5 -50t56.5 -30 q39 -13 91.5 -19t111 -12.5t117.5 -15.5t110 -27q35 -14 64 -32t50.5 -44t33 -60t11.5 -80q0 -63 -24 -114.5t-70.5 -88.5t-114.5 -57.5t-156 -20.5q-102 0 -178.5 28.5t-134.5 85.5v-53q0 -32 -15.5 -46.5t-54.5 -14.5q-40 0 -55.5 14.5t-15.5 46.5zM241 1028q0 17 15 30 l260 219q21 16 52 16q30 0 52 -16l260 -219q15 -13 15 -30t-9 -32q-10 -15 -25 -22t-31 3l-262 149l-262 -149q-16 -10 -31 -3t-25 22q-9 15 -9 32z" />
<glyph unicode="&#x15e;" d="M149 40v282q0 33 15.5 47.5t54.5 14.5q40 0 55 -40q38 -109 121.5 -167.5t207.5 -58.5q63 0 109.5 14.5t77.5 39t47 59.5t16 76q0 62 -31.5 99t-84.5 59q-43 18 -96 30t-108.5 23t-111 24.5t-103.5 34.5q-35 15 -64 36.5t-50.5 51t-33 68t-11.5 88.5q0 73 27 131.5 t75.5 99.5t116 62.5t147.5 21.5q85 0 161 -32t130 -86v57q0 33 15.5 47t54.5 14q40 0 55.5 -14t15.5 -47v-216q0 -33 -15.5 -47t-55.5 -14q-35 0 -48 24q-47 88 -128.5 131.5t-184.5 43.5q-106 0 -162 -48.5t-56 -127.5q0 -41 21 -67t56 -43q37 -19 87.5 -30.5t106 -22 t113 -23.5t110.5 -33q42 -17 78.5 -41.5t63.5 -60t42.5 -83t15.5 -110.5q0 -68 -23.5 -126t-68.5 -101t-112 -69t-154 -31v-86q49 1 85 -11.5t60 -34t36.5 -50.5t12.5 -62q0 -40 -15 -72.5t-44 -56.5t-72.5 -37.5t-102.5 -13.5q-63 0 -123.5 11.5t-109.5 33.5q-17 8 -19 27 t5 37q8 19 23 31.5t33 4.5q36 -14 84.5 -23t96.5 -9q47 0 72 16.5t25 46.5q0 40 -35.5 54.5t-100.5 9.5q-7 0 -13.5 1t-12 5t-9 12t-3.5 22v152q-136 24 -226 126v-74q0 -32 -16 -46.5t-55 -14.5t-54.5 14.5t-15.5 46.5z" />
<glyph unicode="&#x15f;" d="M168 40v226q0 33 15.5 47t55.5 14q20 0 31.5 -9.5t19.5 -28.5q34 -92 113 -132.5t210 -40.5q113 0 169 40t56 104q0 34 -21.5 54.5t-57.5 32.5q-42 14 -96.5 20.5t-114.5 13t-120 17t-110 30.5q-32 12 -58.5 30t-45.5 42.5t-30 56t-11 73.5q0 63 25.5 111.5t70 81 t105 49.5t132.5 17q94 0 168.5 -27.5t128.5 -75.5v42q0 33 15.5 47t54.5 14q40 0 55.5 -14t15.5 -47v-178q0 -33 -15.5 -47.5t-55.5 -14.5q-32 0 -45 25q-21 40 -52 67.5t-70.5 43.5t-87.5 22.5t-103 6.5q-91 0 -142.5 -32t-51.5 -91q0 -31 20.5 -50t56.5 -30 q39 -13 91.5 -19t111 -12.5t117.5 -15.5t110 -27q35 -14 64 -32t50.5 -44t33 -60t11.5 -80q0 -60 -22 -109.5t-64.5 -86.5t-105 -58.5t-143.5 -25.5v-86q49 1 85.5 -11.5t60.5 -34t36 -50.5t12 -62q0 -40 -14.5 -72.5t-43.5 -56.5t-73 -37.5t-103 -13.5q-63 0 -123 11.5 t-109 33.5q-17 8 -19.5 27t5.5 37q7 19 22 31.5t33 4.5q37 -14 85.5 -23t96.5 -9q47 0 71.5 16.5t24.5 46.5q0 40 -35.5 54.5t-100.5 9.5q-7 0 -13.5 1t-12 5t-9 12t-3.5 22v151q-67 10 -120 36.5t-96 69.5v-53q0 -32 -15.5 -46.5t-54.5 -14.5q-40 0 -55.5 14.5t-15.5 46.5z " />
<glyph unicode="&#x160;" d="M149 40v282q0 33 15.5 47.5t54.5 14.5q40 0 55 -40q38 -109 121.5 -167.5t207.5 -58.5q63 0 109.5 14.5t77.5 39t47 59.5t16 76q0 62 -31.5 99t-84.5 59q-43 18 -96 30t-108.5 23t-111 24.5t-103.5 34.5q-35 15 -64 36.5t-50.5 51t-33 68t-11.5 88.5q0 73 27 131.5 t75.5 99.5t116 62.5t147.5 21.5q85 0 161 -32t130 -86v57q0 33 15.5 47t54.5 14q40 0 55.5 -14t15.5 -47v-216q0 -33 -15.5 -47t-55.5 -14q-35 0 -48 24q-47 88 -128.5 131.5t-184.5 43.5q-106 0 -162 -48.5t-56 -127.5q0 -41 21 -67t56 -43q37 -19 87.5 -30.5t106 -22 t113 -23.5t110.5 -33q42 -17 78.5 -41.5t63.5 -60t42.5 -83t15.5 -110.5q0 -72 -26 -132.5t-76 -104t-124.5 -67.5t-171.5 -24q-94 0 -174 34t-139 101v-74q0 -32 -16 -46.5t-55 -14.5t-54.5 14.5t-15.5 46.5zM226 1494q0 17 9 32q10 15 25 22t31 -2l262 -150l262 150 q16 9 31 2t25 -22q9 -15 9 -32t-15 -30l-260 -218q-22 -17 -52 -17q-31 0 -52 17l-260 218q-15 13 -15 30z" />
<glyph unicode="&#x161;" d="M168 40v226q0 33 15.5 47t55.5 14q20 0 31.5 -9.5t19.5 -28.5q34 -92 113 -132.5t210 -40.5q113 0 169 40t56 104q0 34 -21.5 54.5t-57.5 32.5q-42 14 -96.5 20.5t-114.5 13t-120 17t-110 30.5q-32 12 -58.5 30t-45.5 42.5t-30 56t-11 73.5q0 63 25.5 111.5t70 81 t105 49.5t132.5 17q94 0 168.5 -27.5t128.5 -75.5v42q0 33 15.5 47t54.5 14q40 0 55.5 -14t15.5 -47v-178q0 -33 -15.5 -47.5t-55.5 -14.5q-32 0 -45 25q-21 40 -52 67.5t-70.5 43.5t-87.5 22.5t-103 6.5q-91 0 -142.5 -32t-51.5 -91q0 -31 20.5 -50t56.5 -30 q39 -13 91.5 -19t111 -12.5t117.5 -15.5t110 -27q35 -14 64 -32t50.5 -44t33 -60t11.5 -80q0 -63 -24 -114.5t-70.5 -88.5t-114.5 -57.5t-156 -20.5q-102 0 -178.5 28.5t-134.5 85.5v-53q0 -32 -15.5 -46.5t-54.5 -14.5q-40 0 -55.5 14.5t-15.5 46.5zM243 1249q0 17 9 32 q10 15 25 22t31 -2l262 -150l262 150q16 9 31 2t25 -22q9 -15 9 -32t-15 -30l-260 -218q-22 -17 -52 -17q-31 0 -52 17l-260 218q-15 13 -15 30z" />
<glyph unicode="&#x162;" d="M115 697v355q0 36 13.5 50t45.5 14h806q32 0 46 -14t14 -50v-355q0 -32 -15.5 -46.5t-55.5 -14.5q-39 0 -54.5 14.5t-15.5 46.5v291h-251v-860h222q31 0 45 -14t14 -50t-14 -50t-45 -14h-585q-32 0 -45.5 14t-13.5 50t13.5 50t45.5 14h222v860h-251v-291 q0 -32 -15.5 -46.5t-55.5 -14.5q-39 0 -54.5 14.5t-15.5 46.5zM423 -441l59 274q3 15 13 22.5t26 7.5h134q18 0 24.5 -14t-4.5 -34l-144 -274q-9 -16 -25.5 -25.5t-36.5 -9.5q-26 0 -38 14.5t-8 38.5z" />
<glyph unicode="&#x163;" d="M110 729q0 36 13.5 50t45.5 14h191v282q0 33 15.5 47t55.5 14q39 0 54.5 -14t15.5 -47v-282h386q32 0 46 -14t14 -50q0 -35 -14 -49t-46 -14h-386v-343q0 -51 8.5 -90t27.5 -65t51 -38.5t79 -12.5q66 0 135.5 26t131.5 67q22 14 44 7t40 -41t11.5 -55t-30.5 -36 q-35 -23 -76 -42t-84.5 -33.5t-87 -22.5t-84.5 -8q-81 0 -139.5 22t-95.5 63.5t-54.5 103.5t-17.5 143v355h-191q-32 0 -45.5 14t-13.5 49zM479 -441l59 274q3 15 13 22.5t26 7.5h134q18 0 24.5 -14t-4.5 -34l-144 -274q-9 -16 -25.5 -25.5t-36.5 -9.5q-26 0 -38 14.5 t-8 38.5z" />
<glyph unicode="&#x164;" d="M115 697v355q0 36 13.5 50t45.5 14h806q32 0 46 -14t14 -50v-355q0 -32 -15.5 -46.5t-55.5 -14.5q-39 0 -54.5 14.5t-15.5 46.5v291h-251v-860h222q31 0 45 -14t14 -50t-14 -50t-45 -14h-585q-32 0 -45.5 14t-13.5 50t13.5 50t45.5 14h222v860h-251v-291 q0 -32 -15.5 -46.5t-55.5 -14.5q-39 0 -54.5 14.5t-15.5 46.5zM250 1484q0 17 9 32q10 15 25 22t31 -2l262 -150l262 150q16 9 31 2t25 -22q9 -15 9 -32t-15 -30l-260 -218q-22 -17 -52 -17q-31 0 -52 17l-260 218q-15 13 -15 30z" />
<glyph unicode="&#x165;" d="M110 729q0 36 13.5 50t45.5 14h191v282q0 33 15.5 47t55.5 14q39 0 54.5 -14t15.5 -47v-282h386q32 0 46 -14t14 -50q0 -35 -14 -49t-46 -14h-386v-343q0 -51 8.5 -90t27.5 -65t51 -38.5t79 -12.5q66 0 135.5 26t131.5 67q22 14 44 7t40 -41t11.5 -55t-30.5 -36 q-35 -23 -76 -42t-84.5 -33.5t-87 -22.5t-84.5 -8q-81 0 -139.5 22t-95.5 63.5t-54.5 103.5t-17.5 143v355h-191q-32 0 -45.5 14t-13.5 49zM695 1012l59 274q3 15 13 22.5t26 7.5h134q18 0 24.5 -14t-4.5 -34l-144 -274q-9 -16 -25.5 -25.5t-36.5 -9.5q-26 0 -38 14.5 t-8 38.5z" />
<glyph unicode="&#x166;" d="M115 697v355q0 36 13.5 50t45.5 14h806q32 0 46 -14t14 -50v-355q0 -32 -15.5 -46.5t-55.5 -14.5q-39 0 -54.5 14.5t-15.5 46.5v291h-251v-437h193q32 0 46 -14t14 -50t-14 -50t-46 -14h-193v-295h222q31 0 45 -14t14 -50t-14 -50t-45 -14h-585q-32 0 -45.5 14t-13.5 50 t13.5 50t45.5 14h222v295h-194q-32 0 -45.5 14t-13.5 50t13.5 50t45.5 14h194v437h-251v-291q0 -32 -15.5 -46.5t-55.5 -14.5q-39 0 -54.5 14.5t-15.5 46.5z" />
<glyph unicode="&#x167;" d="M110 729q0 36 13.5 50t45.5 14h191v282q0 33 15.5 47t55.5 14q39 0 54.5 -14t15.5 -47v-282h386q32 0 46 -14t14 -50q0 -35 -14 -49t-46 -14h-386v-125h256q32 0 45.5 -14t13.5 -49q0 -36 -13.5 -50t-45.5 -14h-256v-91q0 -51 8.5 -90t27.5 -65t51 -38.5t79 -12.5 q66 0 135.5 26t131.5 67q22 14 44 7t40 -41t11.5 -55t-30.5 -36q-35 -23 -76 -42t-84.5 -33.5t-87 -22.5t-84.5 -8q-81 0 -139.5 22t-95.5 63.5t-54.5 103.5t-17.5 143v103h-132q-32 0 -45.5 14t-13.5 50q0 35 13.5 49t45.5 14h132v125h-191q-32 0 -45.5 14t-13.5 49z" />
<glyph unicode="&#x168;" d="M66 1052q0 36 13.5 50t45.5 14h305q32 0 45.5 -14t13.5 -50t-13.5 -50t-45.5 -14h-106v-600q0 -73 15.5 -124.5t47 -83.5t79 -47t111.5 -15t111.5 15t79 47t47 83.5t15.5 124.5v600h-105q-32 0 -45.5 14t-13.5 50t13.5 50t45.5 14h304q32 0 46 -14t14 -50t-14 -50 t-46 -14h-58v-619q0 -100 -27.5 -173.5t-78 -121.5t-124 -71.5t-164.5 -23.5q-92 0 -165 23.5t-123.5 71.5t-78 121.5t-27.5 173.5v619h-58q-32 0 -45.5 14t-13.5 50zM250.5 1347q1.5 18 16.5 31q56 47 102 66t86 19q35 0 67 -9.5t63 -20t61 -20t62 -9.5q28 0 61 10t66 29 q16 10 31 4t27 -27t10.5 -39t-16.5 -31q-56 -47 -101.5 -66t-86.5 -19q-34 0 -66 9.5t-63 20t-61.5 20t-62.5 9.5q-28 0 -61 -10t-65 -29q-16 -10 -31 -4t-28 27q-12 21 -10.5 39z" />
<glyph unicode="&#x169;" d="M68 805q0 35 13.5 49.5t45.5 14.5h159q32 0 45.5 -14.5t13.5 -49.5v-505q0 -41 9.5 -74t28 -57t47.5 -37.5t67 -13.5q60 0 114.5 26.5t96 73.5t66 112t24.5 142v269h-133q-32 0 -46 14t-14 50q0 35 14 49.5t46 14.5h215q32 0 45.5 -14.5t13.5 -49.5v-677h77 q32 0 45.5 -14t13.5 -50t-13.5 -50t-45.5 -14h-149q-32 0 -46 13.5t-14 49.5v114q-62 -97 -144.5 -147.5t-179.5 -50.5q-65 0 -116.5 22t-87.5 61.5t-55.5 96t-19.5 127.5v455h-77q-32 0 -45.5 14t-13.5 50zM224.5 1103q1.5 18 16.5 31q56 47 102 66t86 19q35 0 67 -9.5 t63 -20t61 -20t62 -9.5q28 0 61 10t66 29q16 10 31 4t27 -27t10.5 -39t-16.5 -31q-56 -47 -101.5 -66t-86.5 -19q-34 0 -66 9.5t-63 20t-61.5 20t-62.5 9.5q-28 0 -61 -10t-65 -29q-16 -10 -31 -4t-28 27q-12 21 -10.5 39z" />
<glyph unicode="&#x16a;" d="M66 1052q0 36 13.5 50t45.5 14h305q32 0 45.5 -14t13.5 -50t-13.5 -50t-45.5 -14h-106v-600q0 -73 15.5 -124.5t47 -83.5t79 -47t111.5 -15t111.5 15t79 47t47 83.5t15.5 124.5v600h-105q-32 0 -45.5 14t-13.5 50t13.5 50t45.5 14h304q32 0 46 -14t14 -50t-14 -50 t-46 -14h-58v-619q0 -100 -27.5 -173.5t-78 -121.5t-124 -71.5t-164.5 -23.5q-92 0 -165 23.5t-123.5 71.5t-78 121.5t-27.5 173.5v619h-58q-32 0 -45.5 14t-13.5 50zM254 1361q0 36 13.5 50t45.5 14h528q32 0 46 -14t14 -50q0 -35 -14 -49.5t-46 -14.5h-528 q-32 0 -45.5 14.5t-13.5 49.5z" />
<glyph unicode="&#x16b;" d="M68 805q0 35 13.5 49.5t45.5 14.5h159q32 0 45.5 -14.5t13.5 -49.5v-505q0 -41 9.5 -74t28 -57t47.5 -37.5t67 -13.5q60 0 114.5 26.5t96 73.5t66 112t24.5 142v269h-133q-32 0 -46 14t-14 50q0 35 14 49.5t46 14.5h215q32 0 45.5 -14.5t13.5 -49.5v-677h77 q32 0 45.5 -14t13.5 -50t-13.5 -50t-45.5 -14h-149q-32 0 -46 13.5t-14 49.5v114q-62 -97 -144.5 -147.5t-179.5 -50.5q-65 0 -116.5 22t-87.5 61.5t-55.5 96t-19.5 127.5v455h-77q-32 0 -45.5 14t-13.5 50zM254 1107q0 36 13.5 50t45.5 14h528q32 0 46 -14t14 -50 q0 -35 -14 -49.5t-46 -14.5h-528q-32 0 -45.5 14.5t-13.5 49.5z" />
<glyph unicode="&#x16c;" d="M66 1052q0 36 13.5 50t45.5 14h305q32 0 45.5 -14t13.5 -50t-13.5 -50t-45.5 -14h-106v-600q0 -73 15.5 -124.5t47 -83.5t79 -47t111.5 -15t111.5 15t79 47t47 83.5t15.5 124.5v600h-105q-32 0 -45.5 14t-13.5 50t13.5 50t45.5 14h304q32 0 46 -14t14 -50t-14 -50 t-46 -14h-58v-619q0 -100 -27.5 -173.5t-78 -121.5t-124 -71.5t-164.5 -23.5q-92 0 -165 23.5t-123.5 71.5t-78 121.5t-27.5 173.5v619h-58q-32 0 -45.5 14t-13.5 50zM223 1474q-3 12 2 22.5t15 18t22.5 12t25.5 4.5q12 0 22 -4.5t14 -14.5q33 -64 94.5 -90t158.5 -26 t158.5 26t94.5 90q5 10 14.5 14.5t22.5 4.5q12 0 24.5 -4.5t22.5 -12t15 -18t3 -22.5q-12 -49 -41.5 -88.5t-74.5 -67t-105.5 -42.5t-133.5 -15t-133 15t-105.5 42.5t-75 67t-40.5 88.5z" />
<glyph unicode="&#x16d;" d="M68 805q0 35 13.5 49.5t45.5 14.5h159q32 0 45.5 -14.5t13.5 -49.5v-505q0 -41 9.5 -74t28 -57t47.5 -37.5t67 -13.5q60 0 114.5 26.5t96 73.5t66 112t24.5 142v269h-133q-32 0 -46 14t-14 50q0 35 14 49.5t46 14.5h215q32 0 45.5 -14.5t13.5 -49.5v-677h77 q32 0 45.5 -14t13.5 -50t-13.5 -50t-45.5 -14h-149q-32 0 -46 13.5t-14 49.5v114q-62 -97 -144.5 -147.5t-179.5 -50.5q-65 0 -116.5 22t-87.5 61.5t-55.5 96t-19.5 127.5v455h-77q-32 0 -45.5 14t-13.5 50zM204 1220q-3 12 2 22.5t15 18t22.5 12t25.5 4.5q12 0 22 -4.5 t14 -14.5q33 -64 94.5 -90t158.5 -26t158.5 26t94.5 90q5 10 14.5 14.5t22.5 4.5q12 0 24.5 -4.5t22.5 -12t15 -18t3 -22.5q-12 -49 -41.5 -88.5t-74.5 -67t-105.5 -42.5t-133.5 -15t-133 15t-105.5 42.5t-75 67t-40.5 88.5z" />
<glyph unicode="&#x16e;" d="M66 1052q0 36 13.5 50t45.5 14h305q32 0 45.5 -14t13.5 -50t-13.5 -50t-45.5 -14h-106v-600q0 -73 15.5 -124.5t47 -83.5t79 -47t111.5 -15t111.5 15t79 47t47 83.5t15.5 124.5v600h-105q-32 0 -45.5 14t-13.5 50t13.5 50t45.5 14h304q32 0 46 -14t14 -50t-14 -50 t-46 -14h-58v-619q0 -100 -27.5 -173.5t-78 -121.5t-124 -71.5t-164.5 -23.5q-92 0 -165 23.5t-123.5 71.5t-78 121.5t-27.5 173.5v619h-58q-32 0 -45.5 14t-13.5 50zM349 1458q0 48 18 90.5t49 73.5t73.5 49.5t90.5 18.5t90.5 -18.5t73.5 -49.5t49 -73.5t18 -90.5t-18 -90 t-49 -73t-73.5 -49.5t-90.5 -18.5t-90.5 18.5t-73.5 49.5t-49 73t-18 90zM462 1458q0 -24 9 -45.5t25 -37.5t38 -25.5t46 -9.5t46 9.5t38 25.5t25 37.5t9 45.5q0 25 -9 46.5t-25 37.5t-38 25.5t-46 9.5t-46 -9.5t-38 -25.5t-25 -37.5t-9 -46.5z" />
<glyph unicode="&#x16f;" d="M68 805q0 35 13.5 49.5t45.5 14.5h159q32 0 45.5 -14.5t13.5 -49.5v-505q0 -41 9.5 -74t28 -57t47.5 -37.5t67 -13.5q60 0 114.5 26.5t96 73.5t66 112t24.5 142v269h-133q-32 0 -46 14t-14 50q0 35 14 49.5t46 14.5h215q32 0 45.5 -14.5t13.5 -49.5v-677h77 q32 0 45.5 -14t13.5 -50t-13.5 -50t-45.5 -14h-149q-32 0 -46 13.5t-14 49.5v114q-62 -97 -144.5 -147.5t-179.5 -50.5q-65 0 -116.5 22t-87.5 61.5t-55.5 96t-19.5 127.5v455h-77q-32 0 -45.5 14t-13.5 50zM321 1232q0 48 18 90.5t49 73.5t73.5 49.5t90.5 18.5t90.5 -18.5 t73.5 -49.5t49 -73.5t18 -90.5t-18 -90t-49 -73t-73.5 -49.5t-90.5 -18.5t-90.5 18.5t-73.5 49.5t-49 73t-18 90zM434 1232q0 -24 9 -45.5t25 -37.5t38 -25.5t46 -9.5t46 9.5t38 25.5t25 37.5t9 45.5q0 25 -9 46.5t-25 37.5t-38 25.5t-46 9.5t-46 -9.5t-38 -25.5t-25 -37.5 t-9 -46.5z" />
<glyph unicode="&#x170;" d="M66 1052q0 36 13.5 50t45.5 14h305q32 0 45.5 -14t13.5 -50t-13.5 -50t-45.5 -14h-106v-600q0 -73 15.5 -124.5t47 -83.5t79 -47t111.5 -15t111.5 15t79 47t47 83.5t15.5 124.5v600h-105q-32 0 -45.5 14t-13.5 50t13.5 50t45.5 14h304q32 0 46 -14t14 -50t-14 -50 t-46 -14h-58v-619q0 -100 -27.5 -173.5t-78 -121.5t-124 -71.5t-164.5 -23.5q-92 0 -165 23.5t-123.5 71.5t-78 121.5t-27.5 173.5v619h-58q-32 0 -45.5 14t-13.5 50zM312 1289q0 15 12 27l219 212q13 12 28 19t33 7q14 0 30.5 -5.5t31.5 -15.5t24.5 -23t9.5 -27 q0 -12 -5.5 -21.5t-14.5 -16.5l-271 -189q-17 -12 -40 -12q-9 0 -19 3t-18.5 9t-14 14.5t-5.5 18.5zM641 1289q0 15 12 27l219 212q13 12 28 19t33 7q14 0 30.5 -5.5t31.5 -15.5t24.5 -23t9.5 -27q0 -12 -5.5 -21.5t-14.5 -16.5l-271 -189q-17 -12 -40 -12q-9 0 -19 3 t-18.5 9t-14 14.5t-5.5 18.5z" />
<glyph unicode="&#x171;" d="M68 805q0 35 13.5 49.5t45.5 14.5h159q32 0 45.5 -14.5t13.5 -49.5v-505q0 -41 9.5 -74t28 -57t47.5 -37.5t67 -13.5q60 0 114.5 26.5t96 73.5t66 112t24.5 142v269h-133q-32 0 -46 14t-14 50q0 35 14 49.5t46 14.5h215q32 0 45.5 -14.5t13.5 -49.5v-677h77 q32 0 45.5 -14t13.5 -50t-13.5 -50t-45.5 -14h-149q-32 0 -46 13.5t-14 49.5v114q-62 -97 -144.5 -147.5t-179.5 -50.5q-65 0 -116.5 22t-87.5 61.5t-55.5 96t-19.5 127.5v455h-77q-32 0 -45.5 14t-13.5 50zM274 1035q0 15 12 27l219 212q13 12 28 19t33 7q14 0 30.5 -5.5 t31.5 -15.5t24.5 -23t9.5 -27q0 -12 -5.5 -21.5t-14.5 -16.5l-271 -189q-17 -12 -40 -12q-9 0 -19 3t-18.5 9t-14 14.5t-5.5 18.5zM603 1035q0 15 12 27l219 212q13 12 28 19t33 7q14 0 30.5 -5.5t31.5 -15.5t24.5 -23t9.5 -27q0 -12 -5.5 -21.5t-14.5 -16.5l-271 -189 q-17 -12 -40 -12q-9 0 -19 3t-18.5 9t-14 14.5t-5.5 18.5z" />
<glyph unicode="&#x172;" d="M66 1052q0 36 13.5 50t45.5 14h305q32 0 45.5 -14t13.5 -50t-13.5 -50t-45.5 -14h-106v-600q0 -73 15.5 -124.5t47 -83.5t79 -47t111.5 -15t111.5 15t79 47t47 83.5t15.5 124.5v600h-105q-32 0 -45.5 14t-13.5 50t13.5 50t45.5 14h304q32 0 46 -14t14 -50t-14 -50 t-46 -14h-58v-619q0 -135 -48 -220.5t-136 -127.5q-48 -44 -82.5 -80.5t-55.5 -68.5t-31 -61t-10 -56q0 -35 20.5 -53t52.5 -18q27 0 54 2.5t52 7.5q19 2 31 -8.5t16 -37.5q4 -29 -3 -44.5t-27 -22.5q-33 -12 -71.5 -18.5t-82.5 -6.5q-89 0 -138.5 48.5t-49.5 131.5 q0 67 35 126.5t96 116.5h-16q-92 0 -165 23.5t-123.5 71.5t-78 121.5t-27.5 173.5v619h-58q-32 0 -45.5 14t-13.5 50z" />
<glyph unicode="&#x173;" d="M68 805q0 35 13.5 49.5t45.5 14.5h159q32 0 45.5 -14.5t13.5 -49.5v-505q0 -41 9.5 -74t28 -57t47.5 -37.5t67 -13.5q60 0 114.5 26.5t96 73.5t66 112t24.5 142v269h-133q-32 0 -46 14t-14 50q0 35 14 49.5t46 14.5h215q32 0 45.5 -14.5t13.5 -49.5v-677h77 q32 0 45.5 -14t13.5 -50t-13.5 -50t-45.5 -14h-13q-84 -78 -120 -136t-36 -109q0 -35 20 -53t52 -18q28 0 55 2.5t52 7.5q18 2 30.5 -8.5t16.5 -37.5q4 -29 -3 -44.5t-28 -22.5q-32 -12 -71 -18.5t-83 -6.5q-88 0 -138 48.5t-50 131.5q0 72 42 137t113 127q-25 2 -36.5 16.5 t-11.5 46.5v114q-62 -97 -144.5 -147.5t-179.5 -50.5q-65 0 -116.5 22t-87.5 61.5t-55.5 96t-19.5 127.5v455h-77q-32 0 -45.5 14t-13.5 50z" />
<glyph unicode="&#x174;" d="M-9 1052q0 36 13.5 50t45.5 14h323q32 0 45.5 -14t13.5 -50t-13.5 -50t-45.5 -14h-137l94 -753l177 553q5 19 21 31.5t46 12.5q31 0 47 -9.5t22 -28.5l176 -559l97 753h-116q-32 0 -45.5 14t-13.5 50t13.5 50t45.5 14h304q32 0 46 -14t14 -50t-14 -50t-46 -14h-50 l-130 -948q-5 -34 -25 -47.5t-56 -13.5t-60.5 14.5t-35.5 46.5l-174 547l-175 -547q-11 -32 -36.5 -46.5t-61.5 -14.5t-55 14t-24 47l-125 948h-46q-32 0 -45.5 14t-13.5 50zM250 1282q0 17 15 30l260 219q21 16 52 16q30 0 52 -16l260 -219q15 -13 15 -30t-9 -32 q-10 -15 -25 -22t-31 3l-262 149l-262 -149q-16 -10 -31 -3t-25 22q-9 15 -9 32z" />
<glyph unicode="&#x175;" d="M-9 805q0 35 13.5 49.5t45.5 14.5h276q32 0 45.5 -14.5t13.5 -49.5q0 -36 -13.5 -50t-45.5 -14h-115l135 -547l157 436q6 19 23 31.5t48 12.5q32 0 49 -9.5t24 -28.5l156 -442l139 547h-95q-32 0 -45.5 14t-13.5 50q0 35 13.5 49.5t45.5 14.5h257q32 0 46 -14.5t14 -49.5 q0 -36 -14 -50t-46 -14h-22l-185 -701q-10 -33 -28 -47t-54 -14q-40 0 -63.5 14.5t-34.5 46.5l-144 408l-145 -408q-12 -32 -36 -46.5t-64 -14.5q-36 0 -53.5 14.5t-26.5 46.5l-181 701h-17q-32 0 -45.5 14t-13.5 50zM250 1028q0 17 15 30l260 219q21 16 52 16q30 0 52 -16 l260 -219q15 -13 15 -30t-9 -32q-10 -15 -25 -22t-31 3l-262 149l-262 -149q-16 -10 -31 -3t-25 22q-9 15 -9 32z" />
<glyph unicode="&#x176;" d="M56 1052q0 36 14 50t46 14h314q32 0 45.5 -14t13.5 -50t-13.5 -50t-45.5 -14h-88l235 -385l237 385h-61q-32 0 -45.5 14t-13.5 50t13.5 50t45.5 14h286q32 0 45.5 -14t13.5 -50t-13.5 -50t-45.5 -14h-64l-327 -526v-334h212q32 0 45.5 -14t13.5 -50t-13.5 -50t-45.5 -14 h-566q-32 0 -45.5 14t-13.5 50t13.5 50t45.5 14h213v334l-326 526h-65q-32 0 -46 14t-14 50zM259 1282q0 17 15 30l260 219q21 16 52 16q30 0 52 -16l260 -219q15 -13 15 -30t-9 -32q-10 -15 -25 -22t-31 3l-262 149l-262 -149q-16 -10 -31 -3t-25 22q-9 15 -9 32z" />
<glyph unicode="&#x177;" d="M47 805q0 35 13.5 49.5t45.5 14.5h333q32 0 45.5 -14.5t13.5 -49.5q0 -36 -13.5 -50t-45.5 -14h-120l265 -529l253 529h-84q-32 0 -45.5 14t-13.5 50q0 35 13.5 49.5t45.5 14.5h295q32 0 45.5 -14.5t13.5 -49.5q0 -36 -13.5 -50t-45.5 -14h-58l-385 -788 q-45 -92 -88 -156t-93 -104.5t-109.5 -59.5t-136.5 -22q-28 -1 -46 12t-22 51q-4 41 9.5 59t39.5 20q65 4 110.5 17.5t83 47t73.5 93.5t83 155l-344 675h-59q-32 0 -45.5 14t-13.5 50zM265 1028q0 17 15 30l260 219q21 16 52 16q30 0 52 -16l260 -219q15 -13 15 -30t-9 -32 q-10 -15 -25 -22t-31 3l-262 149l-262 -149q-16 -10 -31 -3t-25 22q-9 15 -9 32z" />
<glyph unicode="&#x178;" d="M56 1052q0 36 14 50t46 14h314q32 0 45.5 -14t13.5 -50t-13.5 -50t-45.5 -14h-88l235 -385l237 385h-61q-32 0 -45.5 14t-13.5 50t13.5 50t45.5 14h286q32 0 45.5 -14t13.5 -50t-13.5 -50t-45.5 -14h-64l-327 -526v-334h212q32 0 45.5 -14t13.5 -50t-13.5 -50t-45.5 -14 h-566q-32 0 -45.5 14t-13.5 50t13.5 50t45.5 14h213v334l-326 526h-65q-32 0 -46 14t-14 50zM253 1377q0 25 9.5 46t25.5 37t37 25.5t45 9.5q25 0 46 -9.5t37 -25.5t25.5 -37t9.5 -46q0 -24 -9.5 -45t-25.5 -37t-37 -25.5t-46 -9.5q-24 0 -45 9.5t-37 25.5t-25.5 37t-9.5 45 zM666 1377q0 25 9.5 46t25.5 37t37.5 25.5t45.5 9.5t45.5 -9.5t37.5 -25.5t25 -37t9 -46q0 -24 -9 -45t-25 -37t-37.5 -25.5t-45.5 -9.5t-45.5 9.5t-37.5 25.5t-25.5 37t-9.5 45z" />
<glyph unicode="&#x179;" d="M157 64q0 13 3.5 22.5t9.5 17.5l620 884h-472v-234q0 -33 -15.5 -47t-55.5 -14q-39 0 -54.5 14t-15.5 47v298q0 36 13.5 50t45.5 14h692q32 0 45.5 -14t13.5 -50q0 -24 -9 -37l-624 -887h500v253q0 33 15.5 47t55.5 14q39 0 54.5 -14t15.5 -47v-317q0 -36 -13.5 -50 t-45.5 -14h-720q-32 0 -45.5 14t-13.5 50zM373.5 1293.5q4.5 16.5 20.5 25.5l391 216q12 7 23 9.5t21.5 -2t23 -18t27.5 -40.5q14 -25 19 -42.5t4 -29t-7.5 -18.5t-15.5 -10l-452 -153q-18 -6 -32 4t-20 26q-7 16 -2.5 32.5z" />
<glyph unicode="&#x17a;" d="M167 64q0 28 13 42l575 635h-428v-140q0 -33 -15.5 -47t-54.5 -14q-40 0 -55.5 14t-15.5 47v204q0 35 13.5 49.5t45.5 14.5h673q32 0 46 -14.5t14 -49.5q0 -28 -14 -44l-574 -633h456v162q0 32 15.5 46.5t54.5 14.5q40 0 55.5 -14.5t15.5 -46.5v-226q0 -36 -13.5 -50 t-45.5 -14h-701q-32 0 -46 14t-14 50zM364.5 1039.5q4.5 16.5 20.5 25.5l391 216q12 7 23 9.5t21.5 -2t23 -18t27.5 -40.5q14 -25 19 -42.5t4 -29t-7.5 -18.5t-15.5 -10l-452 -153q-18 -6 -32 4t-20 26q-7 16 -2.5 32.5z" />
<glyph unicode="&#x17b;" d="M157 64q0 13 3.5 22.5t9.5 17.5l620 884h-472v-234q0 -33 -15.5 -47t-55.5 -14q-39 0 -54.5 14t-15.5 47v298q0 36 13.5 50t45.5 14h692q32 0 45.5 -14t13.5 -50q0 -24 -9 -37l-624 -887h500v253q0 33 15.5 47t55.5 14q39 0 54.5 -14t15.5 -47v-317q0 -36 -13.5 -50 t-45.5 -14h-720q-32 0 -45.5 14t-13.5 50zM445 1401q0 27 10 51.5t28 42.5t42.5 28t51.5 10t51.5 -10t42.5 -28t28.5 -42.5t10.5 -51.5t-10.5 -51.5t-28.5 -42.5t-42.5 -28.5t-51.5 -10.5t-51.5 10.5t-42.5 28.5t-28 42.5t-10 51.5z" />
<glyph unicode="&#x17c;" d="M167 64q0 28 13 42l575 635h-428v-140q0 -33 -15.5 -47t-54.5 -14q-40 0 -55.5 14t-15.5 47v204q0 35 13.5 49.5t45.5 14.5h673q32 0 46 -14.5t14 -49.5q0 -28 -14 -44l-574 -633h456v162q0 32 15.5 46.5t54.5 14.5q40 0 55.5 -14.5t15.5 -46.5v-226q0 -36 -13.5 -50 t-45.5 -14h-701q-32 0 -46 14t-14 50zM454 1147q0 27 10 51.5t28 42.5t42.5 28t51.5 10t51.5 -10t42.5 -28t28.5 -42.5t10.5 -51.5t-10.5 -51.5t-28.5 -42.5t-42.5 -28.5t-51.5 -10.5t-51.5 10.5t-42.5 28.5t-28 42.5t-10 51.5z" />
<glyph unicode="&#x17d;" d="M157 64q0 13 3.5 22.5t9.5 17.5l620 884h-472v-234q0 -33 -15.5 -47t-55.5 -14q-39 0 -54.5 14t-15.5 47v298q0 36 13.5 50t45.5 14h692q32 0 45.5 -14t13.5 -50q0 -24 -9 -37l-624 -887h500v253q0 33 15.5 47t55.5 14q39 0 54.5 -14t15.5 -47v-317q0 -36 -13.5 -50 t-45.5 -14h-720q-32 0 -45.5 14t-13.5 50zM258 1484q0 17 9 32q10 15 25 22t31 -2l262 -150l262 150q16 9 31 2t25 -22q9 -15 9 -32t-15 -30l-260 -218q-22 -17 -52 -17q-31 0 -52 17l-260 218q-15 13 -15 30z" />
<glyph unicode="&#x17e;" d="M167 64q0 28 13 42l575 635h-428v-140q0 -33 -15.5 -47t-54.5 -14q-40 0 -55.5 14t-15.5 47v204q0 35 13.5 49.5t45.5 14.5h673q32 0 46 -14.5t14 -49.5q0 -28 -14 -44l-574 -633h456v162q0 32 15.5 46.5t54.5 14.5q40 0 55.5 -14.5t15.5 -46.5v-226q0 -36 -13.5 -50 t-45.5 -14h-701q-32 0 -46 14t-14 50zM259 1240q0 17 9 32q10 15 25 22t31 -2l262 -150l262 150q16 9 31 2t25 -22q9 -15 9 -32t-15 -30l-260 -218q-22 -17 -52 -17q-31 0 -52 17l-260 218q-15 13 -15 30z" />
<glyph unicode="&#x192;" d="M35.5 -207.5q-9.5 18.5 1.5 57.5q10 39 29.5 49.5t44.5 2.5q45 -14 85.5 -20.5t85.5 -6.5q70 0 110.5 42.5t50.5 133.5l62 615h-185q-32 0 -46 14t-14 49q0 36 14 50t46 14h197l15 144q15 146 97.5 223.5t216.5 77.5q50 0 100.5 -7t97.5 -22q25 -8 34.5 -26t-1.5 -57 q-10 -39 -30 -49.5t-44 -3.5q-45 15 -85.5 21.5t-85.5 6.5q-71 0 -111 -42.5t-50 -133.5l-13 -132h220q32 0 45.5 -14t13.5 -50q0 -35 -13.5 -49t-45.5 -14h-233l-63 -627q-15 -146 -97.5 -223.5t-216.5 -77.5q-50 0 -100.5 7t-97.5 22q-25 7 -34.5 25.5z" />
<glyph unicode="&#x218;" d="M149 40v282q0 33 15.5 47.5t54.5 14.5q40 0 55 -40q38 -109 121.5 -167.5t207.5 -58.5q63 0 109.5 14.5t77.5 39t47 59.5t16 76q0 62 -31.5 99t-84.5 59q-43 18 -96 30t-108.5 23t-111 24.5t-103.5 34.5q-35 15 -64 36.5t-50.5 51t-33 68t-11.5 88.5q0 73 27 131.5 t75.5 99.5t116 62.5t147.5 21.5q85 0 161 -32t130 -86v57q0 33 15.5 47t54.5 14q40 0 55.5 -14t15.5 -47v-216q0 -33 -15.5 -47t-55.5 -14q-35 0 -48 24q-47 88 -128.5 131.5t-184.5 43.5q-106 0 -162 -48.5t-56 -127.5q0 -41 21 -67t56 -43q37 -19 87.5 -30.5t106 -22 t113 -23.5t110.5 -33q42 -17 78.5 -41.5t63.5 -60t42.5 -83t15.5 -110.5q0 -72 -26 -132.5t-76 -104t-124.5 -67.5t-171.5 -24q-94 0 -174 34t-139 101v-74q0 -32 -16 -46.5t-55 -14.5t-54.5 14.5t-15.5 46.5zM432 -441l59 274q3 15 13 22.5t26 7.5h134q18 0 24.5 -14 t-4.5 -34l-144 -274q-9 -16 -25.5 -25.5t-36.5 -9.5q-26 0 -38 14.5t-8 38.5z" />
<glyph unicode="&#x219;" d="M168 40v226q0 33 15.5 47t55.5 14q20 0 31.5 -9.5t19.5 -28.5q34 -92 113 -132.5t210 -40.5q113 0 169 40t56 104q0 34 -21.5 54.5t-57.5 32.5q-42 14 -96.5 20.5t-114.5 13t-120 17t-110 30.5q-32 12 -58.5 30t-45.5 42.5t-30 56t-11 73.5q0 63 25.5 111.5t70 81 t105 49.5t132.5 17q94 0 168.5 -27.5t128.5 -75.5v42q0 33 15.5 47t54.5 14q40 0 55.5 -14t15.5 -47v-178q0 -33 -15.5 -47.5t-55.5 -14.5q-32 0 -45 25q-21 40 -52 67.5t-70.5 43.5t-87.5 22.5t-103 6.5q-91 0 -142.5 -32t-51.5 -91q0 -31 20.5 -50t56.5 -30 q39 -13 91.5 -19t111 -12.5t117.5 -15.5t110 -27q35 -14 64 -32t50.5 -44t33 -60t11.5 -80q0 -63 -24 -114.5t-70.5 -88.5t-114.5 -57.5t-156 -20.5q-102 0 -178.5 28.5t-134.5 85.5v-53q0 -32 -15.5 -46.5t-54.5 -14.5q-40 0 -55.5 14.5t-15.5 46.5zM432 -441l59 274 q3 15 13 22.5t26 7.5h134q18 0 24.5 -14t-4.5 -34l-144 -274q-9 -16 -25.5 -25.5t-36.5 -9.5q-26 0 -38 14.5t-8 38.5z" />
<glyph unicode="&#x237;" d="M179.5 -248.5q-6.5 21.5 11.5 54.5q18 34 40 41t43 -7q63 -40 132.5 -66.5t134.5 -26.5q47 0 79 13t51.5 38.5t28 64.5t8.5 91v787h-398q-32 0 -45.5 14t-13.5 50q0 35 13.5 49.5t45.5 14.5h480q32 0 45.5 -14.5t13.5 -49.5v-863q0 -81 -17.5 -143t-54.5 -104 t-95.5 -63.5t-140.5 -21.5q-40 0 -83.5 8t-87 22t-85 33.5t-75.5 41.5q-24 15 -30.5 36.5z" />
<glyph unicode="&#x2c6;" d="M250 1028q0 17 15 30l260 219q21 16 52 16q30 0 52 -16l260 -219q15 -13 15 -30t-9 -32q-10 -15 -25 -22t-31 3l-262 149l-262 -149q-16 -10 -31 -3t-25 22q-9 15 -9 32z" />
<glyph unicode="&#x2c7;" d="M250 1240q0 17 9 32q10 15 25 22t31 -2l262 -150l262 150q16 9 31 2t25 -22q9 -15 9 -32t-15 -30l-260 -218q-22 -17 -52 -17q-31 0 -52 17l-260 218q-15 13 -15 30z" />
<glyph unicode="&#x2d8;" d="M223 1220q-3 12 2 22.5t15 18t22.5 12t25.5 4.5q12 0 22 -4.5t14 -14.5q33 -64 94.5 -90t158.5 -26t158.5 26t94.5 90q5 10 14.5 14.5t22.5 4.5q12 0 24.5 -4.5t22.5 -12t15 -18t3 -22.5q-12 -49 -41.5 -88.5t-74.5 -67t-105.5 -42.5t-133.5 -15t-133 15t-105.5 42.5 t-75 67t-40.5 88.5z" />
<glyph unicode="&#x2d9;" d="M445 1147q0 27 10 51.5t28 42.5t42.5 28t51.5 10t51.5 -10t42.5 -28t28.5 -42.5t10.5 -51.5t-10.5 -51.5t-28.5 -42.5t-42.5 -28.5t-51.5 -10.5t-51.5 10.5t-42.5 28.5t-28 42.5t-10 51.5z" />
<glyph unicode="&#x2da;" d="M349 1232q0 48 18 90.5t49 73.5t73.5 49.5t90.5 18.5t90.5 -18.5t73.5 -49.5t49 -73.5t18 -90.5t-18 -90t-49 -73t-73.5 -49.5t-90.5 -18.5t-90.5 18.5t-73.5 49.5t-49 73t-18 90zM462 1232q0 -24 9 -45.5t25 -37.5t38 -25.5t46 -9.5t46 9.5t38 25.5t25 37.5t9 45.5 q0 25 -9 46.5t-25 37.5t-38 25.5t-46 9.5t-46 -9.5t-38 -25.5t-25 -37.5t-9 -46.5z" />
<glyph unicode="&#x2db;" d="M386 -264q0 39 13.5 77t38 74t58.5 70.5t76 68.5h146q-50 -44 -85 -81.5t-57 -70.5t-32.5 -62t-10.5 -57q0 -35 20 -53t52 -18q28 0 55 2.5t52 7.5q18 2 30.5 -8.5t16.5 -37.5q4 -29 -3 -44.5t-28 -22.5q-32 -12 -70.5 -18.5t-83.5 -6.5q-88 0 -138 48.5t-50 131.5z" />
<glyph unicode="&#x2dc;" d="M250.5 1103q1.5 18 16.5 31q56 47 102 66t86 19q35 0 67 -9.5t63 -20t61 -20t62 -9.5q28 0 61 10t66 29q16 10 31 4t27 -27t10.5 -39t-16.5 -31q-56 -47 -101.5 -66t-86.5 -19q-34 0 -66 9.5t-63 20t-61.5 20t-62.5 9.5q-28 0 -61 -10t-65 -29q-16 -10 -31 -4t-28 27 q-12 21 -10.5 39z" />
<glyph unicode="&#x2dd;" d="M312 1035q0 15 12 27l219 212q13 12 28 19t33 7q14 0 30.5 -5.5t31.5 -15.5t24.5 -23t9.5 -27q0 -12 -5.5 -21.5t-14.5 -16.5l-271 -189q-17 -12 -40 -12q-9 0 -19 3t-18.5 9t-14 14.5t-5.5 18.5zM641 1035q0 15 12 27l219 212q13 12 28 19t33 7q14 0 30.5 -5.5 t31.5 -15.5t24.5 -23t9.5 -27q0 -12 -5.5 -21.5t-14.5 -16.5l-271 -189q-17 -12 -40 -12q-9 0 -19 3t-18.5 9t-14 14.5t-5.5 18.5z" />
<glyph unicode="&#x1e80;" d="M-9 1052q0 36 13.5 50t45.5 14h323q32 0 45.5 -14t13.5 -50t-13.5 -50t-45.5 -14h-137l94 -753l177 553q5 19 21 31.5t46 12.5q31 0 47 -9.5t22 -28.5l176 -559l97 753h-116q-32 0 -45.5 14t-13.5 50t13.5 50t45.5 14h304q32 0 46 -14t14 -50t-14 -50t-46 -14h-50 l-130 -948q-5 -34 -25 -47.5t-56 -13.5t-60.5 14.5t-35.5 46.5l-174 547l-175 -547q-11 -32 -36.5 -46.5t-61.5 -14.5t-55 14t-24 47l-125 948h-46q-32 0 -45.5 14t-13.5 50zM260 1412.5q-1 11.5 4 29t20 42.5q15 27 27 40.5t23 18t21.5 2t23.5 -9.5l391 -216 q16 -9 20 -25.5t-3 -32.5q-6 -16 -19.5 -26t-31.5 -4l-452 153q-10 3 -16.5 10t-7.5 18.5z" />
<glyph unicode="&#x1e81;" d="M-9 805q0 35 13.5 49.5t45.5 14.5h276q32 0 45.5 -14.5t13.5 -49.5q0 -36 -13.5 -50t-45.5 -14h-115l135 -547l157 436q6 19 23 31.5t48 12.5q32 0 49 -9.5t24 -28.5l156 -442l139 547h-95q-32 0 -45.5 14t-13.5 50q0 35 13.5 49.5t45.5 14.5h257q32 0 46 -14.5t14 -49.5 q0 -36 -14 -50t-46 -14h-22l-185 -701q-10 -33 -28 -47t-54 -14q-40 0 -63.5 14.5t-34.5 46.5l-144 408l-145 -408q-12 -32 -36 -46.5t-64 -14.5q-36 0 -53.5 14.5t-26.5 46.5l-181 701h-17q-32 0 -45.5 14t-13.5 50zM240 1158.5q-1 11.5 4 29t20 42.5q15 27 27 40.5t23 18 t21.5 2t23.5 -9.5l391 -216q16 -9 20 -25.5t-3 -32.5q-6 -16 -19.5 -26t-31.5 -4l-452 153q-10 3 -16.5 10t-7.5 18.5z" />
<glyph unicode="&#x1e82;" d="M-9 1052q0 36 13.5 50t45.5 14h323q32 0 45.5 -14t13.5 -50t-13.5 -50t-45.5 -14h-137l94 -753l177 553q5 19 21 31.5t46 12.5q31 0 47 -9.5t22 -28.5l176 -559l97 753h-116q-32 0 -45.5 14t-13.5 50t13.5 50t45.5 14h304q32 0 46 -14t14 -50t-14 -50t-46 -14h-50 l-130 -948q-5 -34 -25 -47.5t-56 -13.5t-60.5 14.5t-35.5 46.5l-174 547l-175 -547q-11 -32 -36.5 -46.5t-61.5 -14.5t-55 14t-24 47l-125 948h-46q-32 0 -45.5 14t-13.5 50zM392.5 1293.5q4.5 16.5 20.5 25.5l391 216q12 7 23 9.5t21.5 -2t23 -18t27.5 -40.5 q14 -25 19 -42.5t4 -29t-7.5 -18.5t-15.5 -10l-452 -153q-18 -6 -32 4t-20 26q-7 16 -2.5 32.5z" />
<glyph unicode="&#x1e83;" d="M-9 805q0 35 13.5 49.5t45.5 14.5h276q32 0 45.5 -14.5t13.5 -49.5q0 -36 -13.5 -50t-45.5 -14h-115l135 -547l157 436q6 19 23 31.5t48 12.5q32 0 49 -9.5t24 -28.5l156 -442l139 547h-95q-32 0 -45.5 14t-13.5 50q0 35 13.5 49.5t45.5 14.5h257q32 0 46 -14.5t14 -49.5 q0 -36 -14 -50t-46 -14h-22l-185 -701q-10 -33 -28 -47t-54 -14q-40 0 -63.5 14.5t-34.5 46.5l-144 408l-145 -408q-12 -32 -36 -46.5t-64 -14.5q-36 0 -53.5 14.5t-26.5 46.5l-181 701h-17q-32 0 -45.5 14t-13.5 50zM394.5 1039.5q4.5 16.5 20.5 25.5l391 216q12 7 23 9.5 t21.5 -2t23 -18t27.5 -40.5q14 -25 19 -42.5t4 -29t-7.5 -18.5t-15.5 -10l-452 -153q-18 -6 -32 4t-20 26q-7 16 -2.5 32.5z" />
<glyph unicode="&#x1e84;" d="M-9 1052q0 36 13.5 50t45.5 14h323q32 0 45.5 -14t13.5 -50t-13.5 -50t-45.5 -14h-137l94 -753l177 553q5 19 21 31.5t46 12.5q31 0 47 -9.5t22 -28.5l176 -559l97 753h-116q-32 0 -45.5 14t-13.5 50t13.5 50t45.5 14h304q32 0 46 -14t14 -50t-14 -50t-46 -14h-50 l-130 -948q-5 -34 -25 -47.5t-56 -13.5t-60.5 14.5t-35.5 46.5l-174 547l-175 -547q-11 -32 -36.5 -46.5t-61.5 -14.5t-55 14t-24 47l-125 948h-46q-32 0 -45.5 14t-13.5 50zM253 1377q0 25 9.5 46t25.5 37t37 25.5t45 9.5q25 0 46 -9.5t37 -25.5t25.5 -37t9.5 -46 q0 -24 -9.5 -45t-25.5 -37t-37 -25.5t-46 -9.5q-24 0 -45 9.5t-37 25.5t-25.5 37t-9.5 45zM666 1377q0 25 9.5 46t25.5 37t37.5 25.5t45.5 9.5t45.5 -9.5t37.5 -25.5t25 -37t9 -46q0 -24 -9 -45t-25 -37t-37.5 -25.5t-45.5 -9.5t-45.5 9.5t-37.5 25.5t-25.5 37t-9.5 45z" />
<glyph unicode="&#x1e85;" d="M-9 805q0 35 13.5 49.5t45.5 14.5h276q32 0 45.5 -14.5t13.5 -49.5q0 -36 -13.5 -50t-45.5 -14h-115l135 -547l157 436q6 19 23 31.5t48 12.5q32 0 49 -9.5t24 -28.5l156 -442l139 547h-95q-32 0 -45.5 14t-13.5 50q0 35 13.5 49.5t45.5 14.5h257q32 0 46 -14.5t14 -49.5 q0 -36 -14 -50t-46 -14h-22l-185 -701q-10 -33 -28 -47t-54 -14q-40 0 -63.5 14.5t-34.5 46.5l-144 408l-145 -408q-12 -32 -36 -46.5t-64 -14.5q-36 0 -53.5 14.5t-26.5 46.5l-181 701h-17q-32 0 -45.5 14t-13.5 50zM253 1123q0 25 9.5 46t25.5 37t37 25.5t45 9.5 q25 0 46 -9.5t37 -25.5t25.5 -37t9.5 -46q0 -24 -9.5 -45t-25.5 -37t-37 -25.5t-46 -9.5q-24 0 -45 9.5t-37 25.5t-25.5 37t-9.5 45zM666 1123q0 25 9.5 46t25.5 37t37.5 25.5t45.5 9.5t45.5 -9.5t37.5 -25.5t25 -37t9 -46q0 -24 -9 -45t-25 -37t-37.5 -25.5t-45.5 -9.5 t-45.5 9.5t-37.5 25.5t-25.5 37t-9.5 45z" />
<glyph unicode="&#x1ef2;" d="M56 1052q0 36 14 50t46 14h314q32 0 45.5 -14t13.5 -50t-13.5 -50t-45.5 -14h-88l235 -385l237 385h-61q-32 0 -45.5 14t-13.5 50t13.5 50t45.5 14h286q32 0 45.5 -14t13.5 -50t-13.5 -50t-45.5 -14h-64l-327 -526v-334h212q32 0 45.5 -14t13.5 -50t-13.5 -50t-45.5 -14 h-566q-32 0 -45.5 14t-13.5 50t13.5 50t45.5 14h213v334l-326 526h-65q-32 0 -46 14t-14 50zM268 1412.5q-1 11.5 4 29t20 42.5q15 27 27 40.5t23 18t21.5 2t23.5 -9.5l391 -216q16 -9 20 -25.5t-3 -32.5q-6 -16 -19.5 -26t-31.5 -4l-452 153q-10 3 -16.5 10t-7.5 18.5z" />
<glyph unicode="&#x1ef3;" d="M47 805q0 35 13.5 49.5t45.5 14.5h333q32 0 45.5 -14.5t13.5 -49.5q0 -36 -13.5 -50t-45.5 -14h-120l265 -529l253 529h-84q-32 0 -45.5 14t-13.5 50q0 35 13.5 49.5t45.5 14.5h295q32 0 45.5 -14.5t13.5 -49.5q0 -36 -13.5 -50t-45.5 -14h-58l-385 -788 q-45 -92 -88 -156t-93 -104.5t-109.5 -59.5t-136.5 -22q-28 -1 -46 12t-22 51q-4 41 9.5 59t39.5 20q65 4 110.5 17.5t83 47t73.5 93.5t83 155l-344 675h-59q-32 0 -45.5 14t-13.5 50zM258 1158.5q-1 11.5 4 29t20 42.5q15 27 27 40.5t23 18t21.5 2t23.5 -9.5l391 -216 q16 -9 20 -25.5t-3 -32.5q-6 -16 -19.5 -26t-31.5 -4l-452 153q-10 3 -16.5 10t-7.5 18.5z" />
<glyph unicode="&#x2000;" horiz-adv-x="845" />
<glyph unicode="&#x2001;" horiz-adv-x="1690" />
<glyph unicode="&#x2002;" horiz-adv-x="845" />
<glyph unicode="&#x2003;" horiz-adv-x="1690" />
<glyph unicode="&#x2004;" horiz-adv-x="563" />
<glyph unicode="&#x2005;" horiz-adv-x="422" />
<glyph unicode="&#x2006;" horiz-adv-x="281" />
<glyph unicode="&#x2007;" horiz-adv-x="281" />
<glyph unicode="&#x2008;" horiz-adv-x="211" />
<glyph unicode="&#x2009;" horiz-adv-x="338" />
<glyph unicode="&#x200a;" horiz-adv-x="93" />
<glyph unicode="&#x2010;" d="M160 547q0 36 13.5 50t45.5 14h716q32 0 46 -14t14 -50t-14 -50t-46 -14h-716q-32 0 -45.5 14t-13.5 50z" />
<glyph unicode="&#x2011;" d="M160 547q0 36 13.5 50t45.5 14h716q32 0 46 -14t14 -50t-14 -50t-46 -14h-716q-32 0 -45.5 14t-13.5 50z" />
<glyph unicode="&#x2012;" d="M160 547q0 36 13.5 50t45.5 14h716q32 0 46 -14t14 -50t-14 -50t-46 -14h-716q-32 0 -45.5 14t-13.5 50z" />
<glyph unicode="&#x2013;" d="M160 547q0 36 13.5 50t45.5 14h716q32 0 46 -14t14 -50t-14 -50t-46 -14h-716q-32 0 -45.5 14t-13.5 50z" />
<glyph unicode="&#x2014;" d="M-28 547q0 36 13.5 50t45.5 14h1092q32 0 46 -14t14 -50t-14 -50t-46 -14h-1092q-32 0 -45.5 14t-13.5 50z" />
<glyph unicode="&#x2018;" d="M399.5 667.5q-7.5 17.5 4.5 42.5l207 422q20 40 70 40q32 0 48.5 -17.5t9.5 -47.5l-95 -419q-9 -38 -49 -38h-164q-24 0 -31.5 17.5z" />
<glyph unicode="&#x2019;" d="M413 680l95 419q8 37 48 37h165q23 0 31 -17t-5 -42l-207 -422q-20 -40 -69 -40q-32 0 -49 17.5t-9 47.5z" />
<glyph unicode="&#x201a;" d="M413 -180l95 419q8 37 48 37h165q23 0 31 -17t-5 -42l-207 -422q-20 -40 -69 -40q-32 0 -49 17t-9 48z" />
<glyph unicode="&#x201c;" d="M206.5 667.5q-7.5 17.5 5.5 42.5l206 422q20 40 70 40q32 0 49 -17.5t9 -47.5l-95 -419q-8 -38 -49 -38h-164q-24 0 -31.5 17.5zM592.5 667.5q-7.5 17.5 4.5 42.5l207 422q19 40 69 40q32 0 49 -17.5t10 -47.5l-95 -419q-9 -38 -49 -38h-165q-23 0 -30.5 17.5z" />
<glyph unicode="&#x201d;" d="M220 680l95 419q8 37 49 37h164q24 0 31.5 -17t-4.5 -42l-207 -422q-21 -40 -70 -40q-32 0 -49 17.5t-9 47.5zM605 680l95 419q9 37 49 37h165q23 0 30.5 -17t-4.5 -42l-207 -422q-20 -40 -69 -40q-32 0 -49 17.5t-10 47.5z" />
<glyph unicode="&#x201e;" d="M220 -180l95 419q8 37 49 37h164q24 0 31.5 -17t-4.5 -42l-207 -422q-21 -40 -70 -40q-32 0 -49 17t-9 48zM605 -180l95 419q9 37 49 37h165q23 0 30.5 -17t-4.5 -42l-207 -422q-20 -40 -69 -40q-32 0 -49 17t-10 48z" />
<glyph unicode="&#x2020;" d="M273 805q0 35 13.5 49.5t45.5 14.5h181v208q0 32 14 45.5t50 13.5t50 -13.5t14 -45.5v-208h181q32 0 46 -14.5t14 -49.5q0 -36 -14 -50t-46 -14h-181v-418q0 -32 -14 -45.5t-50 -13.5t-50 13.5t-14 45.5v418h-181q-32 0 -45.5 14t-13.5 50z" />
<glyph unicode="&#x2021;" d="M273 493q0 35 13.5 49t45.5 14h181v232h-181q-32 0 -45.5 14t-13.5 50q0 35 13.5 49.5t45.5 14.5h181v161q0 32 14 45.5t50 13.5t50 -13.5t14 -45.5v-161h181q32 0 46 -14.5t14 -49.5q0 -36 -14 -50t-46 -14h-181v-232h181q32 0 46 -14t14 -49q0 -36 -14 -50t-46 -14 h-181v-162q0 -32 -14 -45.5t-50 -13.5t-50 13.5t-14 45.5v162h-181q-32 0 -45.5 14t-13.5 50z" />
<glyph unicode="&#x2022;" d="M329 563q0 52 19.5 97t53 79t78.5 53t97 19t97 -19t79 -53t53 -79t19 -97t-19 -97t-53 -79t-79 -53t-97 -19t-97 19t-78.5 53t-53 79t-19.5 97z" />
<glyph unicode="&#x2026;" d="M75 104q0 26 10 49t27 40t40 26.5t48 9.5q26 0 49 -9.5t40 -26.5t26.5 -40t9.5 -49q0 -25 -9.5 -48t-26.5 -40t-40 -27t-49 -10q-25 0 -48 10t-40 27t-27 40t-10 48zM452 104q0 26 10 49t27 40t40 26.5t48 9.5q26 0 49 -9.5t39.5 -26.5t26.5 -40t10 -49q0 -25 -10 -48 t-26.5 -40t-39.5 -27t-49 -10q-25 0 -48 10t-40 27t-27 40t-10 48zM829 104q0 26 10 49t27 40t40 26.5t48 9.5t48.5 -9.5t40 -26.5t26.5 -40t10 -49q0 -25 -10 -48t-26.5 -40t-40 -27t-48.5 -10t-48 10t-40 27t-27 40t-10 48z" />
<glyph unicode="&#x202f;" horiz-adv-x="338" />
<glyph unicode="&#x2030;" d="M47 879q0 53 20 100t55.5 82t82 55t100.5 20q53 0 99.5 -20t82 -55t55.5 -82t20 -100q0 -54 -20 -100.5t-55.5 -81.5t-82 -55.5t-99.5 -20.5q-54 0 -100.5 20.5t-82 55.5t-55.5 81.5t-20 100.5zM121 215l822 780q45 43 89 -4q46 -47 1 -90l-821 -780q-46 -42 -90 5 q-46 47 -1 89zM169 879q0 -28 11 -52.5t29 -43t42.5 -29t53.5 -10.5q28 0 52.5 10.5t42.5 29t29 43t11 52.5t-11 52.5t-29 43t-42.5 29t-52.5 10.5q-29 0 -53.5 -10.5t-42.5 -29t-29 -43t-11 -52.5zM592 237q0 53 20.5 100t55.5 82t81.5 55t100.5 20q62 0 112 -26.5 t84 -71.5q33 45 84 71.5t113 26.5q53 0 99.5 -20t82 -55t55.5 -82t20 -100q0 -54 -20 -100.5t-55.5 -81.5t-82 -55.5t-99.5 -20.5q-62 0 -113 26.5t-84 71.5q-34 -45 -84 -71.5t-112 -26.5q-54 0 -100.5 20.5t-81.5 55.5t-55.5 81.5t-20.5 100.5zM714 237q0 -28 11 -52.5 t29.5 -43t43 -29t52.5 -10.5t52.5 10.5t43 29t29 43t10.5 52.5t-10.5 52.5t-29 43t-43 29t-52.5 10.5t-52.5 -10.5t-43 -29t-29.5 -43t-11 -52.5zM1107 237q0 -28 11 -52.5t29.5 -43t42.5 -29t53 -10.5q28 0 52.5 10.5t42.5 29t29 43t11 52.5t-11 52.5t-29 43t-42.5 29 t-52.5 10.5q-29 0 -53 -10.5t-42.5 -29t-29.5 -43t-11 -52.5z" />
<glyph unicode="&#x2039;" d="M425 515q-13 23 0 45l186 307q12 19 36.5 21.5t48.5 -7.5q12 -6 22 -13.5t16 -17.5t6.5 -21t-7.5 -23l-163 -268l163 -268q8 -12 7.5 -23.5t-6.5 -21.5t-16 -17.5t-22 -12.5q-24 -11 -48.5 -8.5t-36.5 22.5z" />
<glyph unicode="&#x203a;" d="M414.5 246.5q-0.5 11.5 6.5 23.5l164 268l-164 268q-7 12 -6.5 23t6 21t15.5 17.5t23 13.5q23 10 47.5 7.5t36.5 -21.5l186 -307q14 -22 0 -45l-186 -306q-12 -20 -36.5 -22.5t-47.5 8.5q-13 5 -23 12.5t-15.5 17.5t-6 21.5z" />
<glyph unicode="&#x2044;" d="M104 246q0 17 14 26l862 527q13 8 28.5 2t28.5 -25q13 -18 13 -35t-13 -26l-863 -527q-12 -8 -27.5 -2t-28.5 25q-14 18 -14 35z" />
<glyph unicode="&#x205f;" horiz-adv-x="422" />
<glyph unicode="&#x2074;" d="M227 738q0 16 4 27t12 23l357 425q16 19 33 30t43 11q15 0 30 -4t26.5 -11t19 -16.5t7.5 -21.5v-419h102q22 0 33.5 -13t11.5 -45t-11.5 -45.5t-33.5 -13.5h-102v-173q0 -22 -14 -34t-49 -12t-49.5 12t-14.5 34v173h-354q-21 0 -36 16.5t-15 56.5zM388 782h244l5 300z " />
<glyph unicode="&#x20a3;" d="M38 331q0 36 13.5 50t45.5 14h161v593h-124q-32 0 -45.5 14t-13.5 50t13.5 50t45.5 14h850q32 0 45.5 -14t13.5 -50v-248q0 -33 -15.5 -47t-54.5 -14q-40 0 -55.5 14t-15.5 47v184h-502v-330h324q32 0 45.5 -14t13.5 -50t-13.5 -50t-45.5 -14h-324v-135h413 q32 0 45.5 -14t13.5 -50t-13.5 -50t-45.5 -14h-413v-139h218q32 0 45.5 -14t13.5 -50t-13.5 -50t-45.5 -14h-484q-32 0 -45.5 14t-13.5 50t13.5 50t45.5 14h124v139h-161q-32 0 -45.5 14t-13.5 50z" />
<glyph unicode="&#x20ac;" d="M56 415q0 36 14 50t46 14h75q-4 39 -3.5 83.5t4.5 80.5h-76q-32 0 -46 14t-14 50t14 50t46 14h94q19 84 56 152t88 115.5t117 72.5t144 25q82 0 145 -30.5t109 -83.5v53q0 33 15.5 47t54.5 14q40 0 55.5 -14t15.5 -47v-310q0 -33 -15.5 -47t-55.5 -14q-39 0 -54.5 14 t-15.5 47q0 46 -15.5 88.5t-46.5 74.5t-76.5 50.5t-106.5 18.5q-98 0 -164 -59t-98 -167h272q32 0 46 -14t14 -50t-14 -50t-46 -14h-294q-3 -40 -3.5 -82t2.5 -82h295q32 0 46 -14t14 -50q0 -35 -14 -49t-46 -14h-276q29 -111 93 -172.5t164 -61.5q86 0 164.5 27t146.5 80 q19 15 41.5 13t42.5 -37q20 -33 16.5 -57t-28.5 -42q-89 -62 -186 -92.5t-197 -30.5q-82 0 -148.5 26t-118.5 74t-87 117t-54 156h-91q-32 0 -46 14t-14 49z" />
<glyph unicode="&#x2122;" d="M56 1177q0 32 14 44t46 12h359q32 0 45.5 -12t13.5 -44t-13.5 -44t-45.5 -12h-122v-357q0 -33 -12.5 -47t-45.5 -14t-45.5 14t-12.5 47v357h-121q-32 0 -46 12t-14 44zM625 764l28 418q2 32 17 46.5t48 14.5q23 0 37.5 -6t20.5 -19l134 -281l133 281q7 13 21.5 19t37.5 6 q33 0 48 -14.5t17 -46.5l28 -418q2 -33 -9.5 -47t-44.5 -14t-45 14t-14 47l-17 244l-87 -181q-12 -22 -30 -33.5t-38 -11.5t-38.5 11.5t-29.5 33.5l-88 181l-16 -244q-2 -33 -14 -47t-45 -14t-44.5 14t-9.5 47z" />
<glyph unicode="&#x2206;" d="M19 64q0 36 13.5 50t45.5 14h75l330 947q12 33 35.5 47t61.5 14t61 -14t34 -47l325 -947h76q32 0 46 -14t14 -50t-14 -50t-46 -14h-998q-32 0 -45.5 14t-13.5 50zM302 128h551l-274 833z" />
<glyph unicode="&#x2211;" d="M282 -708h590v-80h-590v80zM282 1609v80h590v-80h-590z" />
<glyph unicode="&#x2212;" d="M160 547q0 36 13.5 50t45.5 14h716q32 0 46 -14t14 -50t-14 -50t-46 -14h-716q-32 0 -45.5 14t-13.5 50z" />
<glyph unicode="&#x222b;" d="M7.5 -307q-7.5 18 2.5 51q11 32 26.5 46t39.5 5q59 -22 113.5 -35t111.5 -13q99 0 152.5 67t53.5 191v1037q0 88 24 159t68 121t108 77t145 27q70 0 137.5 -15t124.5 -40q25 -10 32.5 -28.5t-2.5 -50.5t-25.5 -46.5t-40.5 -4.5q-59 22 -113.5 35t-110.5 13 q-100 0 -153 -67t-53 -191v-1038q0 -87 -24 -158t-68.5 -121.5t-108.5 -77t-144 -26.5q-71 0 -138 15t-125 39q-25 11 -32.5 29z" />
<glyph unicode="&#x2248;" d="M144.5 343.5q-0.5 20.5 15.5 33.5q60 53 116.5 73t110.5 20q51 0 99.5 -12.5t96 -27.5t94.5 -28t94 -13q39 0 78.5 12.5t81.5 42.5q16 12 34 2.5t31 -31.5q14 -22 14 -42.5t-15 -33.5q-62 -52 -118 -72.5t-110 -20.5q-51 0 -99.5 13t-95.5 28t-94 27.5t-94 12.5 q-40 0 -79.5 -12t-80.5 -42q-16 -13 -34.5 -3.5t-31.5 32.5q-13 21 -13.5 41.5zM144.5 719.5q-0.5 20.5 15.5 33.5q60 53 116.5 73t110.5 20q51 0 99.5 -12.5t96 -27.5t94.5 -28t94 -13q39 0 78.5 12.5t81.5 42.5q16 12 34 2.5t31 -31.5q14 -22 14 -42.5t-15 -33.5 q-62 -52 -118 -72.5t-110 -20.5q-51 0 -99.5 13t-95.5 28t-94 27.5t-94 12.5q-40 0 -79.5 -12t-80.5 -42q-16 -13 -34.5 -3.5t-31.5 32.5q-13 21 -13.5 41.5z" />
<glyph unicode="&#x2260;" d="M160 359q0 36 13.5 50t45.5 14h211l146 248h-357q-32 0 -45.5 14t-13.5 50t13.5 50t45.5 14h423l118 198q16 28 35.5 32.5t49.5 -13.5q30 -17 35 -36.5t-11 -47.5l-78 -133h144q32 0 46 -14t14 -50t-14 -50t-46 -14h-211l-146 -248h357q32 0 46 -14t14 -50t-14 -50 t-46 -14h-424l-116 -198q-16 -27 -36 -32t-50 13q-30 17 -35 36.5t12 48.5l78 132h-145q-32 0 -45.5 14t-13.5 50z" />
<glyph unicode="&#x2264;" d="M160 171q0 36 13.5 50t45.5 14h716q32 0 46 -14t14 -50t-14 -50t-46 -14h-716q-32 0 -45.5 14t-13.5 50zM160 710q0 28 12.5 44.5t36.5 25.5l693 273q30 11 50.5 3.5t33.5 -42.5q14 -35 3.5 -55t-41.5 -31l-576 -218l576 -218q31 -12 41.5 -31.5t-3.5 -55.5 q-13 -35 -33.5 -42.5t-50.5 4.5l-693 272q-24 10 -36.5 26.5t-12.5 44.5z" />
<glyph unicode="&#x2265;" d="M160 171q0 36 13.5 50t45.5 14h716q32 0 46 -14t14 -50t-14 -50t-46 -14h-716q-32 0 -45.5 14t-13.5 50zM165 460.5q11 19.5 41 31.5l576 218l-576 218q-30 11 -41 31t3 55q13 35 33.5 42.5t50.5 -3.5l694 -273q23 -9 36 -25.5t13 -44.5t-13 -44.5t-36 -26.5l-694 -272 q-30 -12 -50.5 -4.5t-33.5 42.5q-14 36 -3 55.5z" />
<glyph unicode="&#x25fc;" horiz-adv-x="869" d="M0 0v870h870v-870h-870z" />
<glyph unicode="&#xf6c3;" d="M432 -441l59 274q3 15 13 22.5t26 7.5h134q18 0 24.5 -14t-4.5 -34l-144 -274q-9 -16 -25.5 -25.5t-36.5 -9.5q-26 0 -38 14.5t-8 38.5z" />
<glyph unicode="&#xfb01;" d="M54 64q0 36 13.5 50t45.5 14h120v613h-120q-32 0 -45.5 14t-13.5 50q0 35 13.5 49.5t45.5 14.5h120v40q0 77 22 138t64.5 103.5t104 65t140.5 22.5q67 0 130.5 -13t119.5 -35q25 -10 38 -30.5t4 -55.5q-9 -39 -27 -49t-42 0q-56 21 -111.5 33.5t-111.5 12.5 q-100 0 -145 -53.5t-45 -150.5v-28h519q32 0 45.5 -14.5t13.5 -49.5v-677h114q32 0 45.5 -14t13.5 -50t-13.5 -50t-45.5 -14h-361q-32 0 -45.5 14t-13.5 50t13.5 50t45.5 14h106v613h-437v-613h109q32 0 45.5 -14t13.5 -50t-13.5 -50t-45.5 -14h-370q-32 0 -45.5 14 t-13.5 50z" />
<glyph unicode="&#xfb02;" d="M54 64q0 36 13.5 50t45.5 14h120v538h-120q-32 0 -45.5 14t-13.5 49q0 36 13.5 50t45.5 14h120v116q0 155 83.5 239.5t242.5 84.5h334q32 0 45.5 -14t13.5 -50v-1041h114q32 0 45.5 -14t13.5 -50t-13.5 -50t-45.5 -14h-361q-32 0 -45.5 14t-13.5 50t13.5 50t45.5 14h106 v977h-242q-100 0 -147.5 -54t-47.5 -150v-108h203q32 0 45.5 -14t13.5 -50q0 -35 -13.5 -49t-45.5 -14h-203v-538h109q32 0 45.5 -14t13.5 -50t-13.5 -50t-45.5 -14h-370q-32 0 -45.5 14t-13.5 50z" />
<glyph d="M700 138q0 33 13 61.5t34.5 50.5t50 34.5t61.5 12.5t61.5 -12.5t50.5 -34.5t34.5 -50.5t12.5 -61.5t-12.5 -61.5t-34.5 -50t-50.5 -34.5t-61.5 -13t-61.5 13t-50 34.5t-34.5 50t-13 61.5z" />
<glyph d="M634 -214l97 453q9 37 49 37h183q23 0 31 -17t-5 -42l-237 -455q-10 -20 -26.5 -29t-35.5 -9q-13 0 -24.5 4t-20 12t-11.5 19.5t0 26.5z" />
<glyph d="M700 138q0 33 13 61.5t34.5 50.5t50 34.5t61.5 12.5t61.5 -12.5t50.5 -34.5t34.5 -50.5t12.5 -61.5t-12.5 -61.5t-34.5 -50t-50.5 -34.5t-61.5 -13t-61.5 13t-50 34.5t-34.5 50t-13 61.5zM700 730q0 33 13 62t34.5 50.5t50 34t61.5 12.5t61.5 -12.5t50.5 -34t34.5 -50.5 t12.5 -62t-12.5 -61.5t-34.5 -50t-50.5 -34t-61.5 -12.5t-61.5 12.5t-50 34t-34.5 50t-13 61.5z" />
<glyph d="M634 -214l97 453q9 37 49 37h183q23 0 31 -17t-5 -42l-237 -455q-10 -20 -26.5 -29t-35.5 -9q-13 0 -24.5 4t-20 12t-11.5 19.5t0 26.5zM700 730q0 33 13 62t34.5 50.5t50 34t61.5 12.5t61.5 -12.5t50.5 -34t34.5 -50.5t12.5 -62t-12.5 -61.5t-34.5 -50t-50.5 -34 t-61.5 -12.5t-61.5 12.5t-50 34t-34.5 50t-13 61.5z" />
<glyph d="M-428 138q0 33 13 61.5t34.5 50.5t50 34.5t61.5 12.5t61.5 -12.5t50.5 -34.5t34.5 -50.5t12.5 -61.5t-12.5 -61.5t-34.5 -50t-50.5 -34.5t-61.5 -13t-61.5 13t-50 34.5t-34.5 50t-13 61.5zM418 138q0 33 13 61.5t34.5 50.5t50 34.5t61.5 12.5t61.5 -12.5t50.5 -34.5 t34.5 -50.5t12.5 -61.5t-12.5 -61.5t-34.5 -50t-50.5 -34.5t-61.5 -13t-61.5 13t-50 34.5t-34.5 50t-13 61.5zM1264 138q0 33 13 61.5t34.5 50.5t50 34.5t61.5 12.5t61.5 -12.5t50.5 -34.5t34.5 -50.5t12.5 -61.5t-12.5 -61.5t-34.5 -50t-50.5 -34.5t-61.5 -13t-61.5 13 t-50 34.5t-34.5 50t-13 61.5z" />
<glyph horiz-adv-x="3462" d="M727 138q0 33 12.5 61.5t34 50.5t50.5 34.5t61 12.5q33 0 62 -12.5t50.5 -34.5t34 -50.5t12.5 -61.5t-12.5 -61.5t-34 -50t-50.5 -34.5t-62 -13q-32 0 -61 13t-50.5 34.5t-34 50t-12.5 61.5zM1573 138q0 33 12.5 61.5t34 50.5t50.5 34.5t61 12.5q33 0 62 -12.5 t50.5 -34.5t34 -50.5t12.5 -61.5t-12.5 -61.5t-34 -50t-50.5 -34.5t-62 -13q-32 0 -61 13t-50.5 34.5t-34 50t-12.5 61.5zM2419 138q0 33 12.5 61.5t34 50.5t50.5 34.5t61 12.5q33 0 62 -12.5t50.5 -34.5t34 -50.5t12.5 -61.5t-12.5 -61.5t-34 -50t-50.5 -34.5t-62 -13 q-32 0 -61 13t-50.5 34.5t-34 50t-12.5 61.5z" />
<glyph d="M263 104q0 26 10 49t27 40t40 26.5t48 9.5q26 0 49 -9.5t40 -26.5t26.5 -40t9.5 -49q0 -25 -9.5 -48t-26.5 -40t-40 -27t-49 -10q-25 0 -48 10t-40 27t-27 40t-10 48zM772 104q0 26 9.5 49t26.5 40t40 26.5t49 9.5q25 0 48 -9.5t40 -26.5t27 -40t10 -49q0 -25 -10 -48 t-27 -40t-40 -27t-48 -10q-26 0 -49 10t-40 27t-26.5 40t-9.5 48zM1280 104q0 26 10 49t27 40t40 26.5t48 9.5q26 0 49 -9.5t40 -26.5t26.5 -40t9.5 -49q0 -25 -9.5 -48t-26.5 -40t-40 -27t-49 -10q-25 0 -48 10t-40 27t-27 40t-10 48z" />
<glyph d="M-451 104q0 26 10 49t26.5 40t39.5 26.5t49 9.5q25 0 48 -9.5t40 -26.5t27 -40t10 -49q0 -25 -10 -48t-27 -40t-40 -27t-48 -10q-26 0 -49 10t-39.5 27t-26.5 40t-10 48zM189 104q0 26 10 49t27 40t40 26.5t48 9.5t48 -9.5t40 -26.5t27 -40t10 -49q0 -25 -10 -48t-27 -40 t-40 -27t-48 -10t-48 10t-40 27t-27 40t-10 48zM829 104q0 26 10 49t27 40t40 26.5t48 9.5t48.5 -9.5t40 -26.5t26.5 -40t10 -49q0 -25 -10 -48t-26.5 -40t-40 -27t-48.5 -10t-48 10t-40 27t-27 40t-10 48z" />
<glyph horiz-adv-x="3462" d="M727 138q0 33 12.5 61.5t34 50.5t50.5 34.5t61 12.5q33 0 62 -12.5t50.5 -34.5t34 -50.5t12.5 -61.5t-12.5 -61.5t-34 -50t-50.5 -34.5t-62 -13q-32 0 -61 13t-50.5 34.5t-34 50t-12.5 61.5zM1714 138q0 33 12.5 61.5t34 50.5t50.5 34.5t61 12.5q33 0 62 -12.5 t50.5 -34.5t34 -50.5t12.5 -61.5t-12.5 -61.5t-34 -50t-50.5 -34.5t-62 -13q-32 0 -61 13t-50.5 34.5t-34 50t-12.5 61.5zM2701 138q0 33 12.5 61.5t34 50.5t50.5 34.5t61 12.5q33 0 62 -12.5t50.5 -34.5t34 -50.5t12.5 -61.5t-12.5 -61.5t-34 -50t-50.5 -34.5t-62 -13 q-32 0 -61 13t-50.5 34.5t-34 50t-12.5 61.5z" />
<glyph d="M-404 547q0 36 13.5 50t45.5 14h1844q32 0 46 -14t14 -50t-14 -50t-46 -14h-1844q-32 0 -45.5 14t-13.5 50z" />
<glyph horiz-adv-x="2308" d="M-15 547q0 36 13.5 50t45.5 14h2220q32 0 46 -14t14 -50t-14 -50t-46 -14h-2220q-32 0 -45.5 14t-13.5 50z" />
<glyph horiz-adv-x="2308" d="M267 547q0 36 13.5 50t45.5 14h1656q32 0 46 -14t14 -50t-14 -50t-46 -14h-1656q-32 0 -45.5 14t-13.5 50z" />
<glyph d="M-216 547q0 36 13.5 50t45.5 14h1468q32 0 46 -14t14 -50t-14 -50t-46 -14h-1468q-32 0 -45.5 14t-13.5 50z" />
<glyph d="M254 547q0 42 13.5 57.5t45.5 15.5h528q32 0 46 -15.5t14 -57.5t-14 -57.5t-46 -15.5h-528q-32 0 -45.5 15.5t-13.5 57.5z" />
</font>
</defs>
</svg>
